<svg width="76" height="79" viewBox="0 0 76 79" fill="none" xmlns="http://www.w3.org/2000/svg">
<path opacity="0.1" d="M21.1363 6.71849C21.1363 2.30922 24.2191 0.522169 28.0218 2.7268C31.8246 4.93144 34.9074 10.2929 34.9074 14.7022C34.9074 19.1115 31.8246 20.8985 28.0218 18.6939C24.2191 16.4893 21.1363 11.1278 21.1363 6.71849Z" fill="url(#paint0_linear_873_6263)"/>
<path opacity="0.3" d="M18.1043 8.4627C18.1043 4.05343 21.1872 2.26637 24.9899 4.47101C28.7929 6.67564 31.8758 12.0375 31.8758 16.4464C31.8758 20.8553 28.7929 22.6427 24.9902 20.4381C21.1872 18.2335 18.1043 12.872 18.1043 8.4627Z" fill="url(#paint1_linear_873_6263)"/>
<path opacity="0.48" d="M15.0726 10.2068C15.0726 5.79757 18.1555 4.01051 21.9582 6.21515C25.7609 8.41978 28.8441 13.7816 28.8441 18.1906C28.8441 22.5995 25.7612 24.3869 21.9585 22.1822C18.1558 19.9776 15.0726 14.6161 15.0726 10.2068Z" fill="url(#paint2_linear_873_6263)"/>
<path d="M15.052 36.1677C14.4636 35.8266 14.4636 35.2736 15.052 34.9323C15.6403 34.5913 16.5944 34.5913 17.1828 34.9323C17.7711 35.2733 17.7711 35.8263 17.1828 36.1677C16.5944 36.5087 15.6403 36.5087 15.052 36.1677Z" fill="url(#paint3_linear_873_6263)"/>
<path d="M15.052 36.0935C15.6403 36.4345 16.5944 36.4345 17.1828 36.0935C17.4607 35.9322 17.6058 35.7239 17.621 35.5129C17.6383 35.7487 17.4932 35.9876 17.1828 36.1677C16.5944 36.5087 15.6403 36.5087 15.052 36.1677C14.7415 35.9876 14.5965 35.7487 14.6137 35.5129C14.629 35.7239 14.7741 35.9325 15.052 36.0935Z" fill="white"/>
<path d="M15.052 39.106C14.4636 38.765 14.4636 38.212 15.052 37.8706C15.6403 37.5296 16.5944 37.5296 17.1828 37.8706C17.7711 38.2116 17.7711 38.7647 17.1828 39.106C16.5944 39.447 15.6403 39.447 15.052 39.106Z" fill="url(#paint4_linear_873_6263)"/>
<path d="M15.052 42.0958C14.4636 41.7548 14.4636 41.2018 15.052 40.8604C15.6403 40.5194 16.5944 40.5194 17.1828 40.8604C17.7711 41.2014 17.7711 41.7545 17.1828 42.0958C16.5944 42.4368 15.6403 42.4368 15.052 42.0958Z" fill="url(#paint5_linear_873_6263)"/>
<path d="M17.6256 35.55V34.0219C17.6256 34.2455 17.4785 34.4688 17.1843 34.6393C16.5959 34.9803 15.6418 34.9803 15.0535 34.6393C14.7681 34.4739 14.6227 34.2588 14.6139 34.042V27.5748H17.6256V46.6215C17.6256 47.4566 16.9514 48.1336 16.1197 48.1336C15.288 48.1336 14.6139 47.4566 14.6139 46.6215V41.4577C14.6047 41.6878 14.7505 41.9199 15.0535 42.0955C15.6418 42.4365 16.5959 42.4365 17.1843 42.0955C17.4778 41.9253 17.6249 41.7024 17.6256 41.4795V41.4778V41.4774V39.9494C17.6256 40.1726 17.4785 40.3962 17.1843 40.5667C16.5959 40.9077 15.6418 40.9077 15.0535 40.5667C14.7681 40.4013 14.6227 40.1863 14.6139 39.9695V38.4676C14.6047 38.698 14.7505 38.9298 15.0535 39.1054C15.6418 39.4464 16.5959 39.4464 17.1843 39.1054C17.4778 38.9352 17.6249 38.7123 17.6256 38.4894V38.4877V38.4873V36.9593C17.6256 37.1829 17.4785 37.4061 17.1843 37.5766C16.5959 37.9176 15.6418 37.9176 15.0535 37.5766C14.7681 37.4112 14.6227 37.1961 14.6139 36.9794V35.5292C14.6047 35.7593 14.7505 35.9914 15.0535 36.167C15.6418 36.508 16.5959 36.508 17.1843 36.167C17.4778 35.9968 17.6249 35.7739 17.6256 35.551V35.55Z" fill="url(#paint6_linear_873_6263)"/>
<path d="M15.052 39.0319C15.6403 39.3729 16.5944 39.3729 17.1828 39.0319C17.4607 38.8706 17.6058 38.6623 17.621 38.4513C17.6383 38.6871 17.4932 38.926 17.1828 39.1061C16.5944 39.4471 15.6403 39.4471 15.052 39.1061C14.7415 38.926 14.5965 38.6871 14.6137 38.4513C14.629 38.6623 14.7741 38.8706 15.052 39.0319Z" fill="white"/>
<path d="M15.052 42.0216C15.6403 42.3626 16.5944 42.3626 17.1828 42.0216C17.4607 41.8603 17.6058 41.652 17.621 41.441C17.6383 41.6769 17.4932 41.9158 17.1828 42.0958C16.5944 42.4368 15.6403 42.4368 15.052 42.0958C14.7415 41.9158 14.5965 41.6769 14.6137 41.441C14.629 41.652 14.7741 41.8603 15.052 42.0216Z" fill="white"/>
<path opacity="0.48" d="M15.0513 34.6389C15.6397 34.9799 16.5937 34.9799 17.1821 34.6389C17.4763 34.4684 17.6234 34.2451 17.6234 34.0215V35.5496V35.55V35.5517C17.6227 35.7746 17.4756 35.9975 17.1821 36.1677C16.5937 36.5087 15.6397 36.5087 15.0513 36.1677C14.7483 35.992 14.6026 35.7599 14.6117 35.5299V34.042C14.6202 34.2584 14.7659 34.4738 15.0513 34.6389Z" fill="url(#paint7_linear_873_6263)"/>
<path opacity="0.48" d="M15.0513 37.5773C15.6397 37.9183 16.5937 37.9183 17.1821 37.5773C17.4763 37.4068 17.6234 37.1832 17.6234 36.96V38.488V38.4884V38.4901C17.6227 38.713 17.4756 38.9359 17.1821 39.1061C16.5937 39.4471 15.6397 39.4471 15.0513 39.1061C14.7483 38.9304 14.6026 38.6983 14.6117 38.4683V36.9804C14.6202 37.1968 14.7659 37.4119 15.0513 37.5773Z" fill="url(#paint8_linear_873_6263)"/>
<path opacity="0.48" d="M15.0513 40.5671C15.6397 40.9081 16.5937 40.9081 17.1821 40.5671C17.4763 40.3966 17.6234 40.173 17.6234 39.9497V41.4778V41.4781V41.4798C17.6227 41.7027 17.4756 41.9256 17.1821 42.0958C16.5937 42.4368 15.6397 42.4368 15.0513 42.0958C14.7483 41.9202 14.6026 41.6881 14.6117 41.458V39.9701C14.6202 40.1866 14.7659 40.4017 15.0513 40.5671Z" fill="url(#paint9_linear_873_6263)"/>
<path d="M21.5617 25.2234C21.6311 25.1849 21.6999 25.1451 21.7664 25.1016L22.5029 20.9139L21.5789 15.355L19.0123 12.5456L16.3687 9.96827L12.1593 8.21559L12.0488 8.17203C11.8492 8.27242 11.6621 8.39562 11.4855 8.53549C10.4331 8.40345 9.38078 8.2714 8.32842 8.13935C8.50534 7.70374 8.71513 7.30623 8.96255 6.95842L8.45857 6.76035L10.3433 5.66994C10.3657 5.65667 10.3881 5.64374 10.4108 5.63081L10.4813 5.58997L10.485 5.59167C12.1064 4.71363 14.3128 4.87256 16.7462 6.28321C21.7223 9.16816 25.7565 16.184 25.7565 21.9536C25.7565 24.816 24.7628 26.8325 23.1546 27.7871V27.7878L23.1421 27.7949C23.1238 27.8058 23.1051 27.8164 23.0865 27.8269L21.0851 28.9765L21.1878 28.3929C20.938 28.4126 20.6808 28.4143 20.4171 28.3983C20.9716 27.4161 21.7216 26.3271 21.5617 25.2234Z" fill="url(#paint10_linear_873_6263)"/>
<path d="M7.74106 11.74C7.7397 11.662 7.73597 11.5838 7.73597 11.5062C7.73597 10.1983 7.94848 9.07283 8.32773 8.13898C9.38009 8.27102 10.4324 8.40307 11.4848 8.53512C10.4728 9.33795 9.86034 10.7765 9.86034 12.7375C9.86034 17.1467 12.9432 22.5082 16.7459 24.7129C18.6215 25.8002 20.3198 25.9132 21.5613 25.223C21.7213 26.3267 20.9712 27.4158 20.4164 28.3976C19.581 28.3465 18.6781 28.1138 17.7315 27.6846L18.0287 28.0205C18.0287 28.0205 14.2812 26.715 14.2043 26.631C14.1274 26.5469 9.76375 22.1244 9.76375 22.1244L6.91476 15.9532L7.74106 11.74Z" fill="url(#paint11_linear_873_6263)"/>
<path opacity="0.5" d="M8.63277 13.6547C8.63277 9.24538 11.7156 7.45833 15.5183 9.66296C19.321 11.8676 22.4039 17.2291 22.4039 21.6384C22.4039 26.0476 19.3214 27.8347 15.5183 25.6301C11.7156 23.4254 8.63277 18.0636 8.63277 13.6547Z" fill="url(#paint12_linear_873_6263)"/>
<path opacity="0.48" d="M9.23165 13.328C9.23165 8.91872 12.3145 7.13167 16.1172 9.3363C19.9199 11.5409 23.0028 16.9024 23.0028 21.3117C23.0028 25.721 19.9199 27.508 16.1172 25.3034C12.3145 23.0988 9.23165 17.7373 9.23165 13.328Z" fill="url(#paint13_linear_873_6263)"/>
<path d="M5.75531 12.6531C5.75531 18.4227 9.78917 25.4385 14.7656 28.3234C19.7416 31.2084 23.7755 28.87 23.7755 23.1004C23.7755 17.3309 19.7416 10.3147 14.7656 7.42977C9.78917 4.54516 5.75531 6.88354 5.75531 12.6531ZM7.87968 13.8847C7.87968 9.47547 10.9625 7.68842 14.7652 9.89305C18.5679 12.0977 21.6508 17.4592 21.6508 21.8685C21.6508 26.2777 18.5679 28.0648 14.7652 25.8601C10.9625 23.6555 7.87968 18.294 7.87968 13.8847Z" fill="#BCBEFF"/>
<path d="M5.75531 12.6531C5.75531 18.4227 9.78917 25.4385 14.7656 28.3234C19.7416 31.2084 23.7755 28.87 23.7755 23.1004C23.7755 17.3309 19.7416 10.3147 14.7656 7.42977C9.78917 4.54516 5.75531 6.88354 5.75531 12.6531ZM7.87968 13.8847C7.87968 9.47547 10.9625 7.68842 14.7652 9.89305C18.5679 12.0977 21.6508 17.4592 21.6508 21.8685C21.6508 26.2777 18.5679 28.0648 14.7652 25.8601C10.9625 23.6555 7.87968 18.294 7.87968 13.8847Z" fill="#BCBEFF"/>
<path d="M23.6386 23.2549C23.6386 17.4854 19.6047 10.4696 14.6283 7.58461C11.5654 5.80879 8.86119 6.01468 7.23334 7.77894C8.8439 5.87311 11.6149 5.60357 14.7652 7.4301C19.7416 10.3147 23.7755 17.3305 23.7755 23.1004C23.7755 25.3187 23.1773 27.0275 22.1605 28.1294C23.0939 27.0247 23.6386 25.3718 23.6386 23.2549Z" fill="white"/>
<path d="M14.6286 26.0151C10.8259 23.8104 7.74306 18.4489 7.74306 14.0396C7.74306 12.3315 8.20739 11.0192 8.99538 10.1776C8.29076 11.0216 7.87999 12.2781 7.87999 13.8851C7.87999 18.2944 10.9628 23.6559 14.7655 25.8605C17.0953 27.211 19.1529 27.0616 20.3991 25.7309C19.1702 27.2028 17.0455 27.4162 14.6286 26.0151Z" fill="white"/>
<path d="M41.305 79.0001C40.7322 79.0001 40.1587 78.8518 39.6473 78.5553L1.82827 56.6298C1.63644 56.5185 1.52155 56.3194 1.52155 56.0968C1.52155 55.8743 1.6361 55.6752 1.82827 55.5639L25.3275 41.9403C25.3586 41.9222 25.3969 41.9222 25.4281 41.9403L64.8547 64.7976C65.0465 64.9089 65.161 65.108 65.161 65.3306C65.161 65.5532 65.0465 65.7523 64.8547 65.8635L42.9626 78.5553C42.4515 78.8518 41.8784 79.0001 41.305 79.0001ZM25.378 42.1441L1.92893 55.7385C1.7998 55.8134 1.72287 55.9471 1.72287 56.0968C1.72287 56.2463 1.7998 56.3803 1.92893 56.4552L39.7483 78.3807C40.7085 78.9375 41.9018 78.9379 42.8623 78.3807L64.7543 65.689C64.8835 65.6141 64.9604 65.4803 64.9604 65.3306C64.9604 65.1812 64.8835 65.0471 64.7543 64.9722L25.378 42.1441Z" fill="#42E8E0"/>
<path d="M26.6055 31.9871L31.8744 0.598397L31.4508 0.419386L32.0873 0.0528539L32.0863 0.0565975C32.2096 -0.0261019 32.3845 -0.020997 32.577 0.0906301L74.6854 24.5026C75.0311 24.703 75.2928 25.2173 75.2321 25.5767L69.9215 57.2148C69.8937 57.3795 69.8124 57.4888 69.6995 57.5367L69.7002 57.5371L69.0773 57.8985L68.9702 57.3145L69.0058 57.3254L27.1522 33.0611C26.8065 32.8607 26.5449 32.3464 26.6055 31.9871Z" fill="url(#paint14_linear_873_6263)"/>
<path d="M74.4509 25.3609L75.1433 25.0532C75.2209 25.2312 75.2592 25.4184 75.2325 25.5763L69.9219 57.2144C69.8941 57.3791 69.8127 57.4884 69.6999 57.5364L69.7006 57.5367L69.0776 57.8981L68.9705 57.3141L69.0061 57.325L66.8882 56.0971L74.4509 25.3609Z" fill="url(#paint15_linear_873_6263)"/>
<path d="M26.4917 33.4416L68.6001 57.8535C68.9251 58.0421 69.2034 57.9332 69.2606 57.5952L74.5712 25.9571C74.6319 25.5977 74.3702 25.0835 74.0245 24.883L31.9161 0.471089C31.5911 0.282548 31.3128 0.391453 31.2555 0.729397L25.945 32.3675C25.8843 32.7272 26.146 33.2411 26.4917 33.4416Z" fill="#24126A"/>
<g opacity="0.51">
<path opacity="0.51" d="M32.4665 2.49066L73.0559 26.0219L68.0225 55.8185L27.4606 32.3029L32.4665 2.49066Z" fill="#453C9E"/>
</g>
<path d="M0.0221329 48.4204L2.32003 49.6255L25.3627 36.2667C25.7484 36.0431 26.4215 36.0713 26.8668 36.3293L66.6093 59.3697C66.9895 59.156 68.7235 58.3188 68.7235 58.3188L67.8822 60.5197C67.8822 60.5197 67.8795 60.5173 67.8789 60.517C67.8439 60.615 67.7694 60.7062 67.6436 60.779L43.3754 74.8481C42.9897 75.0717 42.3166 75.0438 41.8713 74.7855L1.20226 51.2084C1.01958 51.1025 0.907399 50.9742 0.860966 50.8442L0.857916 50.8463L0.0221329 48.4204Z" fill="url(#paint16_linear_873_6263)"/>
<path d="M0.377328 48.7999L42.0577 72.9637C42.5139 73.2282 43.2039 73.2567 43.5991 73.0277L68.4713 58.6084C68.8665 58.3794 68.817 57.9791 68.3605 57.7147L26.6804 33.5508C26.2242 33.2864 25.5342 33.2575 25.139 33.4869L0.26684 47.9062C-0.128344 48.1352 -0.0788615 48.5354 0.377328 48.7999Z" fill="url(#paint17_linear_873_6263)"/>
<path d="M54.6297 67.7367V67.2776C54.6297 67.234 54.6033 67.2139 54.5707 67.233L52.9585 68.1675C52.9259 68.1862 52.8995 68.2369 52.8995 68.2805V68.7396C52.8995 68.7832 52.9259 68.8032 52.9585 68.7842L54.5707 67.8496C54.6033 67.8306 54.6297 67.7802 54.6297 67.7367Z" fill="#2842A2"/>
<path d="M52.2189 69.1344V68.6753C52.2189 68.6318 52.1925 68.6117 52.1599 68.6307L50.5477 69.5653C50.5152 69.584 50.4887 69.6347 50.4887 69.6783V70.1374C50.4887 70.1809 50.5152 70.201 50.5477 70.182L52.1599 69.2474C52.1925 69.2284 52.2189 69.178 52.2189 69.1344Z" fill="#2842A2"/>
<path d="M61.987 57.2576L27.3508 37.1777C27.12 37.0439 26.8353 37.0439 26.6045 37.178L14.2704 44.3436C14.0932 44.4464 14.0935 44.7033 14.2708 44.8061L48.891 64.8768C49.1218 65.0106 49.4059 65.0106 49.6367 64.8768L61.9874 57.7205C62.1643 57.6177 62.1643 57.3604 61.987 57.2576Z" fill="#ADB1F2"/>
<path d="M61.987 57.7205L61.863 57.7923L27.3508 37.7838C27.12 37.6501 26.8353 37.6501 26.6045 37.7842L14.3948 44.8776L14.2708 44.8058C14.0935 44.703 14.0935 44.4464 14.2705 44.3433L26.6045 37.1777C26.8353 37.0436 27.12 37.0436 27.3508 37.1774L61.9874 57.2577C62.1643 57.3604 62.1643 57.6177 61.987 57.7205Z" fill="#9198DB"/>
<path d="M25.6735 38.9926L55.76 56.4351L57.0981 55.6595L27.0116 38.217L25.6735 38.9926Z" fill="#24126A"/>
<path d="M22.3941 40.8941L50.6142 57.2546L51.9519 56.479L23.7318 40.1185L22.3941 40.8941Z" fill="#24126A"/>
<path d="M20.2579 42.1325L53.4838 61.395L54.8219 60.6194L21.5956 41.3569L20.2579 42.1325Z" fill="#24126A"/>
<path d="M18.1216 43.3709L51.3479 62.6334L52.6856 61.8578L19.4597 42.5953L18.1216 43.3709Z" fill="#24126A"/>
<path d="M15.9857 44.6094L49.2117 63.8719L50.5494 63.0963L17.3235 43.8338L15.9857 44.6094Z" fill="#24126A"/>
<path d="M57.578 57.489L58.9157 58.2646L60.2538 57.489L58.9161 56.7134L57.578 57.489Z" fill="#24126A"/>
<path d="M52.8595 58.5563L55.6363 60.166L56.974 59.3904L54.1972 57.7807L52.8595 58.5563Z" fill="#24126A"/>
<path d="M26.0172 62.1172L16.6778 56.7029C16.3128 56.4912 16.3128 56.1482 16.6778 55.9365L23.0641 52.2341C23.4292 52.0224 24.0209 52.0224 24.3859 52.2341L33.7253 57.6483C34.0903 57.86 34.0903 58.2031 33.7253 58.4148L27.339 62.1172C26.974 62.3288 26.3822 62.3288 26.0172 62.1172Z" fill="url(#paint18_linear_873_6263)"/>
<path d="M33.7253 57.9618L24.3863 52.5476C24.0213 52.3359 23.4295 52.3359 23.0645 52.5476L16.6782 56.25C16.5656 56.3153 16.4917 56.3936 16.4487 56.4763C16.3521 56.2911 16.4257 56.0825 16.6782 55.9362L23.0645 52.2338C23.4295 52.0221 24.0213 52.0221 24.3863 52.2338L33.7253 57.648C33.9778 57.7944 34.0513 58.003 33.9547 58.1881C33.9117 58.1058 33.8378 58.0271 33.7253 57.9618Z" fill="#9198DB"/>
<path opacity="0.42" d="M45.9377 55.4692L54.9168 49.9209L34.7288 38.217L25.2017 44.6479L45.9377 55.4692Z" fill="url(#paint19_radial_873_6263)"/>
<path opacity="0.42" d="M54.9168 49.9209L56.974 36.8745L38.0289 25.9623V40.1042L54.9168 49.9209Z" fill="url(#paint20_radial_873_6263)"/>
<path d="M36.046 19.6247L38.0504 18.4656V18.4673C38.0768 18.4499 38.1117 18.4489 38.1504 18.4713L63.2645 33.0312C63.3466 33.0788 63.413 33.2061 63.413 33.316V38.0765C63.413 38.1293 63.3971 38.1674 63.372 38.1885L63.3727 38.1888L63.371 38.1899C63.3689 38.1916 63.3669 38.1922 63.3649 38.1933L61.3405 39.3643L61.3246 37.0644L38.1507 23.6297C38.0687 23.582 38.0023 23.4547 38.0023 23.3448V21.7112L36.046 19.6247Z" fill="url(#paint21_linear_873_6263)"/>
<path d="M36.136 24.7939L61.2502 39.3538C61.3322 39.4014 61.3986 39.3507 61.3986 39.2411V34.4806C61.3986 34.3707 61.3322 34.2434 61.2502 34.1958L36.136 19.6363C36.054 19.5886 35.9876 19.639 35.9876 19.7489V24.5094C35.9876 24.619 36.054 24.7463 36.136 24.7939Z" fill="url(#paint22_linear_873_6263)"/>
<path opacity="0.6" d="M39.6001 23.8298L59.155 35.3753C58.5507 35.8977 57.9782 36.496 57.4532 37.1522L37.754 25.7319C38.321 25.023 38.9423 24.3804 39.6001 23.8298Z" fill="#24126A"/>
<path d="M36.8525 23.3642L60.5337 37.093C60.5896 37.1253 60.635 37.091 60.635 37.0161V35.8202C60.635 35.745 60.5896 35.6578 60.5337 35.6255L36.8525 21.8967C36.7966 21.8644 36.7512 21.8988 36.7512 21.9737V23.1696C36.7508 23.2444 36.7963 23.3316 36.8525 23.3642Z" fill="#24126A"/>
<path d="M36.8525 21.8964L37.3341 22.1755V22.8211C37.3341 22.8959 37.3795 22.9834 37.4355 23.0157L60.635 36.4654V37.0158C60.635 37.0906 60.5896 37.1253 60.5337 37.0927L36.8525 23.3635C36.7966 23.3312 36.7512 23.2438 36.7512 23.1689V21.973C36.7508 21.8984 36.7963 21.8637 36.8525 21.8964Z" fill="#453C9E"/>
<path opacity="0.96" d="M23.5491 74.875L3.8482 63.4537C6.38979 61.9804 8.53178 58.7555 9.18624 55.6718C9.45161 54.4221 10.2132 53.3365 11.3153 52.6977L26.2025 44.068C30.3489 41.6643 33.0369 37.3367 33.3185 32.5374C33.5565 28.4851 36.6075 24.4999 38.9755 23.1274L58.6764 34.5487C56.3436 35.9012 53.7756 39.6809 53.4831 43.6644C53.1306 48.4633 50.5314 52.8069 46.3813 55.2127L31.0166 64.1194C29.9144 64.7582 29.1528 65.8438 28.8875 67.0938C28.2327 70.1768 26.0903 73.4018 23.5491 74.875Z" fill="url(#paint23_linear_873_6263)"/>
<g opacity="0.32">
<path opacity="0.32" d="M45.174 37.5089L47.7271 38.9889V38.7034L45.174 37.2233V37.5089Z" fill="#4553C7"/>
<path opacity="0.32" d="M43.8648 36.7499L44.7839 37.2829V36.997L43.8648 36.4641V36.7499Z" fill="#4553C7"/>
<path opacity="0.32" d="M42.85 36.1615L43.4747 36.5236V36.2381L42.85 35.876V36.1615Z" fill="#4553C7"/>
<path opacity="0.32" d="M46.3362 38.8351L47.7271 39.6417V39.3558L46.3362 38.5496V38.8351Z" fill="#4553C7"/>
<path opacity="0.32" d="M44.2413 37.6208L45.9461 38.6091V38.3233L44.2413 37.335V37.6208Z" fill="#4553C7"/>
<path opacity="0.32" d="M43.2266 37.0324L43.8512 37.3945V37.109L43.2266 36.7469V37.0324Z" fill="#4553C7"/>
<path opacity="0.32" d="M42.261 36.4725L42.8856 36.8347V36.5491L42.261 36.187V36.4725Z" fill="#4553C7"/>
<path opacity="0.32" d="M46.7206 39.7108L47.7272 40.2941V40.0086L46.7206 39.4249V39.7108Z" fill="#4553C7"/>
<path opacity="0.32" d="M45.9868 39.2851L46.3308 39.4845V39.1989L45.9868 38.9995V39.2851Z" fill="#4553C7"/>
<path opacity="0.32" d="M44.9721 38.6969L45.5967 39.059V38.7732L44.9721 38.4111V38.6969Z" fill="#4553C7"/>
<path opacity="0.32" d="M44.0122 38.7929L47.7271 40.9468V40.661L44.0122 38.5074V38.7929Z" fill="#4553C7"/>
<path opacity="0.32" d="M42.7029 38.034L43.6221 38.5669V38.2811L42.7029 37.7481V38.034Z" fill="#4553C7"/>
<path opacity="0.32" d="M46.7206 41.0159L47.7272 41.5992V41.3137L46.7206 40.73V41.0159Z" fill="#4553C7"/>
<path opacity="0.32" d="M44.3586 39.6465L46.3308 40.7896V40.5041L44.3586 39.3606V39.6465Z" fill="#4553C7"/>
<path opacity="0.32" d="M43.3439 39.0581L43.9685 39.4202V39.1346L43.3439 38.7725V39.0581Z" fill="#4553C7"/>
<path opacity="0.32" d="M45.6679 41.0578L47.7272 42.2517V41.9661L45.6679 40.7723V41.0578Z" fill="#4553C7"/>
<path opacity="0.32" d="M43.7885 39.9684L45.2778 40.8318V40.5463L43.7885 39.6829V39.9684Z" fill="#4553C7"/>
<path opacity="0.32" d="M42.3918 39.1588L43.3984 39.7424V39.4565L42.3918 38.8732V39.1588Z" fill="#4553C7"/>
<path opacity="0.32" d="M47.0317 42.5011L47.7272 42.9044V42.6189L47.0317 42.2156V42.5011Z" fill="#4553C7"/>
<path opacity="0.32" d="M45.7224 41.7422L46.6416 42.2751V41.9893L45.7224 41.4563V41.7422Z" fill="#4553C7"/>
<path opacity="0.32" d="M43.8512 40.6572L45.3323 41.5159V41.2304L43.8512 40.3717V40.6572Z" fill="#4553C7"/>
<path opacity="0.32" d="M45.5967 42.3218L47.7271 43.5568V43.2713L45.5967 42.0363V42.3218Z" fill="#4553C7"/>
<path opacity="0.32" d="M43.2103 40.9383L45.2066 42.0955V41.8099L43.2103 40.6525V40.9383Z" fill="#4553C7"/>
<path opacity="0.32" d="M42.1956 40.3499L42.8202 40.712V40.4265L42.1956 40.0644V40.3499Z" fill="#4553C7"/>
<path opacity="0.32" d="M41.2219 39.7854L41.8465 40.1478V39.8619L41.2219 39.4998V39.7854Z" fill="#4553C7"/>
<path opacity="0.32" d="M46.4508 43.4694L47.7271 44.2096V43.9237L46.4508 43.1838V43.4694Z" fill="#4553C7"/>
<path opacity="0.32" d="M39.9956 34.5068L38.2255 33.4804V33.1949L39.9956 34.221V34.5068Z" fill="#4553C7"/>
<path opacity="0.32" d="M39.6164 34.9394L38.2255 34.1328V33.8473L39.6164 34.6539V34.9394Z" fill="#4553C7"/>
<path opacity="0.32" d="M39.2317 35.3689L38.2255 34.7855V34.5L39.2317 35.0833V35.3689Z" fill="#4553C7"/>
<path opacity="0.32" d="M39.6893 36.2867L38.2255 35.4379V35.1524L39.6893 36.0012V36.2867Z" fill="#4553C7"/>
<path opacity="0.32" d="M39.2317 36.674L38.2255 36.0907V35.8048L39.2317 36.3885V36.674Z" fill="#4553C7"/>
<path opacity="0.32" d="M39.5018 37.4833L38.2255 36.7431V36.4576L39.5018 37.1975V37.4833Z" fill="#4553C7"/>
<path opacity="0.32" d="M38.9209 37.7991L38.2255 37.3959V37.11L38.9209 37.5133V37.7991Z" fill="#4553C7"/>
<path opacity="0.32" d="M39.573 38.8297L38.2255 38.0483V37.7628L39.573 38.5441V38.8297Z" fill="#4553C7"/>
<path opacity="0.32" d="M39.5018 39.4409L38.2255 38.701V38.4152L39.5018 39.1554V39.4409Z" fill="#4553C7"/>
<path opacity="0.32" d="M45.5177 42.9285L46.0606 43.2433V42.9575L45.5177 42.643V42.9285Z" fill="#4553C7"/>
<path opacity="0.32" d="M43.9058 41.994L45.1276 42.7026V42.4167L43.9058 41.7085V41.994Z" fill="#4553C7"/>
</g>
<path opacity="0.8" d="M38.9752 23.1266L58.6761 34.548C58.5181 34.6396 58.3619 34.7389 58.207 34.8417L58.2057 34.8407L38.5071 23.4197C38.662 23.3172 38.8176 23.2182 38.9752 23.1266Z" fill="#453C9E"/>
<path d="M20.105 32.9897H26.3896V46.468C26.3896 46.9343 26.0829 47.4005 25.4691 47.7562C24.2419 48.4675 22.2524 48.4675 21.0252 47.7562C20.4117 47.4005 20.1046 46.9343 20.105 46.468V32.9897Z" fill="url(#paint24_linear_873_6263)"/>
<path d="M20.105 32.9897H26.3896V46.468C26.3896 46.9343 26.0829 47.4005 25.4691 47.7562C24.2419 48.4675 22.2524 48.4675 21.0252 47.7562C20.4117 47.4005 20.1046 46.9343 20.105 46.468V32.9897Z" fill="url(#paint25_linear_873_6263)"/>
<path d="M21.0252 34.2783C22.2524 34.9895 24.2419 34.9895 25.4691 34.2783C26.6964 33.567 26.6964 32.4133 25.4691 31.702C24.2419 30.9907 22.2524 30.9907 21.0252 31.702C19.7983 32.4133 19.7983 33.5666 21.0252 34.2783Z" fill="url(#paint26_linear_873_6263)"/>
<path opacity="0.3" d="M21.8128 33.8215C22.6049 34.281 23.8894 34.2806 24.6818 33.8215C25.4738 33.3621 25.4738 32.6175 24.6818 32.1584C23.8897 31.6989 22.6052 31.6993 21.8128 32.1584C21.0204 32.6175 21.0207 33.3624 21.8128 33.8215Z" fill="url(#paint27_linear_873_6263)"/>
<path opacity="0.5" d="M21.0252 34.1428C22.2524 34.8541 24.2419 34.8541 25.4691 34.1428C26.0531 33.8042 26.3558 33.3655 26.3839 32.9221C26.4151 33.4108 26.1124 33.9049 25.4691 34.2779C24.2419 34.9892 22.2524 34.9892 21.0252 34.2779C20.3819 33.9049 20.0792 33.4108 20.1104 32.9221C20.1389 33.3658 20.4416 33.8045 21.0252 34.1428Z" fill="white"/>
<path d="M20.105 30.0613H26.3896V31.2922C26.3896 31.7585 26.0829 32.2247 25.4691 32.5804C24.2419 33.2917 22.2524 33.292 21.0252 32.5804C20.4117 32.2247 20.1046 31.7585 20.105 31.2922V30.0613Z" fill="url(#paint28_linear_873_6263)"/>
<path d="M20.105 30.0613H26.3896V31.2922C26.3896 31.7585 26.0829 32.2247 25.4691 32.5804C24.2419 33.2917 22.2524 33.292 21.0252 32.5804C20.4117 32.2247 20.1046 31.7585 20.105 31.2922V30.0613Z" fill="url(#paint29_linear_873_6263)"/>
<path d="M21.0252 31.3497C22.2524 32.061 24.2419 32.061 25.4691 31.3497C26.6963 30.6384 26.6963 29.4847 25.4691 28.7735C24.2419 28.0622 22.2524 28.0622 21.0252 28.7735C19.7983 29.4847 19.7983 30.6381 21.0252 31.3497Z" fill="url(#paint30_linear_873_6263)"/>
<path opacity="0.5" d="M21.0251 31.2143C22.2524 31.9256 24.2419 31.9256 25.4691 31.2143C26.0531 30.8757 26.3557 30.437 26.3838 29.9935C26.415 30.4819 26.1124 30.9764 25.4691 31.3494C24.2419 32.0607 22.2524 32.061 21.0251 31.3494C20.3819 30.9764 20.0792 30.4822 20.1104 29.9935C20.1389 30.4373 20.4415 30.876 21.0251 31.2143Z" fill="white"/>
<path d="M25.301 40.4912H31.5857V49.4772C31.5857 49.9434 31.2789 50.4097 30.6651 50.7653C29.4379 51.4766 27.4484 51.477 26.2212 50.7653C25.6077 50.4097 25.3007 49.9434 25.301 49.4772V40.4912Z" fill="url(#paint31_linear_873_6263)"/>
<path d="M25.301 40.4912H31.5857V49.4772C31.5857 49.9434 31.2789 50.4097 30.6651 50.7653C29.4379 51.4766 27.4484 51.477 26.2212 50.7653C25.6077 50.4097 25.3007 49.9434 25.301 49.4772V40.4912Z" fill="url(#paint32_linear_873_6263)"/>
<path d="M26.2217 41.7794C27.4489 42.4906 29.4384 42.4906 30.6656 41.7794C31.8929 41.0681 31.8929 39.9144 30.6656 39.2031C29.4384 38.4918 27.4489 38.4918 26.2217 39.2031C24.9945 39.9144 24.9945 41.0681 26.2217 41.7794Z" fill="url(#paint33_linear_873_6263)"/>
<path opacity="0.5" d="M26.2215 41.6443C27.4488 42.3556 29.4383 42.3556 30.6655 41.6443C31.2495 41.3057 31.5521 40.867 31.5802 40.4235C31.6114 40.9122 31.3088 41.4064 30.6655 41.7794C29.4383 42.4907 27.4488 42.491 26.2215 41.7794C25.5783 41.4064 25.2756 40.9122 25.3068 40.4235C25.3349 40.867 25.6376 41.3057 26.2215 41.6443Z" fill="white"/>
<path d="M30.497 38.8985H36.7817V52.486C36.7817 52.9523 36.4749 53.4185 35.8612 53.7742C34.6339 54.4855 32.6444 54.4855 31.4172 53.7742C30.8037 53.4185 30.4967 52.9523 30.497 52.486V38.8985Z" fill="url(#paint34_linear_873_6263)"/>
<path d="M30.497 38.8985H36.7817V52.486C36.7817 52.9523 36.4749 53.4185 35.8612 53.7742C34.6339 54.4855 32.6444 54.4855 31.4172 53.7742C30.8037 53.4185 30.4967 52.9523 30.497 52.486V38.8985Z" fill="url(#paint35_linear_873_6263)"/>
<path d="M31.4177 40.1866C32.6449 40.8979 34.6344 40.8979 35.8617 40.1866C37.0889 39.4754 37.0889 38.3217 35.8617 37.6104C34.6344 36.8991 32.6449 36.8991 31.4177 37.6104C30.1905 38.3217 30.1905 39.4754 31.4177 40.1866Z" fill="url(#paint36_linear_873_6263)"/>
<path opacity="0.5" d="M31.4175 40.0515C32.6448 40.7628 34.6343 40.7628 35.8615 40.0515C36.4455 39.7129 36.7481 39.2742 36.7762 38.8307C36.8074 39.3195 36.5048 39.8136 35.8615 40.1866C34.6343 40.8979 32.6448 40.8979 31.4175 40.1866C30.7743 39.8136 30.4716 39.3195 30.5028 38.8307C30.5309 39.2742 30.8336 39.7129 31.4175 40.0515Z" fill="white"/>
<path d="M35.6934 44.357H41.978V55.4949C41.978 55.9611 41.6713 56.4274 41.0575 56.783C39.8303 57.4943 37.8408 57.4943 36.6136 56.783C36.0001 56.4274 35.6934 55.9611 35.6934 55.4949V44.357Z" fill="url(#paint37_linear_873_6263)"/>
<path d="M35.6934 44.357H41.978V55.4949C41.978 55.9611 41.6713 56.4274 41.0575 56.783C39.8303 57.4943 37.8408 57.4943 36.6136 56.783C36.0001 56.4274 35.6934 55.9611 35.6934 55.4949V44.357Z" fill="url(#paint38_linear_873_6263)"/>
<path d="M36.6136 45.6452C37.8408 46.3564 39.8303 46.3564 41.0575 45.6452C42.2847 44.9339 42.2847 43.7802 41.0575 43.0689C39.8303 42.3576 37.8408 42.3576 36.6136 43.0689C35.3867 43.7802 35.3867 44.9339 36.6136 45.6452Z" fill="url(#paint39_linear_873_6263)"/>
<path opacity="0.5" d="M36.6136 45.51C37.8408 46.2213 39.8303 46.2213 41.0575 45.51C41.6415 45.1714 41.9441 44.7327 41.9723 44.2892C42.0035 44.778 41.7008 45.2721 41.0575 45.6451C39.8303 46.3564 37.8408 46.3564 36.6136 45.6451C35.9703 45.2721 35.6676 44.778 35.6988 44.2892C35.7273 44.7327 36.03 45.1714 36.6136 45.51Z" fill="white"/>
<path d="M40.8894 50.1119H47.1741V58.5041C47.1741 58.9703 46.8673 59.4366 46.2536 59.7922C45.0263 60.5035 43.0368 60.5038 41.8096 59.7922C41.1961 59.4366 40.8894 58.9703 40.8894 58.5041V50.1119Z" fill="url(#paint40_linear_873_6263)"/>
<path d="M40.8894 50.1119H47.1741V58.5041C47.1741 58.9703 46.8673 59.4366 46.2536 59.7922C45.0263 60.5035 43.0368 60.5038 41.8096 59.7922C41.1961 59.4366 40.8894 58.9703 40.8894 58.5041V50.1119Z" fill="url(#paint41_linear_873_6263)"/>
<path d="M41.8101 51.4001C43.0373 52.1114 45.0268 52.1114 46.254 51.4001C47.4813 50.6888 47.4813 49.5351 46.254 48.8238C45.0268 48.1125 43.0373 48.1125 41.8101 48.8238C40.5829 49.5351 40.5829 50.6885 41.8101 51.4001Z" fill="url(#paint42_linear_873_6263)"/>
<path opacity="0.5" d="M41.8099 51.2649C43.0372 51.9762 45.0267 51.9762 46.2539 51.2649C46.8379 50.9263 47.1405 50.4876 47.1686 50.0442C47.1998 50.5329 46.8972 51.0271 46.2539 51.4C45.0267 52.1113 43.0372 52.1117 41.8099 51.4C41.1667 51.0271 40.864 50.5329 40.8952 50.0442C40.9233 50.4876 41.226 50.9263 41.8099 51.2649Z" fill="white"/>
<path d="M69.1962 27.4897L69.8032 27.8777L69.8751 27.4275L69.2681 27.0395L69.1962 27.4897Z" fill="#42E8E0"/>
<path d="M68.7095 30.535L69.3165 30.9229L69.7378 28.2881L69.1305 27.9001L68.7095 30.535Z" fill="#42E8E0"/>
<path d="M68.4767 31.9913L69.084 32.3792L69.2511 31.3334L68.6438 30.9454L68.4767 31.9913Z" fill="#42E8E0"/>
<path d="M68.2354 33.5009L68.8427 33.8886L69.0098 32.8427L68.4028 32.4548L68.2354 33.5009Z" fill="#42E8E0"/>
<path d="M68.0581 28.3678L68.6651 28.7557L68.8322 27.7096L68.2252 27.3216L68.0581 28.3678Z" fill="#42E8E0"/>
<path d="M67.7385 30.3669L68.3455 30.7549L68.5912 29.219L67.9839 28.831L67.7385 30.3669Z" fill="#42E8E0"/>
<path d="M67.4443 32.2074L68.0517 32.5953L68.2622 31.2779L67.6548 30.89L67.4443 32.2074Z" fill="#42E8E0"/>
<path d="M67.9944 35.0103L68.6014 35.3983L68.7685 34.3521L68.1615 33.9641L67.9944 35.0103Z" fill="#42E8E0"/>
<path d="M68.2909 26.9112L68.898 27.2992L68.9698 26.8489L68.3628 26.4609L68.2909 26.9112Z" fill="#42E8E0"/>
<path d="M67.3077 36.1858L68.3672 36.8627L68.437 36.4257L67.3776 35.7488L67.3077 36.1858Z" fill="#42E8E0"/>
<defs>
<linearGradient id="paint0_linear_873_6263" x1="34.9075" y1="10.7105" x2="21.1362" y2="10.7105" gradientUnits="userSpaceOnUse">
<stop stop-color="#42E8E0"/>
<stop offset="0.1507" stop-color="#43E3E0"/>
<stop offset="0.3285" stop-color="#45D5DF"/>
<stop offset="0.5199" stop-color="#49BDDD"/>
<stop offset="0.7209" stop-color="#4E9CDB"/>
<stop offset="0.9274" stop-color="#5472D8"/>
<stop offset="1" stop-color="#5761D7"/>
</linearGradient>
<linearGradient id="paint1_linear_873_6263" x1="31.8758" y1="12.4547" x2="18.1044" y2="12.4547" gradientUnits="userSpaceOnUse">
<stop stop-color="#42E8E0"/>
<stop offset="0.1507" stop-color="#43E3E0"/>
<stop offset="0.3285" stop-color="#45D5DF"/>
<stop offset="0.5199" stop-color="#49BDDD"/>
<stop offset="0.7209" stop-color="#4E9CDB"/>
<stop offset="0.9274" stop-color="#5472D8"/>
<stop offset="1" stop-color="#5761D7"/>
</linearGradient>
<linearGradient id="paint2_linear_873_6263" x1="28.8439" y1="14.1988" x2="15.0726" y2="14.1988" gradientUnits="userSpaceOnUse">
<stop stop-color="#42E8E0"/>
<stop offset="0.1507" stop-color="#43E3E0"/>
<stop offset="0.3285" stop-color="#45D5DF"/>
<stop offset="0.5199" stop-color="#49BDDD"/>
<stop offset="0.7209" stop-color="#4E9CDB"/>
<stop offset="0.9274" stop-color="#5472D8"/>
<stop offset="1" stop-color="#5761D7"/>
</linearGradient>
<linearGradient id="paint3_linear_873_6263" x1="17.1826" y1="34.9323" x2="16.1105" y2="36.7814" gradientUnits="userSpaceOnUse">
<stop stop-color="#5761D7"/>
<stop offset="0.1645" stop-color="#5E67DA"/>
<stop offset="0.4051" stop-color="#727AE2"/>
<stop offset="0.6924" stop-color="#9297EE"/>
<stop offset="1" stop-color="#BCBEFF"/>
</linearGradient>
<linearGradient id="paint4_linear_873_6263" x1="17.1827" y1="37.8706" x2="16.1106" y2="39.7197" gradientUnits="userSpaceOnUse">
<stop stop-color="#5761D7"/>
<stop offset="0.1645" stop-color="#5E67DA"/>
<stop offset="0.4051" stop-color="#727AE2"/>
<stop offset="0.6924" stop-color="#9297EE"/>
<stop offset="1" stop-color="#BCBEFF"/>
</linearGradient>
<linearGradient id="paint5_linear_873_6263" x1="17.1827" y1="40.8604" x2="16.1106" y2="42.7095" gradientUnits="userSpaceOnUse">
<stop stop-color="#5761D7"/>
<stop offset="0.1645" stop-color="#5E67DA"/>
<stop offset="0.4051" stop-color="#727AE2"/>
<stop offset="0.6924" stop-color="#9297EE"/>
<stop offset="1" stop-color="#BCBEFF"/>
</linearGradient>
<linearGradient id="paint6_linear_873_6263" x1="21.6645" y1="37.8542" x2="13.4298" y2="37.8542" gradientUnits="userSpaceOnUse">
<stop stop-color="#5761D7"/>
<stop offset="0.1645" stop-color="#5E67DA"/>
<stop offset="0.4051" stop-color="#727AE2"/>
<stop offset="0.6924" stop-color="#9297EE"/>
<stop offset="1" stop-color="#BCBEFF"/>
</linearGradient>
<linearGradient id="paint7_linear_873_6263" x1="17.6233" y1="35.2226" x2="14.6112" y2="35.2226" gradientUnits="userSpaceOnUse">
<stop stop-color="#42E8E0"/>
<stop offset="0.1507" stop-color="#43E3E0"/>
<stop offset="0.3285" stop-color="#45D5DF"/>
<stop offset="0.5199" stop-color="#49BDDD"/>
<stop offset="0.7209" stop-color="#4E9CDB"/>
<stop offset="0.9274" stop-color="#5472D8"/>
<stop offset="1" stop-color="#5761D7"/>
</linearGradient>
<linearGradient id="paint8_linear_873_6263" x1="17.6233" y1="38.1609" x2="14.6112" y2="38.1609" gradientUnits="userSpaceOnUse">
<stop stop-color="#42E8E0"/>
<stop offset="0.1507" stop-color="#43E3E0"/>
<stop offset="0.3285" stop-color="#45D5DF"/>
<stop offset="0.5199" stop-color="#49BDDD"/>
<stop offset="0.7209" stop-color="#4E9CDB"/>
<stop offset="0.9274" stop-color="#5472D8"/>
<stop offset="1" stop-color="#5761D7"/>
</linearGradient>
<linearGradient id="paint9_linear_873_6263" x1="17.6233" y1="41.1506" x2="14.6112" y2="41.1506" gradientUnits="userSpaceOnUse">
<stop stop-color="#42E8E0"/>
<stop offset="0.1507" stop-color="#43E3E0"/>
<stop offset="0.3285" stop-color="#45D5DF"/>
<stop offset="0.5199" stop-color="#49BDDD"/>
<stop offset="0.7209" stop-color="#4E9CDB"/>
<stop offset="0.9274" stop-color="#5472D8"/>
<stop offset="1" stop-color="#5761D7"/>
</linearGradient>
<linearGradient id="paint10_linear_873_6263" x1="26.9316" y1="22.2961" x2="7.42523" y2="11.0345" gradientUnits="userSpaceOnUse">
<stop stop-color="#5761D7"/>
<stop offset="0.1645" stop-color="#5E67DA"/>
<stop offset="0.4051" stop-color="#727AE2"/>
<stop offset="0.6924" stop-color="#9297EE"/>
<stop offset="1" stop-color="#BCBEFF"/>
</linearGradient>
<linearGradient id="paint11_linear_873_6263" x1="5.58649" y1="12.2476" x2="23.1627" y2="25.063" gradientUnits="userSpaceOnUse">
<stop stop-color="#5761D7"/>
<stop offset="0.1645" stop-color="#5E67DA"/>
<stop offset="0.4051" stop-color="#727AE2"/>
<stop offset="0.6924" stop-color="#9297EE"/>
<stop offset="1" stop-color="#BCBEFF"/>
</linearGradient>
<linearGradient id="paint12_linear_873_6263" x1="22.404" y1="17.6464" x2="8.6327" y2="17.6464" gradientUnits="userSpaceOnUse">
<stop stop-color="#42E8E0"/>
<stop offset="0.1507" stop-color="#43E3E0"/>
<stop offset="0.3285" stop-color="#45D5DF"/>
<stop offset="0.5199" stop-color="#49BDDD"/>
<stop offset="0.7209" stop-color="#4E9CDB"/>
<stop offset="0.9274" stop-color="#5472D8"/>
<stop offset="1" stop-color="#5761D7"/>
</linearGradient>
<linearGradient id="paint13_linear_873_6263" x1="23.0029" y1="17.32" x2="9.23162" y2="17.32" gradientUnits="userSpaceOnUse">
<stop stop-color="#42E8E0"/>
<stop offset="0.1507" stop-color="#43E3E0"/>
<stop offset="0.3285" stop-color="#45D5DF"/>
<stop offset="0.5199" stop-color="#49BDDD"/>
<stop offset="0.7209" stop-color="#4E9CDB"/>
<stop offset="0.9274" stop-color="#5472D8"/>
<stop offset="1" stop-color="#5761D7"/>
</linearGradient>
<linearGradient id="paint14_linear_873_6263" x1="75.2409" y1="28.9493" x2="26.5968" y2="28.9493" gradientUnits="userSpaceOnUse">
<stop stop-color="#C0BFF6"/>
<stop offset="0.2938" stop-color="#C5C4F7"/>
<stop offset="0.6399" stop-color="#D3D2F9"/>
<stop offset="1" stop-color="#E9E9FD"/>
</linearGradient>
<linearGradient id="paint15_linear_873_6263" x1="75.2406" y1="41.476" x2="66.8879" y2="41.476" gradientUnits="userSpaceOnUse">
<stop stop-color="#5761D7"/>
<stop offset="0.1779" stop-color="#5C66D9"/>
<stop offset="0.3876" stop-color="#6A73DF"/>
<stop offset="0.6134" stop-color="#8289E8"/>
<stop offset="0.849" stop-color="#A3A7F5"/>
<stop offset="1" stop-color="#BCBEFF"/>
</linearGradient>
<linearGradient id="paint16_linear_873_6263" x1="68.7237" y1="55.5575" x2="0.0222312" y2="55.5575" gradientUnits="userSpaceOnUse">
<stop stop-color="#5761D7"/>
<stop offset="0.1779" stop-color="#5C66D9"/>
<stop offset="0.3876" stop-color="#6A73DF"/>
<stop offset="0.6134" stop-color="#8289E8"/>
<stop offset="0.849" stop-color="#A3A7F5"/>
<stop offset="1" stop-color="#BCBEFF"/>
</linearGradient>
<linearGradient id="paint17_linear_873_6263" x1="45.6398" y1="53.2572" x2="-23.0983" y2="53.2572" gradientUnits="userSpaceOnUse">
<stop stop-color="#C0BFF6"/>
<stop offset="0.2938" stop-color="#C5C4F7"/>
<stop offset="0.6399" stop-color="#D3D2F9"/>
<stop offset="1" stop-color="#E9E9FD"/>
</linearGradient>
<linearGradient id="paint18_linear_873_6263" x1="33.9991" y1="57.1755" x2="16.4041" y2="57.1755" gradientUnits="userSpaceOnUse">
<stop stop-color="#C0BFF6"/>
<stop offset="0.2938" stop-color="#C5C4F7"/>
<stop offset="0.6399" stop-color="#D3D2F9"/>
<stop offset="1" stop-color="#E9E9FD"/>
</linearGradient>
<radialGradient id="paint19_radial_873_6263" cx="0" cy="0" r="1" gradientUnits="userSpaceOnUse" gradientTransform="translate(48.7015 46.8431) rotate(180) scale(19.7058 19.7874)">
<stop stop-color="#2B237C"/>
<stop offset="1" stop-color="#180D5B"/>
</radialGradient>
<radialGradient id="paint20_radial_873_6263" cx="0" cy="0" r="1" gradientUnits="userSpaceOnUse" gradientTransform="translate(53.0114 37.9417) rotate(180) scale(15.0836 15.1461)">
<stop stop-color="#2B237C"/>
<stop offset="1" stop-color="#180D5B"/>
</radialGradient>
<linearGradient id="paint21_linear_873_6263" x1="58.4414" y1="42.3142" x2="45.0704" y2="18.3369" gradientUnits="userSpaceOnUse">
<stop stop-color="#5761D7"/>
<stop offset="0.0398" stop-color="#5C66D9"/>
<stop offset="0.0867" stop-color="#6A73DF"/>
<stop offset="0.1372" stop-color="#8289E8"/>
<stop offset="0.1899" stop-color="#A3A7F5"/>
<stop offset="0.2237" stop-color="#BCBEFF"/>
</linearGradient>
<linearGradient id="paint22_linear_873_6263" x1="42.119" y1="42.3994" x2="51.0209" y2="25.0689" gradientUnits="userSpaceOnUse">
<stop stop-color="#C0BFF6"/>
<stop offset="0.2938" stop-color="#C5C4F7"/>
<stop offset="0.6399" stop-color="#D3D2F9"/>
<stop offset="1" stop-color="#E9E9FD"/>
</linearGradient>
<linearGradient id="paint23_linear_873_6263" x1="18.2155" y1="73.6053" x2="46.4996" y2="23.6951" gradientUnits="userSpaceOnUse">
<stop stop-color="#C0BFF6"/>
<stop offset="0.0775" stop-color="#C3C2F6"/>
<stop offset="0.1329" stop-color="#CCCBF8"/>
<stop offset="0.1813" stop-color="#DBDBFB"/>
<stop offset="0.2117" stop-color="#E9E9FD"/>
<stop offset="0.2579" stop-color="#D8D7FA"/>
<stop offset="0.3159" stop-color="#CACAF8"/>
<stop offset="0.3878" stop-color="#C2C1F6"/>
<stop offset="0.5143" stop-color="#C0BFF6"/>
<stop offset="0.6217" stop-color="#D0CFF9"/>
<stop offset="0.755" stop-color="#E9E9FD"/>
<stop offset="1" stop-color="#C0BFF6"/>
</linearGradient>
<linearGradient id="paint24_linear_873_6263" x1="26.3897" y1="40.64" x2="20.1408" y2="40.64" gradientUnits="userSpaceOnUse">
<stop stop-color="#C0BFF6"/>
<stop offset="0.488" stop-color="#D2D1F9"/>
<stop offset="1" stop-color="#E9E9FD"/>
</linearGradient>
<linearGradient id="paint25_linear_873_6263" x1="33.3927" y1="40.64" x2="21.317" y2="40.64" gradientUnits="userSpaceOnUse">
<stop stop-color="#5761D7"/>
<stop offset="0.1779" stop-color="#5C66D9"/>
<stop offset="0.3876" stop-color="#6A73DF"/>
<stop offset="0.6134" stop-color="#8289E8"/>
<stop offset="0.849" stop-color="#A3A7F5"/>
<stop offset="1" stop-color="#BCBEFF"/>
</linearGradient>
<linearGradient id="paint26_linear_873_6263" x1="25.4693" y1="31.7017" x2="23.2334" y2="35.5583" gradientUnits="userSpaceOnUse">
<stop stop-color="#C0BFF6"/>
<stop offset="0.2938" stop-color="#C5C4F7"/>
<stop offset="0.6399" stop-color="#D3D2F9"/>
<stop offset="1" stop-color="#E9E9FD"/>
</linearGradient>
<linearGradient id="paint27_linear_873_6263" x1="24.6817" y1="32.1583" x2="23.2383" y2="34.648" gradientUnits="userSpaceOnUse">
<stop stop-color="#5761D7"/>
<stop offset="0.1779" stop-color="#5C66D9"/>
<stop offset="0.3876" stop-color="#6A73DF"/>
<stop offset="0.6134" stop-color="#8289E8"/>
<stop offset="0.849" stop-color="#A3A7F5"/>
<stop offset="1" stop-color="#BCBEFF"/>
</linearGradient>
<linearGradient id="paint28_linear_873_6263" x1="26.3897" y1="31.5878" x2="20.1408" y2="31.5878" gradientUnits="userSpaceOnUse">
<stop stop-color="#C0BFF6"/>
<stop offset="0.488" stop-color="#D2D1F9"/>
<stop offset="1" stop-color="#E9E9FD"/>
</linearGradient>
<linearGradient id="paint29_linear_873_6263" x1="33.3927" y1="31.5878" x2="21.317" y2="31.5878" gradientUnits="userSpaceOnUse">
<stop stop-color="#5761D7"/>
<stop offset="0.1779" stop-color="#5C66D9"/>
<stop offset="0.3876" stop-color="#6A73DF"/>
<stop offset="0.6134" stop-color="#8289E8"/>
<stop offset="0.849" stop-color="#A3A7F5"/>
<stop offset="1" stop-color="#BCBEFF"/>
</linearGradient>
<linearGradient id="paint30_linear_873_6263" x1="25.4693" y1="28.7732" x2="23.2334" y2="32.6298" gradientUnits="userSpaceOnUse">
<stop stop-color="#C0BFF6"/>
<stop offset="0.2938" stop-color="#C5C4F7"/>
<stop offset="0.6399" stop-color="#D3D2F9"/>
<stop offset="1" stop-color="#E9E9FD"/>
</linearGradient>
<linearGradient id="paint31_linear_873_6263" x1="31.5858" y1="45.8951" x2="25.3369" y2="45.8951" gradientUnits="userSpaceOnUse">
<stop stop-color="#C0BFF6"/>
<stop offset="0.488" stop-color="#D2D1F9"/>
<stop offset="1" stop-color="#E9E9FD"/>
</linearGradient>
<linearGradient id="paint32_linear_873_6263" x1="38.5888" y1="45.8951" x2="26.5131" y2="45.8951" gradientUnits="userSpaceOnUse">
<stop stop-color="#5761D7"/>
<stop offset="0.1779" stop-color="#5C66D9"/>
<stop offset="0.3876" stop-color="#6A73DF"/>
<stop offset="0.6134" stop-color="#8289E8"/>
<stop offset="0.849" stop-color="#A3A7F5"/>
<stop offset="1" stop-color="#BCBEFF"/>
</linearGradient>
<linearGradient id="paint33_linear_873_6263" x1="30.6656" y1="39.203" x2="28.4297" y2="43.0596" gradientUnits="userSpaceOnUse">
<stop stop-color="#C0BFF6"/>
<stop offset="0.2938" stop-color="#C5C4F7"/>
<stop offset="0.6399" stop-color="#D3D2F9"/>
<stop offset="1" stop-color="#E9E9FD"/>
</linearGradient>
<linearGradient id="paint34_linear_873_6263" x1="36.7819" y1="46.6032" x2="30.5331" y2="46.6032" gradientUnits="userSpaceOnUse">
<stop stop-color="#C0BFF6"/>
<stop offset="0.488" stop-color="#D2D1F9"/>
<stop offset="1" stop-color="#E9E9FD"/>
</linearGradient>
<linearGradient id="paint35_linear_873_6263" x1="43.785" y1="46.6032" x2="31.7092" y2="46.6032" gradientUnits="userSpaceOnUse">
<stop stop-color="#5761D7"/>
<stop offset="0.1779" stop-color="#5C66D9"/>
<stop offset="0.3876" stop-color="#6A73DF"/>
<stop offset="0.6134" stop-color="#8289E8"/>
<stop offset="0.849" stop-color="#A3A7F5"/>
<stop offset="1" stop-color="#BCBEFF"/>
</linearGradient>
<linearGradient id="paint36_linear_873_6263" x1="35.8617" y1="37.6103" x2="33.6258" y2="41.4669" gradientUnits="userSpaceOnUse">
<stop stop-color="#C0BFF6"/>
<stop offset="0.2938" stop-color="#C5C4F7"/>
<stop offset="0.6399" stop-color="#D3D2F9"/>
<stop offset="1" stop-color="#E9E9FD"/>
</linearGradient>
<linearGradient id="paint37_linear_873_6263" x1="41.9781" y1="50.8369" x2="35.7292" y2="50.8369" gradientUnits="userSpaceOnUse">
<stop stop-color="#C0BFF6"/>
<stop offset="0.488" stop-color="#D2D1F9"/>
<stop offset="1" stop-color="#E9E9FD"/>
</linearGradient>
<linearGradient id="paint38_linear_873_6263" x1="48.9811" y1="50.8369" x2="36.9053" y2="50.8369" gradientUnits="userSpaceOnUse">
<stop stop-color="#5761D7"/>
<stop offset="0.1779" stop-color="#5C66D9"/>
<stop offset="0.3876" stop-color="#6A73DF"/>
<stop offset="0.6134" stop-color="#8289E8"/>
<stop offset="0.849" stop-color="#A3A7F5"/>
<stop offset="1" stop-color="#BCBEFF"/>
</linearGradient>
<linearGradient id="paint39_linear_873_6263" x1="41.0576" y1="43.0688" x2="38.8217" y2="46.9254" gradientUnits="userSpaceOnUse">
<stop stop-color="#C0BFF6"/>
<stop offset="0.2938" stop-color="#C5C4F7"/>
<stop offset="0.6399" stop-color="#D3D2F9"/>
<stop offset="1" stop-color="#E9E9FD"/>
</linearGradient>
<linearGradient id="paint40_linear_873_6263" x1="47.1742" y1="55.2187" x2="40.9253" y2="55.2187" gradientUnits="userSpaceOnUse">
<stop stop-color="#C0BFF6"/>
<stop offset="0.488" stop-color="#D2D1F9"/>
<stop offset="1" stop-color="#E9E9FD"/>
</linearGradient>
<linearGradient id="paint41_linear_873_6263" x1="54.1772" y1="55.2187" x2="42.1015" y2="55.2187" gradientUnits="userSpaceOnUse">
<stop stop-color="#5761D7"/>
<stop offset="0.1779" stop-color="#5C66D9"/>
<stop offset="0.3876" stop-color="#6A73DF"/>
<stop offset="0.6134" stop-color="#8289E8"/>
<stop offset="0.849" stop-color="#A3A7F5"/>
<stop offset="1" stop-color="#BCBEFF"/>
</linearGradient>
<linearGradient id="paint42_linear_873_6263" x1="46.254" y1="48.8236" x2="44.0181" y2="52.6802" gradientUnits="userSpaceOnUse">
<stop stop-color="#C0BFF6"/>
<stop offset="0.2938" stop-color="#C5C4F7"/>
<stop offset="0.6399" stop-color="#D3D2F9"/>
<stop offset="1" stop-color="#E9E9FD"/>
</linearGradient>
</defs>
</svg>
