<svg width="146" height="146" viewBox="0 0 146 146" fill="none" xmlns="http://www.w3.org/2000/svg">
<g clip-path="url(#clip0_426_16300)">
<path d="M90.7032 95.5467L89.0438 93.8873C88.8575 93.7013 88.5561 93.7013 88.3698 93.8873C88.1838 94.0733 88.1838 94.3752 88.3698 94.5609L90.0293 96.2204L88.9959 97.2538L95.4798 100.997L91.7366 94.5131L90.7032 95.5467Z" fill="white"/>
<path d="M104.129 78.642L96.8901 76.7314L96.8957 78.1929L94.5488 78.202C94.2858 78.2028 94.0732 78.4172 94.0743 78.6803C94.0752 78.9428 94.2887 79.1548 94.5509 79.1548C94.5515 79.1548 94.5521 79.1548 94.5526 79.1548L96.8994 79.1457L96.905 80.6072L104.129 78.642Z" fill="white"/>
<path d="M88.8438 65.2687C88.9544 65.2687 89.0654 65.2305 89.1556 65.1525L90.9298 63.6163L91.8867 64.7212L96.0851 58.5223L89.3495 61.791L90.3061 62.8959L88.5319 64.4321C88.3331 64.6044 88.3115 64.9052 88.4837 65.1043C88.5775 65.2129 88.7103 65.2687 88.8438 65.2687Z" fill="white"/>
<path d="M71.9343 48.2755L70.0786 55.5287L71.5401 55.5121L71.5667 57.8589C71.5696 58.1202 71.7824 58.3299 72.0429 58.3299C72.0447 58.3299 72.0467 58.3299 72.0485 58.3299C72.3115 58.327 72.5224 58.1112 72.5195 57.8481L72.4926 55.5016L73.9541 55.4849L71.9343 48.2755Z" fill="white"/>
<path d="M54.9808 63.5932L56.6653 65.2275C56.7579 65.3172 56.8776 65.3618 56.997 65.3618C57.1211 65.3618 57.2455 65.3134 57.339 65.217C57.522 65.0281 57.5177 64.7264 57.3287 64.5434L55.6445 62.9093L56.6621 61.8605L50.1222 58.216L53.9631 64.6426L54.9808 63.5932Z" fill="white"/>
<path d="M51.3942 79.7162C51.4006 79.7165 51.407 79.7165 51.4134 79.7165C51.6678 79.7165 51.8789 79.5156 51.8894 79.2593C51.8999 78.9965 51.6952 78.7748 51.4324 78.764L49.0873 78.67L49.146 77.2097L41.8425 78.856L48.9907 81.0825L49.0494 79.6222L51.3942 79.7162Z" fill="white"/>
<path d="M57.1561 94.1428L55.4234 95.7257L54.4376 94.6468L50.4054 100.955L57.0519 97.5087L56.0661 96.4295L57.7988 94.8465C57.9933 94.669 58.0067 94.3676 57.8292 94.1735C57.6517 93.979 57.3506 93.9656 57.1561 94.1428Z" fill="white"/>
<path opacity="0.7" d="M32.8606 89.1703L29.3148 87.0025L28.501 85.1921L28.0148 84.7991C28.0102 84.7678 28.0055 84.7346 28.0011 84.7021C27.9929 84.6464 27.9851 84.59 27.9778 84.5313C27.9672 84.449 27.9573 84.3637 27.948 84.2755C28.0388 84.2075 28.1284 84.136 28.2154 84.0595C28.3261 84.3126 29.1945 86.1113 31.5349 86.1113C35.8907 86.1113 35.4311 81.515 35.4311 81.515C35.4311 81.515 35.1683 82.3685 34.2712 82.3685C33.3736 82.3685 32.8702 81.515 32.3449 74.686C31.8199 67.8567 26.4348 68.0751 25.6032 69.2136V69.6306C25.5994 69.6306 25.5959 69.6303 25.5921 69.6303V69.6294C25.5886 69.6294 25.5854 69.6294 25.5819 69.6294V69.2136C25.1792 68.6626 23.7102 68.33 22.242 68.9044V67.5077C22.242 66.5225 21.1339 66.0539 19.9235 65.4976C19.925 65.4745 19.9299 65.4521 19.9308 65.4287L19.7588 65.4214C19.4987 65.3005 19.2362 65.1749 18.9804 65.0377C18.9804 65.0377 18.9266 65.1814 18.8116 65.3969L15.281 63.0124V62.0068L15.1026 61.9662C15.0498 61.9533 13.7979 61.6447 13.7979 60.432C13.7979 59.7005 14.4655 59.2471 15.0842 59.2471C15.4101 59.2471 15.7044 59.372 15.9135 59.6001C16.169 59.8784 16.3036 60.3111 16.3036 60.8516H16.7638C16.7638 60.1937 16.5874 59.6535 16.2522 59.2891C15.9552 58.965 15.5406 58.7869 15.0842 58.7869C14.2447 58.7869 13.3378 59.4158 13.3378 60.4317C13.3378 61.5758 14.2257 62.1641 14.8208 62.3633V63.0121L11.2905 65.3963C11.1758 65.1811 11.1218 65.0374 11.1218 65.0374C10.8663 65.1747 10.6035 65.3002 10.3433 65.4211L10.1716 65.4284C10.1725 65.4518 10.1774 65.474 10.1789 65.4973C9.57067 65.7768 8.99046 66.0352 8.56151 66.3467C8.33813 66.5091 8.15388 66.6852 8.03153 66.8881C7.92116 67.0712 7.85925 67.275 7.85925 67.5074V69.2869L7.85954 69.2872V69.2881C7.85954 69.2881 10.9016 70.5489 10.9016 73.8071C10.9016 73.9335 10.8952 74.0602 10.8885 74.1869C10.8876 74.2004 10.887 74.2141 10.8864 74.2275C10.8835 74.2748 10.8823 74.3221 10.8782 74.3694C10.8709 74.467 10.8604 74.5648 10.8496 74.6629C10.8429 74.7233 10.8377 74.7838 10.8298 74.8445C10.8137 74.968 10.7941 75.0918 10.7731 75.2159C10.767 75.2533 10.7617 75.2907 10.755 75.3284C10.7086 75.5882 10.6514 75.8502 10.5886 76.1138C10.5585 76.2403 10.5275 76.367 10.4946 76.4946C10.4677 76.5989 10.4408 76.7031 10.4122 76.8079C10.3789 76.9297 10.3442 77.0529 10.3094 77.1758C10.0694 78.0218 9.79492 78.8981 9.5549 79.8208C9.54497 79.859 9.53504 79.8973 9.52511 79.9358C9.39225 80.4556 9.27312 80.9905 9.17822 81.5433C9.16624 81.6122 9.15486 81.6814 9.14405 81.7509C9.10317 82.0082 9.06696 82.268 9.03893 82.5335C9.03718 82.5507 9.03397 82.567 9.03222 82.5843C8.64736 86.3654 8.4015 88.4041 8.4015 88.4041H8.40208V88.4047H15.0503V88.4041H19.5991L18.3458 89.1706C17.9502 89.4124 17.6669 89.8002 17.5577 90.2501L16.6563 93.9475H25.6032H34.5498L33.6487 90.2501C33.5389 89.7996 33.256 89.4118 32.8606 89.1703ZM15.0509 63.7812L18.3932 66.039C17.8194 66.7807 16.7769 67.6625 15.0509 67.6625C13.3252 67.6625 12.2828 66.7804 11.709 66.0387L15.0509 63.7812ZM21.3958 85.7017C22.56 85.0952 22.9834 84.0276 22.9834 84.0276L23.0383 84.0227C23.1259 84.1015 23.2152 84.1771 23.3066 84.2475H23.2617C23.2514 84.3465 23.2404 84.4408 23.2287 84.5325C23.2187 84.6081 23.2085 84.6823 23.198 84.7538C23.196 84.7687 23.1939 84.7842 23.1916 84.7988L22.7051 85.1918L21.8913 87.0022L21.5616 87.204C21.5161 86.8013 21.4603 86.2991 21.3958 85.7017Z" fill="#808080"/>
<path d="M14.5288 63.1056H14.989V61.7148L14.8106 61.6742C14.7578 61.6613 13.506 61.3527 13.506 60.14C13.506 59.4086 14.1735 58.9554 14.7922 58.9554C15.1181 58.9554 15.4124 59.0803 15.6215 59.3084C15.877 59.5867 16.0116 60.0194 16.0116 60.5599H16.4718C16.4718 59.902 16.2954 59.3618 15.9602 58.9974C15.6633 58.6733 15.2486 58.4952 14.7922 58.4952C13.9527 58.4952 13.0458 59.1241 13.0458 60.14C13.0458 61.2841 13.9337 61.8724 14.5288 62.0716V63.1056Z" fill="white"/>
<path d="M8.10632 67.0578L14.759 62.5648L21.4113 67.0578V68.3104H8.10632V67.0578ZM20.6448 67.4654L14.7593 63.4892L8.87312 67.4654V67.5442H20.6448V67.4654Z" fill="#F9F35C"/>
<path d="M10.6108 73.5137V73.6322C10.5976 74.2828 10.4998 74.9366 10.3515 75.6032C9.89944 77.6221 8.99979 79.7654 8.74108 82.2929C8.35622 86.0741 8.11036 88.1128 8.11036 88.1128H21.408C21.408 88.1128 21.1616 86.0741 20.7773 82.2929C20.5183 79.7654 19.6184 77.6224 19.1672 75.6032C19.0189 74.9366 18.9214 74.2828 18.9076 73.6322V73.5137C18.9076 70.255 21.9503 68.9956 21.9503 68.9956V67.2161C21.9503 65.976 20.1951 65.5546 18.6886 64.7461C18.6886 64.7461 17.7353 67.3712 14.7592 67.3712C11.7837 67.3712 10.8303 64.7461 10.8303 64.7461C9.3242 65.5546 7.56812 65.9757 7.56812 67.2161V68.9956C7.56782 68.9956 10.6108 70.255 10.6108 73.5137Z" fill="#FFC330"/>
<path d="M14.7589 88.1121H8.11094C8.11094 88.1121 8.35622 86.074 8.74166 82.2905C9.08914 78.8762 10.6102 76.1647 10.6102 73.5148C10.6102 70.2566 7.56812 68.9958 7.56812 68.9958V67.2143C7.56812 65.9744 9.32304 65.5551 10.8298 64.7451C10.8298 64.7451 11.7826 67.3717 14.7586 67.3717V88.1121H14.7589Z" fill="#FFCE30"/>
<path d="M14.7589 68.742C17.4097 68.742 19.5533 67.1585 19.6388 65.1364L19.3089 65.1224C19.2303 66.9672 17.2322 68.412 14.7589 68.412C12.2857 68.412 10.2875 66.9672 10.2096 65.1224L9.87988 65.1364C9.96485 67.1585 12.1087 68.742 14.7589 68.742Z" fill="white"/>
<path d="M10.3533 75.6026H19.169C19.1282 75.4282 19.0943 75.2527 19.0642 75.0778C19.007 74.768 18.9632 74.4638 18.9398 74.1577C18.9235 73.9825 18.913 73.8076 18.9092 73.6321H10.6129C10.6096 73.8076 10.5994 73.9825 10.5822 74.1577C10.5553 74.464 10.5153 74.768 10.4578 75.0778C10.4274 75.2527 10.3906 75.4279 10.3533 75.6026Z" fill="#FEF53D"/>
<path d="M10.4574 75.0778H19.0638C19.0066 74.768 18.9628 74.4637 18.9394 74.1577H10.5821C10.5552 74.4637 10.5152 74.768 10.4574 75.0778Z" fill="#FBFF4A"/>
<path d="M25.3113 68.9211C26.1429 67.7826 31.5277 67.5641 32.053 74.3931C32.5783 81.2224 33.0817 82.0757 33.9793 82.0757C34.8763 82.0757 35.1391 81.2222 35.1391 81.2222C35.1391 81.2222 35.5987 85.8185 31.243 85.8185C28.7259 85.8185 27.9101 83.7351 27.9101 83.7351L25.3113 83.498V68.9211Z" fill="#423C3C"/>
<path d="M17.2658 89.9576C17.375 89.5076 17.6582 89.1199 18.0539 88.8781L22.174 86.3587L25.3113 92.2755L28.4485 86.3587L32.5689 88.8781C32.9643 89.1199 33.2472 89.5076 33.357 89.9576L34.2581 93.6549H25.3113H16.3644L17.2658 89.9576Z" fill="#492A79"/>
<path d="M25.3112 88.4451L27.2901 88.6924L25.3112 92.2758L23.332 88.6924L25.3112 88.4451Z" fill="white"/>
<path d="M25.3113 89.3357L22.3635 86.2948C22.3635 86.2948 22.7881 85.7248 22.9697 83.9553H25.3113H27.6528C27.8347 85.7248 28.2587 86.2948 28.2587 86.2948L25.3113 89.3357Z" fill="#FFCEAD"/>
<path d="M22.9554 84.4615L22.4131 84.8998L21.0358 87.9635L25.3112 89.3356L22.9554 84.4615Z" fill="#FBE6E6"/>
<path d="M22.9697 83.9553H25.3112H27.6528C27.6714 84.1375 27.6928 84.3042 27.7161 84.4616C27.0121 85.0234 26.1954 85.3236 25.3112 85.3236C24.4267 85.3236 23.61 85.0231 22.906 84.4616C22.9297 84.3036 22.9516 84.1375 22.9697 83.9553Z" fill="#FCC097"/>
<path d="M25.2902 68.9211C24.458 67.7826 19.0738 67.5641 18.5482 74.3931C18.0229 81.2224 17.5198 82.0757 16.6222 82.0757C15.7249 82.0757 15.4621 81.2222 15.4621 81.2222C15.4621 81.2222 15.0025 85.8185 19.3582 85.8185C21.8756 85.8185 22.6914 83.7351 22.6914 83.7351L25.2902 83.498V68.9211Z" fill="#423C3C"/>
<path d="M25.3544 84.7626C22.5968 84.7626 20.4803 81.8733 20.4803 77.0874C20.4803 71.1189 22.2315 69.7331 25.3544 69.7331C28.4774 69.7331 30.2282 71.1189 30.2282 77.0874C30.2282 81.8733 28.1126 84.7626 25.3544 84.7626Z" fill="#FED6B7"/>
<path d="M25.2937 69.7343V84.7594C22.5658 84.7165 20.4803 81.8379 20.4803 77.0874C20.4803 71.1583 22.2093 69.7518 25.2937 69.7343Z" fill="#FFDEBF"/>
<path d="M25.2616 69.3377V69.3369C25.2684 69.3369 25.2745 69.3369 25.2809 69.3369C25.2873 69.3369 25.2938 69.3369 25.3002 69.3369V69.3377C30.6423 69.3634 30.9393 74.5526 30.7831 75.3777C30.6117 76.2841 29.9827 78.0174 29.9827 78.0174C29.528 76.3486 30.3483 73.1583 29.013 72.6551C27.6776 72.152 26.1207 73.014 25.3107 73.014C24.5007 73.014 22.9434 72.152 21.6087 72.6551C20.2737 73.1583 21.0936 76.3486 20.639 78.0174C20.639 78.0174 20.01 76.2841 19.8386 75.3777C19.6833 74.5528 19.9201 69.3634 25.2616 69.3377Z" fill="#423C3C"/>
<path d="M27.6668 84.4615L28.2091 84.8998L29.5865 87.9635L25.3113 89.3356L27.6668 84.4615Z" fill="#FBE6E6"/>
<g opacity="0.7">
<path opacity="0.7" d="M130.964 43.616C130.85 43.4563 130.635 43.4067 130.462 43.4989L127.938 44.8462L126.006 44.1588L125.925 44.1358L127.031 43.7024C127.221 43.6277 127.323 43.4192 127.263 43.2233L127.232 43.1217C127.17 42.9202 126.96 42.8037 126.756 42.8583L124.307 43.5106L124.158 43.0793L121.978 43.8289L122.022 43.955L121.805 44.0231L121.093 44.2406L116.749 45.4285L116.718 41.1437C116.718 40.1418 116.056 39.081 115.575 38.5367L115.076 37.9974L115.074 38.0026C115.074 38.0012 115.075 37.9959 115.075 37.9959L111.429 35.5305V35.5352C111.393 35.3054 111.269 35.0966 111.078 34.9579L110.656 34.6507V34.5483V33.9441C111.028 33.5014 111.345 32.951 111.59 32.301C111.591 32.2987 111.592 32.2961 111.593 32.2934C111.624 32.2082 111.655 32.1217 111.685 32.0333C111.688 32.0233 111.691 32.0131 111.695 32.0032C111.721 31.9214 111.747 31.8391 111.772 31.7547C111.777 31.7375 111.782 31.7196 111.786 31.7021C111.809 31.6239 111.831 31.5453 111.851 31.4647C111.857 31.4414 111.862 31.4171 111.868 31.3935C111.883 31.3333 111.898 31.2729 111.911 31.2113L111.904 31.3497C111.904 31.3497 112.538 32.023 112.845 30.4185C113.084 29.1649 113.141 28.3322 112.926 27.8968C114.94 23.3173 111.043 21.12 109.848 22.2002C109.848 22.2002 109.137 21.4161 107.421 21.4161C102.464 21.4161 102.184 26.2257 103.138 28.6811C103.139 29.1273 103.216 29.704 103.353 30.4185C103.622 31.8256 104.142 31.4811 104.266 31.3751C104.54 32.5045 104.997 33.413 105.584 34.0621V34.651L105.162 34.9582C104.934 35.1244 104.799 35.3892 104.799 35.6713V35.5311L101.152 37.9965C101.152 37.9965 101.576 40.0449 101.981 42.6553C101.576 40.0454 101.152 37.9985 101.152 37.9985C101.134 37.9985 101.021 38.0663 100.881 38.1571C100.468 38.4243 100.132 38.7919 99.8965 39.2226L95.888 46.7168C95.6418 47.1775 95.6809 47.7385 95.9887 48.1601L100.334 54.1134L100.16 54.2384L101.504 56.111L101.855 55.859C102.021 56.7852 103.054 57.5202 104.331 57.5567C105.742 57.5973 106.911 56.7671 106.941 55.7031C106.96 55.0367 106.528 54.4372 105.856 54.072H107.746H108.108H108.12H113.408L113.517 50.1259C113.517 49.5223 113.545 48.8668 113.591 48.1852L114.265 49.4011C114.587 49.9819 115.281 50.2491 115.907 50.0269L123.016 47.5379L123.229 47.464L123.285 47.6246L125.464 46.875L125.327 46.4756C126.021 46.5944 127.402 46.8012 127.822 46.6411C128.295 46.4613 130.308 44.6891 130.968 44.1019C131.087 43.995 131.108 43.8152 131.014 43.6855L130.964 43.616ZM102.024 42.9395C102.01 42.8443 101.995 42.7497 101.981 42.6559C101.995 42.7497 102.01 42.844 102.024 42.9395ZM102.157 43.8379C102.15 43.7921 102.144 43.7465 102.137 43.701C102.144 43.7465 102.15 43.7921 102.157 43.8379ZM102.093 43.397C102.077 43.2931 102.062 43.1897 102.047 43.0869C102.062 43.1897 102.077 43.2928 102.093 43.397ZM102.308 44.9659V44.9525C102.538 46.7454 102.711 48.5978 102.711 50.1244L102.74 51.1928L102.739 51.1911L100.386 47.8719L102.308 44.9659Z" fill="#808080"/>
<path opacity="0.7" d="M119.468 39.1616H134.445C134.761 39.1616 135.017 38.9052 135.017 38.5893V28.5734C135.017 28.2577 134.761 28.001 134.445 28.001H119.468C119.152 28.001 118.896 28.2574 118.896 28.5734V38.5895C118.896 38.9052 119.152 39.1616 119.468 39.1616Z" fill="#808080"/>
<path opacity="0.7" d="M135.757 39.5815H118.155C117.944 39.5815 117.773 39.7523 117.773 39.9631V40.3153C117.773 40.5261 117.944 40.6969 118.155 40.6969H135.757C135.968 40.6969 136.138 40.5261 136.138 40.3153V39.9631C136.138 39.7523 135.968 39.5815 135.757 39.5815Z" fill="#808080"/>
</g>
<path d="M110.881 34.7608L110.459 34.4536L107.722 34.9769L105.387 34.4536L104.964 34.7608C104.736 34.9269 104.601 35.1918 104.601 35.4739V37.4758C104.601 38.0151 104.75 38.5445 105.03 39.0053L107.174 42.5283H107.922V42.5146L107.922 42.5292H108.67L110.815 39.0059C111.096 38.5451 111.243 38.0163 111.243 37.4764V35.4739C111.244 35.1915 111.109 34.9267 110.881 34.7608Z" fill="white"/>
<path d="M124.225 44.5282L123.851 43.3827L126.56 42.6612C126.763 42.6066 126.974 42.7234 127.035 42.9246L127.066 43.0262C127.126 43.2218 127.025 43.4303 126.835 43.5054L124.225 44.5282Z" fill="#FED6B7"/>
<path d="M124.725 46.2049C124.725 46.2049 127.057 46.6599 127.624 46.4435C128.097 46.2636 130.11 44.4915 130.77 43.9042C130.89 43.7974 130.91 43.6175 130.817 43.4879L130.768 43.4195C130.653 43.2601 130.439 43.2102 130.265 43.3024L127.742 44.6497L125.809 43.9621L125.439 43.8552L123.854 43.4735L124.725 46.2049Z" fill="#FED6B7"/>
<path d="M104.095 31.1523C104.095 31.1523 103.462 31.8257 103.156 30.2211C102.827 28.5059 102.839 27.5744 103.428 27.3782C103.804 27.2535 103.912 27.5735 103.912 27.5735L104.095 31.1523Z" fill="#FFCEAD"/>
<path d="M105.387 33.5712V34.7848C105.387 35.2266 105.586 35.645 105.928 35.9248L106.986 36.7873C107.525 37.2268 108.298 37.2288 108.839 36.792L109.913 35.9248C110.259 35.6456 110.46 35.2248 110.46 34.7807V33.455L105.387 33.5712Z" fill="#FFCEAD"/>
<path d="M105.387 34.463C106.069 35.2196 106.924 35.6319 107.873 35.6319C108.868 35.6319 109.762 35.1816 110.46 34.3509V33.4539L105.387 33.5709V34.463Z" fill="#FCC097"/>
<path d="M107.872 35.0248C110.188 35.0248 111.965 32.5979 111.965 28.5789C111.965 23.5664 110.495 22.4028 107.872 22.4028C105.249 22.4028 103.779 23.5664 103.779 28.5789C103.779 32.5979 105.556 35.0248 107.872 35.0248Z" fill="#FED6B7"/>
<path d="M111.708 31.1523C111.708 31.1523 112.341 31.8257 112.648 30.2211C112.975 28.5059 112.963 27.5744 112.376 27.3782C111.999 27.2535 111.891 27.5735 111.891 27.5735L111.708 31.1523Z" fill="#FFCEAD"/>
<path d="M107.923 22.4034V35.0219C110.214 34.9857 111.965 32.5688 111.965 28.5789C111.965 23.6003 110.512 22.4191 107.923 22.4034Z" fill="#FFDEBF"/>
<path d="M103.917 29.8181C102.177 28.9827 100.926 21.2184 107.224 21.2184C108.94 21.2184 109.651 22.0025 109.651 22.0025C110.98 20.8021 115.649 23.6511 111.821 29.3212C111.821 29.3212 112.2 26.675 110.778 25.5625C109.767 24.773 109.602 24.2088 109.602 24.2088C109.602 24.2088 108.918 25.4151 106.919 25.9223C104.933 26.4271 104.406 27.7146 103.917 29.8181Z" fill="#423C3C"/>
<path d="M108.891 42.5289L108.407 39.7181H107.923H107.911H107.427L106.943 42.5289L107.923 43.1266L108.891 42.5289Z" fill="#492A79"/>
<path d="M107.923 40.0653L108.664 39.5797C108.895 39.4287 108.99 39.1382 108.892 38.8803L108.55 37.971C108.463 37.7418 108.244 37.5903 107.999 37.5903H107.923H107.923H107.847C107.602 37.5903 107.383 37.7418 107.296 37.971L106.953 38.8803C106.856 39.1376 106.951 39.4287 107.182 39.5797L107.923 40.0653H107.923Z" fill="#492A79"/>
<path d="M111.232 35.3337V37.2528C111.232 37.8312 111.061 38.3962 110.742 38.8783L107.923 43.1269L105.092 38.8783C104.772 38.3965 104.602 37.8312 104.602 37.2528V35.3337L100.955 37.7991C100.955 37.7991 102.514 45.3371 102.514 49.9282L102.623 53.8743H107.548H107.911H113.211L113.32 49.9282C113.32 45.3371 114.878 37.7991 114.878 37.7991L111.232 35.3337Z" fill="#FF4385"/>
<path d="M104.136 57.3555C105.547 57.3956 106.716 56.5656 106.746 55.5017C106.777 54.4377 105.657 53.5427 104.245 53.5026C102.833 53.4625 101.665 54.2925 101.634 55.3564C101.604 56.4204 102.724 57.3154 104.136 57.3555Z" fill="#FED6B7"/>
<path d="M113.211 53.8743L113.32 49.9282C113.32 45.3371 114.878 37.7991 114.878 37.7991L111.232 35.3337V37.2528C111.232 37.8312 111.061 38.3962 110.742 38.8783L107.923 43.1269V53.8743H113.211Z" fill="#FF6489"/>
<path d="M112.695 42.1732H110.108V43.3657H112.695V42.1732Z" fill="#E8D4D4"/>
<path d="M125.195 46.5106L123.25 47.1906L122.819 47.3402L115.709 49.8292C115.084 50.0514 114.39 49.7839 114.068 49.2031L113.392 47.9837C113.696 43.5672 114.834 38.0175 114.875 37.809L114.88 37.7999L115.379 38.3393C115.859 38.8838 116.521 39.9444 116.521 40.9462L116.553 45.231L120.897 44.0432L121.608 43.8256L122.044 43.6893L123.799 43.15L124.034 43.7211L125.195 46.5106Z" fill="white"/>
<path d="M104.301 53.4705L103.834 53.8737L101.467 55.7378L95.7915 47.9627C95.4838 47.5411 95.4447 46.9802 95.6908 46.5194L99.6994 39.0252C99.935 38.5945 100.271 38.2272 100.683 37.9597C100.824 37.8689 100.937 37.8011 100.955 37.8011C100.955 37.8011 101.648 41.1559 102.111 44.7513V44.7697L100.189 47.676L102.542 50.9952L104.301 53.4705Z" fill="white"/>
<path d="M123.25 47.1907L122.819 47.3405L121.608 43.8265L122.043 43.6899L123.25 47.1907Z" fill="#E8D4D4"/>
<path d="M123.956 42.8844L121.777 43.634L123.082 47.4289L125.261 46.6793L123.956 42.8844Z" fill="white"/>
<path d="M100.27 54.1006L103.24 51.9742L103.245 51.9696L102.987 51.5885L102.973 51.5978L100.003 53.7289L100.27 54.1006Z" fill="#E8D4D4"/>
<path d="M104.571 53.5754L103.227 51.7028L99.9662 54.0427L101.31 55.9153L104.571 53.5754Z" fill="white"/>
<path d="M134.821 38.393C134.821 38.7087 134.565 38.9653 134.249 38.9653H119.272C118.956 38.9653 118.7 38.709 118.7 38.393V28.3768C118.7 28.0612 118.956 27.8045 119.272 27.8045H134.249C134.565 27.8045 134.821 28.0609 134.821 28.3768V38.393Z" fill="white"/>
<path d="M119.272 38.7747C119.062 38.7747 118.89 38.6033 118.89 38.393V28.3768C118.89 28.1666 119.062 27.9952 119.272 27.9952H134.248C134.459 27.9952 134.63 28.1666 134.63 28.3768V38.393C134.63 38.6035 134.459 38.7747 134.248 38.7747H119.272Z" fill="#3B3636"/>
<path d="M134.272 28.4531H119.249V38.316H134.272V28.4531Z" fill="#543C79"/>
<g opacity="0.2">
<path opacity="0.2" d="M134.273 34.6759V28.4531H127.933L134.273 34.6759Z" fill="#B0ECF7"/>
</g>
<g opacity="0.2">
<path opacity="0.2" d="M120.278 38.3159H122.446L119.249 35.1769V37.3042L120.278 38.3159Z" fill="#B0ECF7"/>
</g>
<path d="M135.942 40.1187C135.942 40.3295 135.771 40.5003 135.56 40.5003H117.958C117.748 40.5003 117.577 40.3295 117.577 40.1187V39.7668C117.577 39.556 117.748 39.3852 117.958 39.3852H135.56C135.771 39.3852 135.942 39.556 135.942 39.7668V40.1187Z" fill="white"/>
<path d="M123.469 39.7681H118.7V40.1176H123.469V39.7681Z" fill="#464646"/>
<path opacity="0.7" d="M119.955 122.708L115.549 120.014L114.537 117.764L113.933 117.276C113.93 117.258 113.927 117.238 113.925 117.22C113.911 117.128 113.898 117.033 113.886 116.936C113.872 116.825 113.858 116.711 113.846 116.591H113.789C113.808 116.576 113.826 116.56 113.844 116.546C113.856 116.536 113.867 116.525 113.879 116.515C113.959 116.451 114.036 116.38 114.114 116.31L114.191 116.317C114.191 116.317 115.205 118.906 118.333 118.906C123.746 118.906 123.175 113.194 123.175 113.194C123.175 113.194 122.849 114.255 121.733 114.255C120.618 114.255 119.993 113.194 119.34 104.708C119.049 100.931 117.562 98.8919 115.911 97.9134C114.649 96.9326 112.977 96.44 110.873 96.44C108.428 96.44 106.564 97.1034 105.254 98.4306C103.914 99.5472 102.805 101.502 102.558 104.709C101.905 113.195 101.28 114.256 100.165 114.256C99.0494 114.256 98.7229 113.195 98.7229 113.195C98.7229 113.195 98.1518 118.907 103.564 118.907C106.492 118.907 107.568 116.639 107.693 116.349C107.801 116.444 107.91 116.539 108.022 116.623C108.011 116.731 107.999 116.834 107.986 116.934C107.975 117.023 107.963 117.11 107.951 117.194C107.947 117.221 107.943 117.25 107.939 117.276L107.334 117.764L106.323 120.014L101.917 122.709C101.426 123.009 101.074 123.491 100.937 124.05L99.8176 128.645H110.936H122.053L120.933 124.05C120.798 123.49 120.446 123.008 119.955 122.708ZM110.873 96.8748C111.747 96.8748 112.538 96.9706 113.257 97.1501C112.174 97.1312 111.288 97.4626 110.962 97.9082V98.4247C110.958 98.4247 110.954 98.4247 110.95 98.4247V98.4256C110.945 98.4256 110.94 98.4262 110.936 98.4262V97.9082C110.592 97.4369 109.618 97.0947 108.45 97.1586C109.18 96.9726 109.984 96.8748 110.873 96.8748Z" fill="#808080"/>
<path d="M110.565 97.5368C109.531 96.122 102.84 95.8502 102.187 104.337C101.534 112.823 100.909 113.884 99.7934 113.884C98.6783 113.884 98.3518 112.823 98.3518 112.823C98.3518 112.823 97.7807 118.535 103.193 118.535C106.321 118.535 107.335 115.946 107.335 115.946L110.564 115.651V97.5368H110.565Z" fill="#423C3C"/>
<path d="M120.563 123.678C120.426 123.119 120.075 122.637 119.583 122.337L114.463 119.206L110.565 126.558L106.666 119.206L101.546 122.337C101.055 122.637 100.703 123.119 100.567 123.678L99.4471 128.272H110.565H121.683L120.563 123.678Z" fill="#492A79"/>
<path d="M110.565 121.799L108.105 122.106L110.565 126.559L113.024 122.106L110.565 121.799Z" fill="#FFCE30"/>
<path d="M110.565 122.905L114.227 119.127C114.227 119.127 113.7 118.418 113.474 116.219H110.565H107.655C107.429 118.418 106.902 119.127 106.902 119.127L110.565 122.905Z" fill="#FFCEAD"/>
<path d="M113.492 116.848L114.166 117.392L115.878 121.2L110.565 122.905L113.492 116.848Z" fill="#FFCE30"/>
<path d="M113.474 116.219H110.565H107.655C107.632 116.445 107.605 116.653 107.576 116.848C108.451 117.546 109.466 117.92 110.565 117.92C111.664 117.92 112.679 117.546 113.553 116.848C113.524 116.653 113.497 116.445 113.474 116.219Z" fill="#FCC097"/>
<path d="M110.591 97.5368C111.625 96.122 118.316 95.8502 118.969 104.337C119.622 112.823 120.247 113.884 121.362 113.884C122.477 113.884 122.804 112.823 122.804 112.823C122.804 112.823 123.375 118.535 117.962 118.535C114.834 118.535 113.82 115.946 113.82 115.946L110.59 115.651V97.5368H110.591Z" fill="#423C3C"/>
<path d="M110.511 117.222C113.938 117.222 116.567 113.632 116.567 107.685C116.567 100.268 114.391 98.5456 110.511 98.5456C106.63 98.5456 104.454 100.268 104.454 107.685C104.454 113.632 107.084 117.222 110.511 117.222Z" fill="#FED6B7"/>
<path d="M110.586 98.5468V117.218C113.976 117.165 116.567 113.588 116.567 107.685C116.567 100.317 114.419 98.5689 110.586 98.5468Z" fill="#FFDEBF"/>
<path d="M103.146 107.927C103.045 107.189 102.992 106.424 102.992 105.642C102.992 99.4929 105.448 96.5034 110.502 96.5034C115.555 96.5034 118.012 99.4929 118.012 105.642C118.012 106.424 117.959 107.189 117.858 107.927H118.295C118.394 107.187 118.447 106.424 118.447 105.642C118.447 99.2 115.848 96.068 110.502 96.068C105.155 96.068 102.556 99.2 102.556 105.642C102.556 106.424 102.609 107.187 102.709 107.927H103.146Z" fill="#FFCE30"/>
<path d="M111.384 115.216C112.26 115.216 112.971 114.924 112.971 114.563C112.971 114.203 112.26 113.91 111.384 113.91C110.508 113.91 109.797 114.203 109.797 114.563C109.797 114.924 110.508 115.216 111.384 115.216Z" fill="#575757"/>
<path d="M116.148 111.888C116.148 111.888 117.642 113.008 118.367 110.338C119.142 107.484 119.116 105.935 117.725 105.608C116.837 105.4 116.581 105.934 116.581 105.934L116.148 111.888Z" fill="#FFCE30"/>
<path d="M104.98 111.888C104.98 111.888 103.487 113.008 102.762 110.338C101.987 107.484 102.013 105.935 103.403 105.608C104.292 105.4 104.547 105.934 104.547 105.934L104.98 111.888Z" fill="#FFCE30"/>
<path d="M112.971 114.727C112.888 114.727 112.817 114.664 112.808 114.58C112.8 114.491 112.864 114.411 112.954 114.401C112.984 114.398 115.902 114.078 116.551 112.057C116.579 111.971 116.67 111.925 116.756 111.952C116.842 111.979 116.889 112.071 116.862 112.157C116.147 114.383 113.116 114.713 112.987 114.726C112.982 114.727 112.976 114.727 112.971 114.727Z" fill="#C5B4B4"/>
<path d="M110.626 98.0542V98.0533C110.618 98.0533 110.61 98.0533 110.602 98.0533C110.594 98.0533 110.586 98.0533 110.578 98.0533V98.0542C103.94 98.0857 103.571 104.535 103.765 105.56C103.977 106.687 104.759 108.84 104.759 108.84C105.324 106.767 104.305 102.802 105.964 102.176C107.623 101.551 109.558 102.623 110.565 102.623C111.571 102.623 113.506 101.551 115.165 102.176C116.824 102.802 115.805 106.767 116.37 108.84C116.37 108.84 117.151 106.687 117.365 105.56C117.558 104.535 117.264 98.0857 110.626 98.0542Z" fill="#423C3C"/>
<path d="M107.637 116.848L106.963 117.392L105.252 121.2L110.565 122.905L107.637 116.848Z" fill="#FFCE30"/>
<path opacity="0.7" d="M51.0373 112.089C50.9447 111.7 50.7015 111.363 50.361 111.154L48.0773 109.746H48.0776L37.5466 103.256L37.5454 103.256L31.0172 99.2336C30.3079 98.7967 29.3791 99.0175 28.9422 99.7265L24.5926 106.784L21.3587 105.954C20.5519 105.747 19.7302 106.233 19.5229 107.04L16.0061 120.733C15.886 121.2 16.004 121.669 16.2764 122.024C16.4744 122.282 16.7518 122.482 17.0914 122.57L19.8862 123.287L19.887 123.287L39.0997 128.221C39.9062 128.429 40.7279 127.942 40.9356 127.136L41.2994 125.719L41.3625 125.758C42.0711 126.195 43.0003 125.974 43.4374 125.265L48.461 117.112L48.4613 117.113L50.2711 114.175L50.8539 113.229C51.0636 112.888 51.1296 112.478 51.0373 112.089Z" fill="#808080"/>
<path d="M15.6533 120.38C15.4463 121.187 15.9324 122.009 16.7392 122.216L38.7467 127.869C39.5532 128.076 40.3749 127.589 40.5825 126.783L44.0991 113.09C44.1986 112.702 44.1402 112.291 43.9367 111.947C43.7329 111.602 43.4009 111.353 43.0134 111.254L21.0059 105.601C20.1991 105.394 19.3775 105.881 19.1701 106.687L15.6533 120.38Z" fill="#C2C2C2"/>
<path opacity="0.25" d="M17.263 114.114L28.4344 107.508L40.4157 110.586L19.5333 122.935L16.7386 122.217C15.9324 122.01 15.4468 121.187 15.6538 120.38L17.263 114.114Z" fill="white"/>
<path d="M18.0296 111.104L42.9595 117.505L43.8379 114.084L18.908 107.683L18.0296 111.104Z" fill="#3B3636"/>
<path d="M18.4885 114.413L41.3124 120.274L41.9031 117.973L19.0792 112.113L18.4885 114.413Z" fill="white"/>
<path d="M25.0663 118.145L40.8217 122.19L41.0871 121.157L25.3317 117.111L25.0663 118.145Z" fill="#494949"/>
<path d="M24.5161 120.282L40.2715 124.327L40.5371 123.293L24.7817 119.247L24.5161 120.282Z" fill="#494949"/>
<path d="M23.9714 122.418L39.726 126.463L39.9916 125.429L24.2371 121.383L23.9714 122.418Z" fill="#494949"/>
<path d="M21.1724 111.41C20.7356 112.119 20.9563 113.048 21.6656 113.485L41.0094 125.405C41.7181 125.842 42.6472 125.621 43.0844 124.913L50.5012 112.876C50.7111 112.536 50.7771 112.126 50.6848 111.737C50.5923 111.347 50.349 111.011 50.0086 110.801L30.6647 98.8808C29.9558 98.444 29.0266 98.6647 28.5898 99.374L21.1724 111.41Z" fill="#FF6098"/>
<path opacity="0.25" d="M24.5666 105.903L37.1939 102.904L47.7249 109.394L24.121 114.999L21.6644 113.485C20.956 113.048 20.7359 112.119 21.1727 111.41L24.5666 105.903Z" fill="white"/>
<path d="M26.1982 103.263L48.109 116.765L49.9619 113.758L28.0511 100.256L26.1982 103.263Z" fill="#3B3636"/>
<path d="M25.6558 106.56L45.7157 118.922L46.9617 116.9L26.9018 104.538L25.6558 106.56Z" fill="white"/>
<path d="M30.828 112.062L44.677 120.595L45.2369 119.687L31.3879 111.153L30.828 112.062Z" fill="#494949"/>
<path d="M29.6738 113.952L43.5211 122.485L44.0815 121.576L30.2341 113.043L29.6738 113.952Z" fill="#494949"/>
<path d="M28.5155 115.819L42.3638 124.352L42.9241 123.442L29.0759 114.909L28.5155 115.819Z" fill="#494949"/>
<g opacity="0.7">
<path opacity="0.1" d="M47.4903 46.2913V32.1641C47.4903 31.7815 47.1802 31.4714 46.7976 31.4714H27.5762C27.1936 31.4714 26.8835 31.7815 26.8835 32.1641V46.2913H26.8832V35.4111H25.8446V30.3029H24.113V33.3764H20.6931V35.4114H18.7881C18.4056 35.4114 18.0955 35.7215 18.0955 36.104V46.2916H15.0938V51.0827H50.3615V46.2916H47.4903V46.2913Z" fill="#808080"/>
<path opacity="0.1" d="M18.7881 30.3026H32.0998C32.4823 30.3026 32.7924 29.9925 32.7924 29.61V25.2808C32.7924 24.8982 32.4823 24.5881 32.0998 24.5881H18.7881C18.4056 24.5881 18.0955 24.8982 18.0955 25.2808V29.61C18.0952 29.9925 18.4056 30.3026 18.7881 30.3026Z" fill="#808080"/>
</g>
<path d="M50.0409 45.9704H14.7732V50.7612H50.0409V45.9704Z" fill="#454545"/>
<path d="M49.3483 46.663H15.4661V50.0686H49.3483V46.663Z" fill="#4F4F4F"/>
<path d="M32.4071 48.9862C32.7498 48.9862 33.0276 48.7084 33.0276 48.3657C33.0276 48.023 32.7498 47.7452 32.4071 47.7452C32.0644 47.7452 31.7866 48.023 31.7866 48.3657C31.7866 48.7084 32.0644 48.9862 32.4071 48.9862Z" fill="#2C2828"/>
<path d="M26.5627 45.9704H17.7747V35.7828C17.7747 35.4003 18.0848 35.0902 18.4673 35.0902H26.5627V45.9704Z" fill="white"/>
<path d="M47.1695 45.9704H26.5627V31.8434C26.5627 31.4609 26.8728 31.1508 27.2554 31.1508H46.4766C46.8591 31.1508 47.1692 31.4609 47.1692 31.8434V45.9704H47.1695Z" fill="white"/>
<path d="M32.4716 29.289C32.4716 29.6715 32.1615 29.9817 31.779 29.9817H18.4673C18.0848 29.9817 17.7747 29.6715 17.7747 29.289V24.9598C17.7747 24.5773 18.0848 24.2672 18.4673 24.2672H31.779C32.1615 24.2672 32.4716 24.5773 32.4716 24.9598V29.289Z" fill="white"/>
<path d="M31.4332 25.3062H18.8138V28.9427H31.4332V25.3062Z" fill="#BAA9C7"/>
<path d="M25.5237 39.0298H19.3762V40.0685H25.5237V39.0298Z" fill="#858585"/>
<path d="M46.1159 32.1462H27.616V36.0427H46.1159V32.1462Z" fill="#858585"/>
<path d="M42.2195 37.053H39.3044V38.3226H42.2195V37.053Z" fill="#F9C13A"/>
<path d="M46.1156 37.053H43.2006V38.3226H46.1156V37.053Z" fill="#F9C13A"/>
<path d="M42.2195 39.3134H39.3044V40.5836H42.2195V39.3134Z" fill="#402864"/>
<path d="M46.1156 39.3134H43.2006V40.5836H46.1156V39.3134Z" fill="#402864"/>
<path d="M42.2195 41.5743H39.3044V42.8437H42.2195V41.5743Z" fill="#402864"/>
<path d="M46.1156 41.5743H43.2006V42.8437H46.1156V41.5743Z" fill="#402864"/>
<path d="M30.531 37.053H27.616V38.3226H30.531V37.053Z" fill="#FF7E88"/>
<path d="M34.4272 37.053H31.5125V38.3226H34.4272V37.053Z" fill="#FF7E88"/>
<path d="M38.3236 37.053H35.4086V38.3226H38.3236V37.053Z" fill="#FF7E88"/>
<path d="M30.5307 39.3134H27.616V40.5836H30.5307V39.3134Z" fill="#FF7E88"/>
<path d="M34.4272 39.3134H31.5125V40.5836H34.4272V39.3134Z" fill="#FF7E88"/>
<path d="M38.3236 39.3134H35.4086V40.5836H38.3236V39.3134Z" fill="#FF7E88"/>
<path d="M30.5307 41.5743H27.616V42.8437H30.5307V41.5743Z" fill="#FF7E88"/>
<path d="M34.4272 41.5743H31.5125V42.8437H34.4272V41.5743Z" fill="#FF7E88"/>
<path d="M38.3236 41.5743H35.4086V42.8437H38.3236V41.5743Z" fill="#FF7E88"/>
<path d="M30.531 43.8347H27.616V45.1049H30.531V43.8347Z" fill="#FF7E88"/>
<path d="M34.4272 43.8347H31.5125V45.1049H34.4272V43.8347Z" fill="#FF7E88"/>
<path d="M38.3236 43.8347H35.4086V45.1049H38.3236V43.8347Z" fill="#FF7E88"/>
<path d="M42.2195 43.8347H39.3044V45.1049H42.2195V43.8347Z" fill="#402864"/>
<path d="M46.1156 43.8347H43.2006V45.1049H46.1156V43.8347Z" fill="#402864"/>
<path d="M25.5241 29.9819H23.7922V35.0902H25.5241V29.9819Z" fill="#BAA9C7"/>
<path d="M24.5284 33.0555H20.3723V39.0299H24.5284V33.0555Z" fill="#F9B63E"/>
<path opacity="0.5" d="M31.4329 28.3923V25.3062H28.347L31.4329 28.3923Z" fill="white"/>
<path opacity="0.5" d="M18.8138 25.8536V28.9427H21.968L18.8138 25.8536Z" fill="white"/>
<path opacity="0.1" d="M35.4728 36.0427H41.7683L37.8722 32.1462H31.5767L35.4728 36.0427Z" fill="white"/>
<path opacity="0.7" d="M87.337 10.3359H57.5641V33.4784H68.5818V37.8038H71.8368H72.1936H76.738H81.2722H81.6278H84.881V33.4784H87.337V10.3359Z" fill="#808080"/>
<path d="M87.1249 10.1242H57.3521V33.2667H87.1249V10.1242Z" fill="#535353"/>
<path d="M86.0127 11.4855H58.4648V15.5838H86.0127V11.4855Z" fill="#494949"/>
<path d="M86.0127 16.8516H58.4648V20.9501H86.0127V16.8516Z" fill="#494949"/>
<path d="M86.0127 22.218H58.4648V26.3168H86.0127V22.218Z" fill="#494949"/>
<path d="M86.0127 27.5847H58.4648V31.6829H86.0127V27.5847Z" fill="#494949"/>
<path d="M61.7698 11.7496H59.0253V15.5844H61.7698V11.7496Z" fill="#FBE6E6"/>
<path d="M61.7701 11.7488H60.3977V15.5837H61.7701V11.7488Z" fill="white"/>
<path d="M61.7698 15.2181H59.0253V15.5837H61.7698V15.2181Z" fill="#FF6098"/>
<path d="M60.3977 13.9882C60.6481 13.9882 60.8512 13.7852 60.8512 13.5347C60.8512 13.2843 60.6481 13.0812 60.3977 13.0812C60.1472 13.0812 59.9442 13.2843 59.9442 13.5347C59.9442 13.7852 60.1472 13.9882 60.3977 13.9882Z" fill="#FF6098"/>
<path d="M61.7698 11.7496H59.0253V12.1152H61.7698V11.7496Z" fill="#FF6098"/>
<path d="M65.7173 11.7489H62.9725V15.5837H65.7173V11.7489Z" fill="#FBE6E6"/>
<path d="M65.7174 11.7489H64.345V15.5837H65.7174V11.7489Z" fill="white"/>
<path d="M65.7173 15.2181H62.9725V15.5837H65.7173V15.2181Z" fill="#FF6098"/>
<path d="M64.3446 13.9882C64.595 13.9882 64.7981 13.7852 64.7981 13.5348C64.7981 13.2843 64.595 13.0813 64.3446 13.0813C64.0941 13.0813 63.8911 13.2843 63.8911 13.5348C63.8911 13.7852 64.0941 13.9882 64.3446 13.9882Z" fill="#FF6098"/>
<path d="M65.7173 11.7489H62.9725V12.1145H65.7173V11.7489Z" fill="#FF6098"/>
<path d="M69.6639 11.7489H66.9194V15.5837H69.6639V11.7489Z" fill="#FBE6E6"/>
<path d="M69.6643 11.7489H68.2919V15.5837H69.6643V11.7489Z" fill="white"/>
<path d="M69.6639 15.2181H66.9194V15.5837H69.6639V15.2181Z" fill="#FF6098"/>
<path d="M68.2919 13.9882C68.5423 13.9882 68.7453 13.7852 68.7453 13.5348C68.7453 13.2843 68.5423 13.0813 68.2919 13.0813C68.0414 13.0813 67.8384 13.2843 67.8384 13.5348C67.8384 13.7852 68.0414 13.9882 68.2919 13.9882Z" fill="#FF6098"/>
<path d="M69.6639 11.7489H66.9194V12.1145H69.6639V11.7489Z" fill="#FF6098"/>
<path d="M73.6109 11.7486H70.8665V15.5834H73.6109V11.7486Z" fill="#FBE6E6"/>
<path d="M73.6113 11.7486H72.2389V15.5834H73.6113V11.7486Z" fill="white"/>
<path d="M73.6109 15.2178H70.8665V15.5834H73.6109V15.2178Z" fill="#FF6098"/>
<path d="M72.2389 13.9883C72.4893 13.9883 72.6924 13.7852 72.6924 13.5348C72.6924 13.2843 72.4893 13.0813 72.2389 13.0813C71.9884 13.0813 71.7854 13.2843 71.7854 13.5348C71.7854 13.7852 71.9884 13.9883 72.2389 13.9883Z" fill="#FF6098"/>
<path d="M73.6109 11.7486H70.8665V12.1142H73.6109V11.7486Z" fill="#FF6098"/>
<path d="M77.5582 11.7489H74.8137V15.5837H77.5582V11.7489Z" fill="#FBE6E6"/>
<path d="M77.5585 11.7489H76.1862V15.5837H77.5585V11.7489Z" fill="white"/>
<path d="M77.5582 15.2181H74.8137V15.5837H77.5582V15.2181Z" fill="#FF6098"/>
<path d="M76.1861 13.9882C76.4366 13.9882 76.6396 13.7852 76.6396 13.5348C76.6396 13.2843 76.4366 13.0813 76.1861 13.0813C75.9357 13.0813 75.7327 13.2843 75.7327 13.5348C75.7327 13.7852 75.9357 13.9882 76.1861 13.9882Z" fill="#FF6098"/>
<path d="M77.5582 11.7489H74.8137V12.1145H77.5582V11.7489Z" fill="#FF6098"/>
<path d="M81.5051 11.7489H78.7606V15.5837H81.5051V11.7489Z" fill="#FBE6E6"/>
<path d="M81.5054 11.7489H80.1331V15.5837H81.5054V11.7489Z" fill="white"/>
<path d="M81.5051 15.2181H78.7606V15.5837H81.5051V15.2181Z" fill="#FF6098"/>
<path d="M80.133 13.9882C80.3835 13.9882 80.5865 13.7852 80.5865 13.5348C80.5865 13.2843 80.3835 13.0813 80.133 13.0813C79.8826 13.0813 79.6796 13.2843 79.6796 13.5348C79.6796 13.7852 79.8826 13.9882 80.133 13.9882Z" fill="#FF6098"/>
<path d="M81.5051 11.7489H78.7606V12.1145H81.5051V11.7489Z" fill="#FF6098"/>
<path d="M85.4524 11.7489H82.7079V15.5837H85.4524V11.7489Z" fill="#FBE6E6"/>
<path d="M85.4523 11.7489H84.08V15.5837H85.4523V11.7489Z" fill="white"/>
<path d="M85.4524 15.2181H82.7079V15.5837H85.4524V15.2181Z" fill="#FF6098"/>
<path d="M84.0799 13.9882C84.3304 13.9882 84.5334 13.7852 84.5334 13.5348C84.5334 13.2843 84.3304 13.0813 84.0799 13.0813C83.8295 13.0813 83.6265 13.2843 83.6265 13.5348C83.6265 13.7852 83.8295 13.9882 84.0799 13.9882Z" fill="#FF6098"/>
<path d="M85.4524 11.7489H82.7079V12.1145H85.4524V11.7489Z" fill="#FF6098"/>
<path d="M62.9949 19.0387H59.2185V20.9049H62.9949V19.0387Z" fill="#FBE6E6"/>
<path d="M63.244 18.9952H58.97V20.2692H63.244V18.9952Z" fill="white"/>
<path d="M68.547 19.0387H64.7703V20.9049H68.547V19.0387Z" fill="#FBE6E6"/>
<path d="M68.7954 18.9952H64.5217V20.2692H68.7954V18.9952Z" fill="white"/>
<path d="M74.0991 19.0387H70.3226V20.9049H74.0991V19.0387Z" fill="#FBE6E6"/>
<path d="M74.3476 18.9952H70.0739V20.2692H74.3476V18.9952Z" fill="white"/>
<path d="M79.6512 19.0387H75.8748V20.9049H79.6512V19.0387Z" fill="#FBE6E6"/>
<path d="M79.8997 18.9952H75.626V20.2692H79.8997V18.9952Z" fill="white"/>
<path d="M85.2029 19.0387H81.4265V20.9049H85.2029V19.0387Z" fill="#FBE6E6"/>
<path d="M85.4517 18.9952H81.178V20.2692H85.4517V18.9952Z" fill="white"/>
<path d="M61.48 22.9763H59.2185V26.2847H61.48V22.9763Z" fill="#9578FF"/>
<path d="M61.48 22.9763H60.3494V26.2847H61.48V22.9763Z" fill="#BEACFF"/>
<path d="M61.48 22.9763H59.2185V23.2546H61.48V22.9763Z" fill="white"/>
<path d="M61.48 26.0061H59.2185V26.2844H61.48V26.0061Z" fill="white"/>
<path d="M60.3494 24.1764C60.7677 24.1764 61.1068 24.0339 61.1068 23.8581C61.1068 23.6824 60.7677 23.5399 60.3494 23.5399C59.931 23.5399 59.5919 23.6824 59.5919 23.8581C59.5919 24.0339 59.931 24.1764 60.3494 24.1764Z" fill="white"/>
<path d="M64.8699 22.9763H62.6084V26.2847H64.8699V22.9763Z" fill="#9578FF"/>
<path d="M64.8699 22.9763H63.7393V26.2847H64.8699V22.9763Z" fill="#BEACFF"/>
<path d="M64.8699 22.9763H62.6084V23.2546H64.8699V22.9763Z" fill="white"/>
<path d="M64.8699 26.0061H62.6084V26.2844H64.8699V26.0061Z" fill="white"/>
<path d="M63.7393 24.1764C64.1576 24.1764 64.4967 24.0339 64.4967 23.8581C64.4967 23.6824 64.1576 23.5399 63.7393 23.5399C63.3209 23.5399 62.9818 23.6824 62.9818 23.8581C62.9818 24.0339 63.3209 24.1764 63.7393 24.1764Z" fill="white"/>
<path d="M68.2602 22.9763H65.9984V26.2847H68.2602V22.9763Z" fill="#9578FF"/>
<path d="M68.2602 22.9763H67.1293V26.2847H68.2602V22.9763Z" fill="#BEACFF"/>
<path d="M68.2602 22.9763H65.9984V23.2546H68.2602V22.9763Z" fill="white"/>
<path d="M68.2602 26.0061H65.9984V26.2844H68.2602V26.0061Z" fill="white"/>
<path d="M67.1293 24.1764C67.5476 24.1764 67.8867 24.0339 67.8867 23.8581C67.8867 23.6824 67.5476 23.5399 67.1293 23.5399C66.7109 23.5399 66.3718 23.6824 66.3718 23.8581C66.3718 24.0339 66.7109 24.1764 67.1293 24.1764Z" fill="white"/>
<path d="M71.6504 22.9763H69.3885V26.2847H71.6504V22.9763Z" fill="#9578FF"/>
<path d="M71.6503 22.9763H70.5194V26.2847H71.6503V22.9763Z" fill="#BEACFF"/>
<path d="M71.6504 22.9763H69.3885V23.2546H71.6504V22.9763Z" fill="white"/>
<path d="M71.6504 26.0061H69.3885V26.2844H71.6504V26.0061Z" fill="white"/>
<path d="M70.5194 24.1764C70.9377 24.1764 71.2769 24.0339 71.2769 23.8581C71.2769 23.6824 70.9377 23.5399 70.5194 23.5399C70.1011 23.5399 69.762 23.6824 69.762 23.8581C69.762 24.0339 70.1011 24.1764 70.5194 24.1764Z" fill="white"/>
<path d="M75.0403 22.9763H72.7793V26.2847H75.0403V22.9763Z" fill="#9578FF"/>
<path d="M75.0406 22.9763H73.9099V26.2847H75.0406V22.9763Z" fill="#BEACFF"/>
<path d="M75.0403 22.9763H72.7793V23.2546H75.0403V22.9763Z" fill="white"/>
<path d="M75.0403 26.0061H72.7793V26.2844H75.0403V26.0061Z" fill="white"/>
<path d="M73.9093 24.1764C74.3276 24.1764 74.6667 24.0339 74.6667 23.8581C74.6667 23.6824 74.3276 23.5399 73.9093 23.5399C73.491 23.5399 73.1519 23.6824 73.1519 23.8581C73.1519 24.0339 73.491 24.1764 73.9093 24.1764Z" fill="white"/>
<path d="M78.4306 22.9763H76.1691V26.2847H78.4306V22.9763Z" fill="#9578FF"/>
<path d="M78.4306 22.9763H77.2997V26.2847H78.4306V22.9763Z" fill="#BEACFF"/>
<path d="M78.4306 22.9763H76.1691V23.2546H78.4306V22.9763Z" fill="white"/>
<path d="M78.4306 26.0061H76.1691V26.2844H78.4306V26.0061Z" fill="white"/>
<path d="M77.2997 24.1764C77.718 24.1764 78.0571 24.0339 78.0571 23.8581C78.0571 23.6824 77.718 23.5399 77.2997 23.5399C76.8814 23.5399 76.5422 23.6824 76.5422 23.8581C76.5422 24.0339 76.8814 24.1764 77.2997 24.1764Z" fill="white"/>
<path d="M81.8205 22.9763H79.559V26.2847H81.8205V22.9763Z" fill="#9578FF"/>
<path d="M81.8204 22.9763H80.6898V26.2847H81.8204V22.9763Z" fill="#BEACFF"/>
<path d="M81.8205 22.9763H79.559V23.2546H81.8205V22.9763Z" fill="white"/>
<path d="M81.8205 26.0061H79.559V26.2844H81.8205V26.0061Z" fill="white"/>
<path d="M80.6898 24.1764C81.1081 24.1764 81.4473 24.0339 81.4473 23.8581C81.4473 23.6824 81.1081 23.5399 80.6898 23.5399C80.2715 23.5399 79.9324 23.6824 79.9324 23.8581C79.9324 24.0339 80.2715 24.1764 80.6898 24.1764Z" fill="white"/>
<path d="M85.2106 22.9763H82.9491V26.2847H85.2106V22.9763Z" fill="#9578FF"/>
<path d="M85.2107 22.9763H84.0801V26.2847H85.2107V22.9763Z" fill="#BEACFF"/>
<path d="M85.2106 22.9763H82.9491V23.2546H85.2106V22.9763Z" fill="white"/>
<path d="M85.2106 26.0061H82.9491V26.2844H85.2106V26.0061Z" fill="white"/>
<path d="M84.0801 24.1764C84.4984 24.1764 84.8375 24.0339 84.8375 23.8581C84.8375 23.6824 84.4984 23.5399 84.0801 23.5399C83.6618 23.5399 83.3226 23.6824 83.3226 23.8581C83.3226 24.0339 83.6618 24.1764 84.0801 24.1764Z" fill="white"/>
<path d="M61.4808 28.3745H59.2192V31.6829H61.4808V28.3745Z" fill="#FF6098"/>
<path d="M61.48 28.3745H60.3494V31.6829H61.48V28.3745Z" fill="#FF7E88"/>
<path d="M61.5384 28.3745H59.1598V28.6528H61.5384V28.3745Z" fill="white"/>
<path d="M64.8707 28.3745H62.6091V31.6829H64.8707V28.3745Z" fill="#FF6098"/>
<path d="M64.8698 28.3745H63.7395V31.6829H64.8698V28.3745Z" fill="#FF7E88"/>
<path d="M64.9288 28.3745H62.5499V28.6528H64.9288V28.3745Z" fill="white"/>
<path d="M68.2611 28.3745H65.9995V31.6829H68.2611V28.3745Z" fill="#FF6098"/>
<path d="M68.26 28.3745H67.1294V31.6829H68.26V28.3745Z" fill="#FF7E88"/>
<path d="M68.3187 28.3745H65.9401V28.6528H68.3187V28.3745Z" fill="white"/>
<path d="M71.6508 28.3745H69.3893V31.6829H71.6508V28.3745Z" fill="#FF6098"/>
<path d="M71.65 28.3745H70.5194V31.6829H71.65V28.3745Z" fill="#FF7E88"/>
<path d="M71.7085 28.3745H69.3298V28.6528H71.7085V28.3745Z" fill="white"/>
<path d="M75.0412 28.3745H72.7797V31.6829H75.0412V28.3745Z" fill="#FF6098"/>
<path d="M75.0404 28.3745H73.9098V31.6829H75.0404V28.3745Z" fill="#FF7E88"/>
<path d="M75.0988 28.3745H72.7202V28.6528H75.0988V28.3745Z" fill="white"/>
<path d="M78.4311 28.3745H76.1696V31.6829H78.4311V28.3745Z" fill="#FF6098"/>
<path d="M78.4303 28.3745H77.2997V31.6829H78.4303V28.3745Z" fill="#FF7E88"/>
<path d="M78.489 28.3745H76.1104V28.6528H78.489V28.3745Z" fill="white"/>
<path d="M81.8213 28.3745H79.5601V31.6829H81.8213V28.3745Z" fill="#FF6098"/>
<path d="M81.8204 28.3745H80.6898V31.6829H81.8204V28.3745Z" fill="#FF7E88"/>
<path d="M81.8789 28.3745H79.5002V28.6528H81.8789V28.3745Z" fill="white"/>
<path d="M85.2114 28.3745H82.9498V31.6829H85.2114V28.3745Z" fill="#FF6098"/>
<path d="M85.2106 28.3745H84.08V31.6829H85.2106V28.3745Z" fill="#FF7E88"/>
<path d="M85.269 28.3745H82.8904V28.6528H85.269V28.3745Z" fill="white"/>
<path d="M71.9818 37.5921L72.3506 34.0384L70.2584 27.9166C70.2584 27.9166 69.6222 28.2711 69.4426 28.434C68.969 28.8586 68.3704 29.7764 68.3704 30.7432V37.5921H71.9818Z" fill="white"/>
<path d="M79.1869 25.1826L78.8076 24.9058L76.3452 25.3768L74.2442 24.9058L73.8649 25.1826C73.6596 25.3319 73.5385 25.5707 73.5385 25.8239V27.6249C73.5385 28.1102 73.6719 28.5856 73.9245 29L75.8526 32.1687H76.525V32.1568L76.5265 32.1696H77.199L79.1279 29.0008C79.3811 28.5859 79.5142 28.1102 79.5142 27.6246V25.8236C79.5134 25.5698 79.3922 25.3316 79.1869 25.1826Z" fill="white"/>
<path d="M73.0829 21.9368C73.0829 21.9368 72.5135 22.5424 72.2379 21.0987C71.9421 19.5552 71.9526 18.7178 72.4829 18.5414C72.8213 18.4284 72.9177 18.7166 72.9177 18.7166L73.0829 21.9368Z" fill="#FFCEAD"/>
<path d="M74.2443 24.1122V25.2045C74.2443 25.6019 74.423 25.9786 74.731 26.2295L75.6827 27.0056C76.1674 27.4013 76.8632 27.4027 77.3497 27.0097L78.3156 26.2297C78.6266 25.9786 78.8073 25.6002 78.8073 25.2007V24.0076L74.2443 24.1122Z" fill="#FFCEAD"/>
<path d="M74.2443 24.9143C74.8586 25.5949 75.6275 25.966 76.4807 25.966C77.3751 25.966 78.1798 25.5608 78.8076 24.8141V24.007L74.2443 24.1121V24.9143Z" fill="#FCC097"/>
<path d="M76.4807 25.4197C78.5641 25.4197 80.1619 23.2373 80.1619 19.6218C80.1619 15.1133 78.8389 14.0665 76.4807 14.0665C74.1208 14.0665 72.7986 15.1133 72.7986 19.6218C72.7986 23.2373 74.3967 25.4197 76.4807 25.4197Z" fill="#FED6B7"/>
<path d="M79.9301 21.9368C79.9301 21.9368 80.4992 22.5424 80.7757 21.0987C81.07 19.5552 81.0601 18.7178 80.5313 18.5414C80.1928 18.4284 80.0953 18.7166 80.0953 18.7166L79.9301 21.9368Z" fill="#FFCEAD"/>
<path d="M76.5259 14.0665V25.4171C78.5862 25.3847 80.1619 23.2104 80.1619 19.6218C80.1619 15.1431 78.8557 14.0805 76.5259 14.0665Z" fill="#FFDEBF"/>
<path d="M72.922 20.7366C71.3578 19.9847 70.2321 13.0007 75.8978 13.0007C77.441 13.0007 78.0805 13.7059 78.0805 13.7059C79.2756 12.626 83.4758 15.1889 80.0334 20.2893C80.0334 20.2893 80.3736 17.9092 79.0946 16.9088C78.1853 16.1978 78.0367 15.6909 78.0367 15.6909C78.0367 15.6909 77.4214 16.7756 75.6236 17.232C73.836 17.6852 73.3615 18.8442 72.922 20.7366Z" fill="#BF9170"/>
<path d="M77.397 32.1699L76.9613 29.6417H76.5259H76.5146H76.0801L75.6438 32.1699L76.5259 32.708L77.397 32.1699Z" fill="#FF6098"/>
<path d="M76.526 29.9545L77.1929 29.5177C77.4002 29.3819 77.4852 29.1203 77.3979 28.8887L77.0898 28.0711C77.0121 27.8652 76.815 27.7289 76.5949 27.7289H76.526H76.5251H76.457C76.2369 27.7289 76.0398 27.8652 75.9621 28.0711L75.6538 28.8887C75.5664 29.1206 75.6517 29.3819 75.8587 29.5177L76.5251 29.9545V29.9548H76.526V29.9545Z" fill="#FF6098"/>
<path d="M84.6692 37.5921V30.7453C84.6692 29.7767 84.0723 28.8586 83.5981 28.4329C83.4188 28.272 82.7823 27.9158 82.7823 27.9158L80.6921 34.0367L81.0604 37.5921H84.6692Z" fill="white"/>
<path d="M81.4158 37.592C81.6325 33.4751 82.7821 27.9157 82.7821 27.9157L79.5035 25.698V27.4237C79.5035 27.9441 79.349 28.4527 79.0614 28.8861L76.526 32.708L73.9791 28.8861C73.6915 28.4527 73.5382 27.9441 73.5382 27.4237V25.698L70.2582 27.9157C70.2582 27.9157 71.4078 33.4751 71.625 37.592H81.4158Z" fill="#492A79"/>
<path d="M81.4157 37.592C81.6324 33.4751 82.782 27.9157 82.782 27.9157L79.5034 25.698V27.4237C79.5034 27.9441 79.3489 28.4527 79.0613 28.8861L76.5259 32.708V37.592H81.4157Z" fill="#4A398B"/>
<path d="M80.8174 31.8499H78.4913V32.9227H80.8174V31.8499Z" fill="white"/>
<path opacity="0.7" d="M90.127 93.6289V73.2458V72.2971H91.0819L87.4993 64.4815H84.6219V63.6396H85.2737V62.4459H80.8222V63.6396H81.4739V64.4815H73.5537H59.6075L56.0252 72.2971H56.9792V73.2458V93.6289H55.8051V94.6059H56.9792H58.7852H68.013H90.127H91.3023V93.6289H90.127Z" fill="#808080"/>
<path d="M89.5994 71.7695H56.4515V94.0783H89.5994V71.7695Z" fill="white"/>
<path d="M90.7747 93.1013H55.2775V94.0783H90.7747V93.1013Z" fill="#492A79"/>
<path d="M90.5543 71.7695H55.4979L59.0799 63.9538H86.9717L90.5543 71.7695Z" fill="#492A79"/>
<path d="M90.5543 71.7695L86.9717 63.9538H73.0261V71.7695H90.5543Z" fill="#4A398B"/>
<path d="M67.4854 75.2974H58.2576V94.0782H67.4854V75.2974Z" fill="#FF6098"/>
<path d="M87.6781 76.2198H69.2777V88.5463H87.6781V76.2198Z" fill="#A9F3FA"/>
<path d="M74.6946 88.5697V88.5665L73.7175 87.5927L72.9394 86.8145C72.9394 86.785 72.9361 86.7558 72.9326 86.7231H72.949C72.5323 86.4297 72.2622 85.9444 72.2622 85.3945C72.2622 84.4952 72.9878 83.7657 73.8904 83.7657C74.2843 83.7657 74.6458 83.9059 74.9261 84.1372L74.9556 84.1629L75.1215 84.3293L75.1478 84.3588L78.3819 87.5924L79.3622 88.5694H74.6946V88.5697Z" fill="#A0EAF1"/>
<path d="M66.5624 76.221H59.2346V88.5469H66.5624V76.221Z" fill="#A9F3FA"/>
<g opacity="0.5">
<path opacity="0.5" d="M63.8692 88.5469H61.4529L59.2346 86.3266V83.9161L63.8692 88.5469Z" fill="white"/>
</g>
<g opacity="0.5">
<path opacity="0.5" d="M66.5624 78.7804V82.4637L60.3159 76.2205H64.0024L66.5624 78.7804Z" fill="white"/>
</g>
<path d="M88.4913 88.5469H68.4624V89.524H88.4913V88.5469Z" fill="#492A79"/>
<path d="M88.4913 75.3521H68.4624L70.0903 73.6155H86.8628L88.4913 75.3521Z" fill="#EBFF30"/>
<path d="M84.0943 63.112H80.9463V66.2601H84.0943V63.112Z" fill="white"/>
<g opacity="0.5">
<path opacity="0.5" d="M87.6769 78.7804V82.4637L81.4302 76.2205H85.1167L87.6769 78.7804Z" fill="white"/>
</g>
<path d="M84.7461 61.9186H80.2946V63.1123H84.7461V61.9186Z" fill="#F2F2F2"/>
<path d="M87.6769 82.2213H69.2765V82.5466H87.6769V82.2213Z" fill="#FF6098"/>
<path d="M78.6398 76.221H78.3134V88.5469H78.6398V76.221Z" fill="#FF6098"/>
<path d="M83.362 76.221H83.0355V88.5469H83.362V76.221Z" fill="#FF6098"/>
<path d="M74.0527 76.221H73.7274V88.5469H74.0527V76.221Z" fill="#FF6098"/>
<path d="M66.5624 82.2213H59.1266V82.5466H66.5624V82.2213Z" fill="#FF6098"/>
<path d="M63.0618 76.221H62.736V88.5469H63.0618V76.221Z" fill="#FF6098"/>
<path d="M88.508 75.3521H68.4785V77.0888H88.508V75.3521Z" fill="#FF6098"/>
<path d="M63.577 89.0737H59.2346V90.0507H63.577V89.0737Z" fill="white"/>
<path d="M87.6781 87.5795V88.5466H83.9852L83.0271 87.5921L82.2496 86.8133C82.2496 86.7844 82.2463 86.7552 82.2423 86.7225H82.2589C81.8422 86.4291 81.5715 85.9443 81.5715 85.3936C81.5715 84.4954 82.2977 83.7654 83.2003 83.7654C83.5939 83.7654 83.956 83.9056 84.236 84.1363L84.2644 84.1626L84.4314 84.3284L84.4577 84.3585L87.6781 87.5795Z" fill="#A0EAF1"/>
<g opacity="0.5">
<path opacity="0.5" d="M73.9105 88.5469H71.4945L69.2765 86.3266V83.9161L73.9105 88.5469Z" fill="white"/>
</g>
<path d="M75.5189 85.3852C75.5189 85.933 75.2482 86.4177 74.8315 86.7144C74.5643 86.9033 74.2417 87.0139 73.8904 87.0139C73.542 87.0139 73.213 86.9033 72.949 86.7144C72.5323 86.4212 72.2622 85.9362 72.2622 85.3852C72.2622 84.487 72.9884 83.757 73.8904 83.757C74.2843 83.757 74.6458 83.8971 74.9261 84.1284L74.955 84.1541C75.0143 84.2066 75.0695 84.2621 75.1215 84.3205L75.1478 84.35C75.3784 84.6298 75.5189 84.9918 75.5189 85.3852Z" fill="#006B00"/>
<path d="M74.0516 84.7299H73.7257V87.2846H74.0516V84.7299Z" fill="#3D2323"/>
<path d="M73.994 86.4772L73.1425 85.6257L72.9124 85.8557L73.7639 86.7072L73.994 86.4772Z" fill="#3D2323"/>
<path d="M74.7707 85.2649L74.5404 85.0352L73.772 85.8054L74.0022 86.0351L74.7707 85.2649Z" fill="#3D2323"/>
<path d="M74.8441 86.7144C74.8152 87.082 74.7921 87.3591 74.7696 87.6362C74.7465 87.9133 74.7273 88.1861 74.6952 88.5575V88.5607H73.0822C73.0503 88.1899 73.0308 87.9133 73.0077 87.6362C72.9881 87.3822 72.9654 87.1314 72.9394 86.8055C72.9394 86.776 72.9361 86.7474 72.9332 86.7141H74.8441V86.7144Z" fill="#EAA42D"/>
<path d="M84.8269 85.3852C84.8269 85.933 84.5574 86.4177 84.1407 86.7144C83.873 86.9033 83.5509 87.0139 83.1993 87.0139C82.8498 87.0139 82.5216 86.9033 82.2579 86.7144C81.8404 86.4212 81.5706 85.9362 81.5706 85.3852C81.5706 84.487 82.2968 83.757 83.199 83.757C83.5927 83.757 83.9547 83.8971 84.2339 84.1284L84.2634 84.1541C84.3221 84.2066 84.3778 84.2621 84.4301 84.3205L84.4564 84.35C84.6874 84.6298 84.8269 84.9918 84.8269 85.3852Z" fill="#006B00"/>
<path d="M83.3602 84.7299H83.0343V87.2846H83.3602V84.7299Z" fill="#3D2323"/>
<path d="M83.3049 86.4774L82.4539 85.6259L82.2238 85.8558L83.0748 86.7073L83.3049 86.4774Z" fill="#3D2323"/>
<path d="M84.0722 85.273L83.8419 85.0432L83.0735 85.8135L83.3038 86.0433L84.0722 85.273Z" fill="#3D2323"/>
<path d="M84.153 86.7144C84.1235 87.082 84.1004 87.3591 84.0785 87.6362C84.0555 87.9133 84.0356 88.1861 84.0029 88.5575V88.5607H82.3911C82.3586 88.1899 82.3385 87.9133 82.3166 87.6362C82.2967 87.3822 82.2737 87.1314 82.2474 86.8055C82.2474 86.776 82.2442 86.7474 82.241 86.7141H84.153V86.7144Z" fill="#EAA42D"/>
<path d="M69.8622 75.3521H68.4624V77.0888H69.8622V75.3521Z" fill="#FF3C81"/>
<path d="M72.5233 75.3521H71.1234V77.0888H72.5233V75.3521Z" fill="#FF3C81"/>
<path d="M75.1851 75.3521H73.7847V77.0888H75.1851V75.3521Z" fill="#FF3C81"/>
<path d="M77.8453 75.3521H76.4454V77.0888H77.8453V75.3521Z" fill="#FF3C81"/>
<path d="M80.5077 75.3521H79.1067V77.0888H80.5077V75.3521Z" fill="#FF3C81"/>
<path d="M83.1675 75.3521H81.7688V77.0888H83.1675V75.3521Z" fill="#FF3C81"/>
<path d="M85.8302 75.3521H84.4292V77.0888H85.8302V75.3521Z" fill="#FF3C81"/>
<path d="M88.4913 75.3521H87.0914V77.0888H88.4913V75.3521Z" fill="#FF3C81"/>
<path d="M88.4788 75.352C87.8626 75.352 87.2711 75.352 86.699 75.352C86.127 75.352 85.5751 75.352 85.0399 75.352C84.5038 75.352 83.9852 75.352 83.4786 75.352C82.9716 75.352 82.4785 75.352 81.9937 75.352C81.5099 75.352 81.0345 75.352 80.5644 75.352C80.0954 75.352 79.6306 75.352 79.1678 75.352C78.7049 75.352 78.2442 75.352 77.7816 75.352C77.3188 75.352 76.8551 75.352 76.385 75.352C75.9149 75.352 75.4395 75.352 74.9554 75.352C74.4709 75.352 73.9769 75.352 73.4705 75.352C72.9642 75.352 72.4465 75.352 71.9107 75.352C71.3749 75.352 70.823 75.352 70.251 75.352C69.6792 75.352 69.0873 75.352 68.4718 75.352C68.5883 75.0045 68.6753 74.7444 68.7629 74.4836C68.8505 74.2228 68.9375 73.9627 69.0546 73.6152C69.6827 73.6152 70.2845 73.6152 70.8642 73.6152C71.4444 73.6152 72.0032 73.6152 72.5443 73.6152C73.0848 73.6152 73.6084 73.6152 74.1185 73.6152C74.6286 73.6152 75.1259 73.6152 75.6138 73.6152C76.1026 73.6152 76.5812 73.6152 77.0578 73.6152C77.5331 73.6152 78.0033 73.6152 78.4745 73.6152C78.9458 73.6152 79.4168 73.6152 79.8922 73.6152C80.3676 73.6152 80.8471 73.6152 81.335 73.6152C81.8241 73.6152 82.3214 73.6152 82.8324 73.6152C83.3425 73.6152 83.866 73.6152 84.4065 73.6152C84.9479 73.6152 85.5053 73.6152 86.0855 73.6152C86.6657 73.6152 87.2681 73.6152 87.8956 73.6152C88.013 73.9624 88.1012 74.2228 88.1885 74.4836C88.2752 74.7444 88.3623 75.0048 88.4788 75.352Z" fill="#FF959D"/>
<path d="M69.8702 75.352C69.3107 75.352 69.0307 75.352 68.4712 75.352C68.5877 75.0045 68.6747 74.7444 68.7623 74.4836C68.8499 74.2228 68.9369 73.9627 69.054 73.6152C69.5808 73.6152 69.8442 73.6152 70.3709 73.6152C70.2708 73.9624 70.1957 74.2228 70.1207 74.4836C70.0459 74.7444 69.9703 75.0048 69.8702 75.352Z" fill="#FF646E"/>
<path d="M72.5283 75.352C71.9691 75.352 71.6888 75.352 71.129 75.352C71.2146 75.0045 71.2797 74.7438 71.3442 74.483C71.4082 74.2228 71.4724 73.9627 71.558 73.6152C72.0847 73.6152 72.3481 73.6152 72.8749 73.6152C72.8057 73.9624 72.7531 74.2228 72.7012 74.4836C72.6489 74.7444 72.5975 75.0048 72.5283 75.352Z" fill="#FF646E"/>
<path d="M75.1863 75.352C74.6266 75.352 74.3463 75.352 73.7865 75.352C73.8417 75.0045 73.8826 74.7444 73.9234 74.4836C73.9643 74.2228 74.0058 73.9627 74.0604 73.6152C74.5877 73.6152 74.8511 73.6152 75.3785 73.6152C75.3396 73.9624 75.3113 74.2228 75.2818 74.4836C75.2535 74.7444 75.2252 75.0048 75.1863 75.352Z" fill="#FF646E"/>
<path d="M77.8444 75.352C77.2852 75.352 77.0049 75.352 76.4457 75.352C76.4687 75.0045 76.4866 74.7444 76.5044 74.4836C76.5222 74.2228 76.54 73.9627 76.5642 73.6152C77.091 73.6152 77.3535 73.6152 77.8803 73.6152C77.873 73.9624 77.8677 74.2228 77.8625 74.4842C77.8558 74.7444 77.8517 75.0048 77.8444 75.352Z" fill="#FF646E"/>
<path d="M80.5025 75.352C79.9433 75.352 79.6641 75.352 79.1047 75.352C79.0974 75.0045 79.0909 74.7444 79.0857 74.4842C79.0804 74.2228 79.0752 73.9627 79.0679 73.6152C79.5935 73.6152 79.858 73.6152 80.3848 73.6152C80.409 73.9624 80.4268 74.2228 80.4435 74.4836C80.4616 74.7444 80.4794 75.0048 80.5025 75.352Z" fill="#FF646E"/>
<path d="M83.1614 75.352C82.6022 75.352 82.3231 75.352 81.7636 75.352C81.7248 75.0045 81.6953 74.7444 81.667 74.4836C81.6386 74.2228 81.6091 73.9627 81.5703 73.6152C82.0971 73.6152 82.3616 73.6152 82.8884 73.6152C82.943 73.9624 82.9839 74.2228 83.0239 74.4836C83.0651 74.7444 83.1071 75.0048 83.1614 75.352Z" fill="#FF646E"/>
<path d="M85.8206 75.352C85.2603 75.352 84.9811 75.352 84.4219 75.352C84.3527 75.0045 84.3002 74.7444 84.2488 74.4842C84.1974 74.2228 84.144 73.9627 84.0745 73.6152C84.6012 73.6152 84.8658 73.6152 85.3926 73.6152C85.4775 73.9624 85.5426 74.2228 85.6066 74.4836C85.6717 74.7444 85.7345 75.0048 85.8206 75.352Z" fill="#FF646E"/>
<path d="M88.4787 75.352C87.9195 75.352 87.6404 75.352 87.0809 75.352C86.9802 75.0045 86.9037 74.7444 86.8292 74.4836C86.7536 74.2228 86.6791 73.9627 86.5784 73.6152C87.1051 73.6152 87.3685 73.6152 87.8953 73.6152C88.0127 73.9624 88.1009 74.2228 88.1882 74.4836C88.2752 74.7444 88.3622 75.0048 88.4787 75.352Z" fill="#FF646E"/>
<path d="M89.5994 71.7695H56.4515V72.7182H89.5994V71.7695Z" fill="#FF6098"/>
<path opacity="0.7" d="M124.634 67.9904H110.111V92.5091H124.634V67.9904Z" fill="#808080"/>
<path d="M124.318 67.6754H109.796V92.194H124.318V67.6754Z" fill="white"/>
<path d="M113.168 69.0383H113.576L113.832 70.0887L114.087 69.0383H114.494L114.638 70.576H114.348L114.247 69.5499L113.999 70.576H113.671L113.413 69.5499L113.323 70.576H113.032L113.168 69.0383Z" fill="#9B8E8E"/>
<path d="M114.991 69.0381L115.291 69.7752L115.619 69.0381H115.939L115.433 70.099V70.5758H115.139V70.099L114.671 69.0381H114.991Z" fill="#9B8E8E"/>
<path d="M116.02 69.4227C116.02 69.1178 116.2 69.0291 116.435 69.0256C116.656 69.0212 116.908 69.0504 117.03 69.0866V69.3179C116.895 69.3059 116.592 69.2966 116.516 69.2966C116.388 69.2936 116.313 69.3027 116.313 69.4458V69.5211C116.313 69.6429 116.36 69.6691 116.479 69.6691H116.722C117.023 69.6691 117.085 69.9065 117.085 70.0765V70.1787C117.085 70.5279 116.868 70.5927 116.66 70.5927C116.398 70.5927 116.226 70.5767 116.067 70.53V70.2987C116.151 70.3072 116.407 70.3221 116.603 70.3221C116.691 70.3221 116.792 70.3075 116.792 70.1898V70.1068C116.792 70.0192 116.765 69.9632 116.653 69.9632H116.417C116.046 69.9632 116.02 69.6896 116.02 69.5559V69.4227H116.02Z" fill="#9B8E8E"/>
<path d="M117.284 69.0381H117.578V69.6966H118.105V69.0381H118.399V70.5758H118.105V69.9676H117.578V70.5758H117.284V69.0381Z" fill="#9B8E8E"/>
<path d="M119.216 69.0273C119.579 69.0273 119.833 69.0968 119.833 69.8172C119.833 70.4958 119.594 70.584 119.216 70.584C118.838 70.584 118.598 70.5165 118.598 69.8172C118.598 69.0968 118.863 69.0273 119.216 69.0273ZM119.216 70.313C119.463 70.313 119.538 70.2321 119.538 69.8175C119.538 69.3386 119.449 69.2986 119.216 69.2986C118.989 69.2986 118.891 69.3281 118.891 69.8175C118.892 70.2371 118.954 70.313 119.216 70.313Z" fill="#9B8E8E"/>
<path d="M120.012 69.0381H120.673C120.865 69.0381 121.099 69.0983 121.099 69.5124C121.099 69.9816 120.849 70.0158 120.673 70.0076C120.589 70.0041 120.316 69.972 120.306 69.9655V70.5758H120.011V69.0381H120.012ZM120.65 69.7483C120.743 69.7483 120.803 69.7004 120.803 69.5156C120.802 69.3342 120.724 69.2998 120.65 69.2998H120.306V69.7483H120.65Z" fill="#9B8E8E"/>
<path d="M122.774 71.1338H111.341V72.1853H122.774V71.1338Z" fill="#B4A5A5"/>
<path d="M122.774 72.7182H111.341V73.7694H122.774V72.7182Z" fill="#B4A5A5"/>
<path d="M123.398 74.5175H110.716C110.68 74.5175 110.65 74.4883 110.65 74.4518C110.65 74.4156 110.68 74.3861 110.716 74.3861H123.398C123.435 74.3861 123.464 74.4156 123.464 74.4518C123.464 74.4886 123.435 74.5175 123.398 74.5175Z" fill="#9B8E8E"/>
<path d="M116.772 75.2405H110.716V76.3577H116.772V75.2405Z" fill="#B4A5A5"/>
<path d="M116.772 77.0804H110.716V78.1975H116.772V77.0804Z" fill="#B4A5A5"/>
<path d="M116.772 78.9203H110.716V80.0375H116.772V78.9203Z" fill="#B4A5A5"/>
<path d="M116.772 80.7601H110.716V81.8773H116.772V80.7601Z" fill="#B4A5A5"/>
<path d="M116.772 82.6001H110.716V83.7173H116.772V82.6001Z" fill="#B4A5A5"/>
<path d="M123.398 75.2405H121.153V76.3577H123.398V75.2405Z" fill="#B4A5A5"/>
<path d="M123.398 77.0804H121.153V78.1975H123.398V77.0804Z" fill="#B4A5A5"/>
<path d="M123.398 78.9203H121.153V80.0375H123.398V78.9203Z" fill="#B4A5A5"/>
<path d="M123.398 80.7601H121.153V81.8773H123.398V80.7601Z" fill="#B4A5A5"/>
<path d="M123.398 82.6001H121.153V83.7173H123.398V82.6001Z" fill="#B4A5A5"/>
<path d="M123.398 84.5716H110.716C110.68 84.5716 110.65 84.5421 110.65 84.5059C110.65 84.4697 110.68 84.4402 110.716 84.4402H123.398C123.435 84.4402 123.464 84.4697 123.464 84.5059C123.464 84.5421 123.435 84.5716 123.398 84.5716Z" fill="#9B8E8E"/>
<path d="M116.772 85.2617H110.716V86.5966H116.772V85.2617Z" fill="#B4A5A5"/>
<path d="M123.398 85.2617H121.153V86.5966H123.398V85.2617Z" fill="#B4A5A5"/>
<path d="M123.398 89.4016H110.716V90.8143H123.398V89.4016Z" fill="#9B8E8E"/>
<path opacity="0.7" d="M135.153 61.5918V60.599C135.153 59.8302 134.53 59.2068 133.761 59.2068H123.458C122.689 59.2068 122.066 59.8302 122.066 60.599V61.5918C122.097 61.5898 122.127 61.5825 122.159 61.5825H122.159C121.39 61.5825 120.767 62.2059 120.767 62.9748V82.0572C120.767 82.8264 121.39 83.4495 122.159 83.4495H123.624V85.259C123.624 86.0278 124.247 86.6513 125.017 86.6513H132.203C132.972 86.6513 133.595 86.0281 133.595 85.259V83.4495H135.061C135.83 83.4495 136.453 82.8261 136.453 82.0572V62.9748C136.453 62.2375 135.878 61.64 135.153 61.5918Z" fill="#808080"/>
<path d="M136.138 81.7428C136.138 82.5119 135.515 83.1351 134.746 83.1351H121.844C121.075 83.1351 120.452 82.5116 120.452 81.7428V62.6603C120.452 61.8912 121.075 61.2681 121.844 61.2681H134.746C135.515 61.2681 136.138 61.8915 136.138 62.6603V81.7428Z" fill="#494949"/>
<path d="M121.844 61.2677H134.745C134.777 61.2677 134.806 61.275 134.838 61.2771V60.2843C134.838 59.5154 134.214 58.892 133.446 58.892H123.143C122.374 58.892 121.751 59.5154 121.751 60.2843V61.2771C121.782 61.275 121.812 61.2677 121.844 61.2677Z" fill="#535353"/>
<path d="M135.395 62.3899H121.194V68.4396H135.395V62.3899Z" fill="#535353"/>
<path d="M132.874 63.1027H121.968V67.7271H132.874V63.1027Z" fill="#DFD9FF"/>
<path d="M134.839 63.1027H133.431V63.8986H134.839V63.1027Z" fill="#A19494"/>
<path d="M134.839 64.3787H133.431V65.1747H134.839V64.3787Z" fill="#A19494"/>
<path d="M134.839 65.6553H133.431V66.451H134.839V65.6553Z" fill="#A19494"/>
<path d="M134.839 66.9313H133.431V67.727H134.839V66.9313Z" fill="#A19494"/>
<path d="M134.91 69.8853H132V72.0136H134.91V69.8853Z" fill="#FFC330"/>
<path d="M134.91 72.5211H132V74.6495H134.91V72.5211Z" fill="#FF698C"/>
<path d="M134.91 75.1567H132V79.9213H134.91V75.1567Z" fill="#FBE6E6"/>
<path d="M124.66 69.8853H121.75V72.0136H124.66V69.8853Z" fill="#A19494"/>
<path d="M128.076 69.8853H125.166V72.0136H128.076V69.8853Z" fill="#A19494"/>
<path d="M131.493 69.8853H128.583V72.0136H131.493V69.8853Z" fill="#A19494"/>
<path d="M124.66 72.5211H121.75V74.6495H124.66V72.5211Z" fill="#A19494"/>
<path d="M128.076 72.5211H125.166V74.6495H128.076V72.5211Z" fill="#A19494"/>
<path d="M131.493 72.5211H128.583V74.6495H131.493V72.5211Z" fill="#A19494"/>
<path d="M124.66 75.1567H121.75V77.2851H124.66V75.1567Z" fill="#A19494"/>
<path d="M128.076 75.1567H125.166V77.2851H128.076V75.1567Z" fill="#A19494"/>
<path d="M131.493 75.1567H128.583V77.2857H131.493V75.1567Z" fill="#A19494"/>
<path d="M124.66 77.7926H121.75V79.921H124.66V77.7926Z" fill="#A19494"/>
<path d="M128.076 77.7926H125.166V79.921H128.076V77.7926Z" fill="#A19494"/>
<path d="M131.493 77.7926H128.583V79.9213H131.493V77.7926Z" fill="#A19494"/>
<path d="M133.506 81.7948H123.084V82.3169H133.506V81.7948Z" fill="#3B3636"/>
<path d="M123.31 82.16V84.9448C123.31 85.7137 123.933 86.3371 124.702 86.3371H131.888C132.657 86.3371 133.281 85.7137 133.281 84.9448V82.16H123.31Z" fill="#FF6489"/>
<path d="M129.817 82.16H128.586V84.8231H129.817V82.16Z" fill="#FBE6E6"/>
<path d="M132.132 82.16H130.901V84.8231H132.132V82.16Z" fill="#FBE6E6"/>
<path d="M125.936 85.1533C126.666 85.1533 127.259 84.5613 127.259 83.8309C127.259 83.1005 126.666 82.5084 125.936 82.5084C125.206 82.5084 124.614 83.1005 124.614 83.8309C124.614 84.5613 125.206 85.1533 125.936 85.1533Z" fill="#4A398B"/>
<path d="M124.655 82.16C124.796 82.7385 125.314 83.1698 125.936 83.1698C126.557 83.1698 127.076 82.7388 127.217 82.16H124.655Z" fill="#A19494"/>
<path opacity="0.5" d="M132.874 66.5576V63.1027H129.419L132.874 66.5576Z" fill="white"/>
<path opacity="0.5" d="M121.968 64.8521V67.7271H124.843L121.968 64.8521Z" fill="white"/>
</g>
<defs>
<clipPath id="clip0_426_16300">
<rect width="146" height="146" fill="white"/>
</clipPath>
</defs>
</svg>
