<svg width="80" height="82" viewBox="0 0 80 82" fill="none" xmlns="http://www.w3.org/2000/svg">
<g clip-path="url(#clip0_1457_5339)">
<path d="M42.5814 82C41.9619 82 41.3427 81.8423 40.7903 81.5265L2.97097 59.9144C2.69545 59.7569 2.53085 59.475 2.53085 59.16C2.53085 58.845 2.69545 58.5631 2.97097 58.4056L26.6543 44.8715L26.8381 44.9766L66.2648 67.5074C66.5403 67.6649 66.7049 67.9468 66.7049 68.2618C66.7049 68.5768 66.5403 68.8587 66.2648 69.0162L44.3728 81.5265C43.8201 81.8423 43.2006 82 42.5814 82ZM26.6541 45.7115L3.3385 59.0356C3.27524 59.0717 3.26593 59.1291 3.26593 59.16C3.26593 59.1909 3.27551 59.2484 3.3385 59.2845L41.1578 80.8968C42.0361 81.3988 43.1269 81.3988 44.005 80.8968L65.8969 68.3865C65.9599 68.3504 65.9695 68.2929 65.9695 68.262C65.9695 68.2311 65.9599 68.1737 65.8969 68.1376L26.6541 45.7115Z" fill="url(#paint0_linear_1457_5339)"/>
<path d="M26.6053 35.9407L31.8741 5.0006L31.4504 4.82413L32.0869 4.46278L32.0858 4.46658C32.2093 4.38525 32.384 4.39013 32.5763 4.50019L74.6847 28.5636C75.0306 28.7612 75.2921 29.2679 75.2313 29.6222L69.9212 60.8084C69.8933 60.9711 69.8122 61.0787 69.6994 61.1259L69.6999 61.1261L69.0769 61.4823L68.9698 60.9068L69.0054 60.9174L27.1523 36.9996C26.8063 36.802 26.5448 36.295 26.6053 35.9407Z" fill="url(#paint1_linear_1457_5339)"/>
<path d="M74.4505 29.4093L75.1429 29.1063C75.2207 29.2817 75.2587 29.4663 75.2319 29.6221L69.9212 60.8084C69.8933 60.971 69.8122 61.0787 69.6994 61.1258L69.6999 61.1261L69.0769 61.4823L68.9698 60.9068L69.0054 60.9174L66.8875 59.707L74.4505 29.4093Z" fill="url(#paint2_linear_1457_5339)"/>
<path d="M26.4917 37.3747L68.6001 61.4381C68.9251 61.6238 69.2037 61.5167 69.2606 61.1836L74.5713 29.9973C74.6321 29.643 74.3703 29.1361 74.0247 28.9385L31.916 4.87506C31.5909 4.68937 31.3126 4.79672 31.2554 5.12987L25.9447 36.3159C25.8839 36.6702 26.1458 37.1771 26.4917 37.3747Z" fill="#242993"/>
<g opacity="0.51">
<path opacity="0.51" d="M32.4665 6.86566L73.0557 30.0611L68.0225 59.4319L27.4604 36.2522L32.4665 6.86566Z" fill="#4553C7"/>
</g>
<path d="M0.0221863 52.1393L2.32025 53.3272L25.363 40.159C25.7486 39.9386 26.4218 39.9662 26.8671 40.2208L66.6096 62.932C66.99 62.7214 68.7239 61.896 68.7239 61.896L67.8828 64.0654C67.8828 64.0654 67.8801 64.0632 67.8795 64.0627C67.8447 64.1592 67.77 64.2492 67.6443 64.321L43.3756 78.1897C42.99 78.4101 42.3166 78.3824 41.8715 78.1279L1.2023 54.8872C1.01936 54.7829 0.907615 54.6563 0.861057 54.5283L0.858044 54.5305L0.0221863 52.1393Z" fill="url(#paint3_linear_1457_5339)"/>
<path d="M0.377384 52.5134L42.0577 76.332C42.514 76.5928 43.2042 76.621 43.5991 76.3951L68.4713 62.1817C68.8665 61.9559 68.817 61.5614 68.3607 61.3007L26.6803 37.4823C26.2241 37.2215 25.5339 37.1933 25.139 37.4192L0.26674 51.6324C-0.128458 51.8582 -0.0788869 52.2526 0.377384 52.5134Z" fill="url(#paint4_linear_1457_5339)"/>
<path d="M54.6296 71.1796V70.7272C54.6296 70.6844 54.6033 70.6646 54.5707 70.6833L52.9584 71.6047C52.9258 71.6234 52.8995 71.673 52.8995 71.7158V72.1682C52.8995 72.2111 52.9258 72.2308 52.9584 72.2121L54.5707 71.2908C54.6033 71.2723 54.6296 71.2224 54.6296 71.1796Z" fill="#2859CB"/>
<path d="M52.2187 72.5575V72.1051C52.2187 72.0622 52.1924 72.0424 52.1598 72.0611L50.5475 72.9825C50.5149 73.001 50.4886 73.0508 50.4886 73.0937V73.5461C50.4886 73.5889 50.5149 73.6087 50.5475 73.59L52.1598 72.6686C52.1924 72.6502 52.2187 72.6003 52.2187 72.5575Z" fill="#2859CB"/>
<path d="M61.9869 60.8504L27.3505 41.0573C27.1197 40.9253 26.8351 40.9256 26.6042 41.0576L14.2704 48.1208C14.0932 48.2222 14.0935 48.4754 14.2707 48.5765L48.8909 68.3606C49.1215 68.4924 49.4057 68.4924 49.6363 68.3606L61.9869 61.3064C62.1641 61.2052 62.1643 60.9518 61.9869 60.8504Z" fill="#ADC8FF"/>
<path d="M61.9869 61.3064L61.8628 61.3771L27.3505 41.6548C27.1196 41.5228 26.8351 41.523 26.6042 41.655L14.3944 48.6472L14.2707 48.5765C14.0935 48.4751 14.0935 48.2222 14.2704 48.1208L26.6042 41.0576C26.8351 40.9256 27.1196 40.9253 27.3505 41.0573L61.9869 60.8507C62.1643 60.9518 62.1641 61.2052 61.9869 61.3064Z" fill="#91AFFF"/>
<path d="M25.6736 42.8464L55.7601 60.0396L57.0977 59.2751L27.0112 42.082L25.6736 42.8464Z" fill="#242993"/>
<path d="M22.394 44.7206L50.6138 60.8474L51.9516 60.0827L23.7316 43.9562L22.394 44.7206Z" fill="#242993"/>
<path d="M20.2578 45.9413L53.4837 64.9288L54.8216 64.1643L21.5956 45.1769L20.2578 45.9413Z" fill="#242993"/>
<path d="M18.1216 47.162L51.3478 66.1494L52.6854 65.385L19.4594 46.3975L18.1216 47.162Z" fill="#242993"/>
<path d="M15.9857 48.3827L49.2116 67.3701L50.5494 66.6057L17.3232 47.6182L15.9857 48.3827Z" fill="#242993"/>
<path d="M57.5781 61.0787L58.9157 61.8431L60.2536 61.0787L58.9157 60.3142L57.5781 61.0787Z" fill="#242993"/>
<path d="M52.8596 62.1304L55.6361 63.7173L56.9739 62.9526L54.1972 61.366L52.8596 62.1304Z" fill="#242993"/>
<path d="M26.0171 65.6404L16.6777 60.3034C16.3127 60.0946 16.3127 59.7566 16.6777 59.5479L23.0642 55.8983C23.4292 55.6896 24.0211 55.6899 24.3861 55.8983L33.7255 61.2353C34.0905 61.4441 34.0905 61.7821 33.7255 61.9908L27.339 65.6404C26.9737 65.8491 26.3818 65.8491 26.0171 65.6404Z" fill="url(#paint5_linear_1457_5339)"/>
<path d="M33.7252 61.5447L24.3859 56.2077C24.0208 55.9989 23.4289 55.9989 23.0639 56.2077L16.6774 59.8572C16.5649 59.9217 16.4912 59.999 16.4479 60.0803C16.3513 59.8979 16.4249 59.6924 16.6774 59.5482L23.0639 55.8986C23.4289 55.6899 24.0208 55.6902 24.3859 55.8986L33.7252 61.2356C33.9777 61.3798 34.0511 61.5853 33.9547 61.768C33.9114 61.6862 33.8377 61.6089 33.7252 61.5447Z" fill="#91AFFF"/>
<g opacity="0.11">
<g opacity="0.11">
<path opacity="0.11" d="M26.6393 37.4333L68.3196 61.2519C68.7759 61.5127 69.4661 61.5409 69.861 61.3151L94.7333 47.1016C95.1285 46.8758 95.0789 46.4814 94.6226 46.2206L52.9423 22.402C52.486 22.1412 51.7958 22.113 51.4009 22.3388L26.5286 36.5523C26.1334 36.7781 26.183 37.1725 26.6393 37.4333Z" fill="url(#paint6_linear_1457_5339)"/>
<path opacity="0.11" d="M68.4437 41.7037L59.1044 36.3667C58.7393 36.1579 58.7393 35.8199 59.1044 35.6112L65.4908 31.9616C65.8559 31.7529 66.4477 31.7532 66.8125 31.9616L76.1518 37.2986C76.5169 37.5074 76.5169 37.8454 76.1518 38.0541L69.7654 41.7037C69.4006 41.9121 68.8088 41.9121 68.4437 41.7037Z" fill="url(#paint7_linear_1457_5339)"/>
<path opacity="0.11" d="M76.1518 37.6077L66.8125 32.2707C66.4474 32.0619 65.8556 32.0619 65.4908 32.2707L59.1044 35.9202C58.9918 35.9847 58.9181 36.062 58.8749 36.1433C58.7782 35.9608 58.8518 35.7554 59.1044 35.6112L65.4908 31.9616C65.8559 31.7529 66.4477 31.7532 66.8125 31.9616L76.1518 37.2986C76.4041 37.4428 76.4777 37.6483 76.3813 37.831C76.3381 37.7494 76.2644 37.6722 76.1518 37.6077Z" fill="#91AFFF"/>
<g opacity="0.11">
<path opacity="0.11" d="M80.2574 50.0442L45.6211 30.2508C45.3902 30.1188 45.1057 30.119 44.8748 30.2511L32.541 37.3143C32.3638 37.4157 32.364 37.6689 32.5412 37.77L67.1614 57.5541C67.392 57.6859 67.6763 57.6859 67.9069 57.5541L80.2574 50.4998C80.4346 50.3987 80.4346 50.1453 80.2574 50.0442Z" fill="#ADC8FF"/>
<path opacity="0.11" d="M80.2577 50.5006L80.1336 50.5713L45.6214 30.849C45.3905 30.7169 45.1059 30.7172 44.8751 30.8492L32.6653 37.8414L32.5415 37.7707C32.3643 37.6693 32.3643 37.4164 32.5412 37.315L44.8751 30.2518C45.1059 30.1195 45.3905 30.1195 45.6214 30.2515L80.2577 50.0449C80.4349 50.1457 80.4349 50.3992 80.2577 50.5006Z" fill="#91AFFF"/>
<g opacity="0.11">
<path opacity="0.11" d="M35.7688 36.8325L65.943 54.0759L64.7478 54.759L34.5734 37.5156L35.7688 36.8325Z" fill="#242993"/>
<path opacity="0.11" d="M38.9479 35.0158L67.6281 51.4052L66.4329 52.0884L37.7527 35.6987L38.9479 35.0158Z" fill="#242993"/>
<path opacity="0.11" d="M69.7698 52.6292L72.4483 54.1599L71.2531 54.8431L68.5746 53.3123L69.7698 52.6292Z" fill="#242993"/>
<path opacity="0.11" d="M67.4038 54.9108L69.2691 55.9767L68.0737 56.6598L66.2086 55.5939L67.4038 54.9108Z" fill="#242993"/>
<path opacity="0.11" d="M40.9401 33.8773L74.4404 53.0214L73.2452 53.7045L39.7449 34.5604L40.9401 33.8773Z" fill="#242993"/>
<path opacity="0.11" d="M42.9322 32.7388L76.4326 51.8832L75.2374 52.566L41.7371 33.4219L42.9322 32.7388Z" fill="#242993"/>
<path opacity="0.11" d="M44.9244 31.6005L78.4247 50.7446L77.2295 51.4277L43.7292 32.2836L44.9244 31.6005Z" fill="#242993"/>
</g>
</g>
</g>
</g>
<path d="M69.3036 31.7995L70.1039 32.3061L70.2011 31.7181L69.4006 31.2115L69.3036 31.7995Z" fill="#42FFFF"/>
<path d="M68.6474 35.7764L69.448 36.2831L70.0157 32.8423L69.2152 32.3356L68.6474 35.7764Z" fill="#42FFFF"/>
<path d="M68.3336 37.6786L69.1341 38.185L69.3595 36.819L68.559 36.3126L68.3336 37.6786Z" fill="#42FFFF"/>
<path d="M68.0085 39.6496L68.8087 40.1562L69.0341 38.7903L68.2339 38.2836L68.0085 39.6496Z" fill="#42FFFF"/>
<path d="M67.7962 32.9461L68.5965 33.4527L68.8219 32.0868L68.0214 31.5801L67.7962 32.9461Z" fill="#42FFFF"/>
<path d="M67.3654 35.5571L68.1657 36.0638L68.4968 34.0578L67.6963 33.5511L67.3654 35.5571Z" fill="#42FFFF"/>
<path d="M66.9689 37.9605L67.7694 38.4672L68.0531 36.7466L67.2526 36.24L66.9689 37.9605Z" fill="#42FFFF"/>
<path d="M67.6831 41.6209L68.4837 42.1276L68.7091 40.7616L67.9085 40.2549L67.6831 41.6209Z" fill="#42FFFF"/>
<path d="M68.1098 31.0439L68.9104 31.5506L69.0073 30.9626L68.2071 30.4562L68.1098 31.0439Z" fill="#42FFFF"/>
<path d="M66.7711 43.156L68.1682 44.0403L68.2621 43.4697L66.8651 42.5854L66.7711 43.156Z" fill="#42FFFF"/>
<path opacity="0.5" d="M39.7723 2.75633L36.2777 0.759563V0L39.7723 1.99677V2.75633Z" fill="#42FFFF"/>
<path opacity="0.5" d="M41.5642 3.78047L40.3061 3.06156V2.302L41.5642 3.0209V3.78047Z" fill="#42FFFF"/>
<path opacity="0.5" d="M42.9531 4.57416L42.098 4.08567V3.32611L42.9531 3.81459V4.57416Z" fill="#42FFFF"/>
<path opacity="0.5" d="M38.1816 3.58284L36.2777 2.49473V1.73517L38.1816 2.82328V3.58284Z" fill="#42FFFF"/>
<path opacity="0.5" d="M41.0491 5.22124L38.7157 3.8878V3.12823L41.0491 4.46167V5.22124Z" fill="#42FFFF"/>
<path opacity="0.5" d="M42.4376 6.01498L41.5829 5.52623V4.76666L42.4376 5.25515V6.01498Z" fill="#42FFFF"/>
<path opacity="0.5" d="M43.7593 6.77017L42.9043 6.28141V5.52185L43.7593 6.01061V6.77017Z" fill="#42FFFF"/>
<path d="M37.6553 5.01711L36.2777 4.2299V3.47034L37.6553 4.25755V5.01711Z" fill="#42FFFF"/>
<path d="M38.6601 5.59131L38.1893 5.32212V4.56256L38.6601 4.83174V5.59131Z" fill="#42FFFF"/>
<path opacity="0.5" d="M40.0489 6.3847L39.1939 5.89622V5.13666L40.0489 5.62514V6.3847Z" fill="#42FFFF"/>
<path opacity="0.5" d="M41.3627 8.87052L36.2777 5.96482V5.20526L41.3627 8.11095V8.87052Z" fill="#42FFFF"/>
<path opacity="0.5" d="M43.1546 9.89466L41.8964 9.17576V8.4162L43.1546 9.1351V9.89466Z" fill="#42FFFF"/>
<path opacity="0.5" d="M37.6553 8.48721L36.2777 7.69999V6.94043L37.6553 7.72764V8.48721Z" fill="#42FFFF"/>
<path opacity="0.5" d="M40.8883 10.3349L38.1893 8.79246V8.0329L40.8883 9.57534V10.3349Z" fill="#42FFFF"/>
<path opacity="0.5" d="M42.2771 11.1284L41.4224 10.6399V9.88031L42.2771 10.3688V11.1284Z" fill="#42FFFF"/>
<path opacity="0.5" d="M39.0964 11.0459L36.2777 9.43516V8.6756L39.0964 10.2863V11.0459Z" fill="#42FFFF"/>
<path d="M41.6686 12.5157L39.6304 11.3509V10.5913L41.6686 11.7561V12.5157Z" fill="#42FFFF"/>
<path opacity="0.5" d="M43.5802 13.6081L42.2026 12.8209V12.0613L43.5802 12.8486V13.6081Z" fill="#42FFFF"/>
<path opacity="0.5" d="M37.2297 11.7144L36.2777 11.1703V10.4108L37.2297 10.9546V11.7144Z" fill="#42FFFF"/>
<path opacity="0.5" d="M39.0219 12.7383L37.7637 12.0194V11.2598L39.0219 11.9787V12.7383Z" fill="#42FFFF"/>
<path opacity="0.5" d="M41.5829 14.2018L39.5557 13.0435V12.2839L41.5829 13.4423V14.2018Z" fill="#42FFFF"/>
<path opacity="0.5" d="M39.1939 14.5718L36.2777 12.9053V12.1457L39.1939 13.8123V14.5718Z" fill="#42FFFF"/>
<path opacity="0.5" d="M42.4601 16.4382L39.7279 14.8768V14.1172L42.4601 15.6787V16.4382Z" fill="#42FFFF"/>
<path d="M43.8489 17.2319L42.9941 16.7434V15.9839L43.8489 16.4724V17.2319Z" fill="#42FFFF"/>
<path opacity="0.5" d="M45.1818 17.9937L44.3268 17.5052V16.7454L45.1818 17.2341V17.9937Z" fill="#42FFFF"/>
<path opacity="0.5" d="M38.025 15.6388L36.2777 14.6404V13.8809L38.025 14.8792V15.6388Z" fill="#42FFFF"/>
<path d="M45.3322 5.93364L47.7551 7.31831V6.55874L45.3322 5.17407V5.93364Z" fill="#42FFFF"/>
<path opacity="0.5" d="M45.8509 7.96537L47.7551 9.05348V8.29392L45.8509 7.20581V7.96537Z" fill="#42FFFF"/>
<path opacity="0.5" d="M46.3775 10.0015L47.7551 10.7887V10.0291L46.3775 9.24164V10.0015Z" fill="#42FFFF"/>
<path opacity="0.5" d="M45.7512 11.3786L47.7551 12.5236V11.7641L45.7512 10.619V11.3786Z" fill="#42FFFF"/>
<path opacity="0.5" d="M46.3775 13.4715L47.7551 14.2587V13.4992L46.3775 12.712V13.4715Z" fill="#42FFFF"/>
<path opacity="0.5" d="M46.0078 14.9955L47.7551 15.9939V15.2343L46.0078 14.236V14.9955Z" fill="#42FFFF"/>
<path opacity="0.5" d="M46.8031 17.185L47.7551 17.7291V16.9695L46.8031 16.4255V17.185Z" fill="#42FFFF"/>
<path opacity="0.5" d="M45.9103 18.4101L47.7551 19.464V18.7047L45.9103 17.6505V18.4101Z" fill="#42FFFF"/>
<path opacity="0.5" d="M46.0078 20.2008L47.7551 21.1992V20.4396L46.0078 19.4412V20.2008Z" fill="#42FFFF"/>
<path opacity="0.5" d="M39.3018 16.3685L38.5587 15.944V15.1844L39.3018 15.609V16.3685Z" fill="#42FFFF"/>
<path opacity="0.5" d="M41.5081 17.6293L39.8355 16.6735V15.9139L41.5081 16.8698V17.6293Z" fill="#42FFFF"/>
<path opacity="0.5" d="M53.3227 10.4704L49.8283 8.47337V7.71381L53.3227 9.71084V10.4704Z" fill="#42FFFF"/>
<path opacity="0.5" d="M55.1146 11.4943L53.8564 10.7754V10.0158L55.1146 10.7347V11.4943Z" fill="#42FFFF"/>
<path d="M56.5034 12.288L55.6487 11.7995V11.04L56.5034 11.5285V12.288Z" fill="#42FFFF"/>
<path opacity="0.5" d="M51.7323 11.2966L49.8283 10.2085V9.44897L51.7323 10.5371V11.2966Z" fill="#42FFFF"/>
<path opacity="0.5" d="M54.5994 12.9351L52.2661 11.6017V10.8421L54.5994 12.1755V12.9351Z" fill="#42FFFF"/>
<path d="M55.9883 13.7288L55.1332 13.24V12.4805L55.9883 12.9692V13.7288Z" fill="#42FFFF"/>
<path opacity="0.5" d="M57.31 14.484L56.455 13.9956V13.2357L57.31 13.7245V14.484Z" fill="#42FFFF"/>
<path opacity="0.5" d="M51.2059 12.731L49.8283 11.9438V11.1842L51.2059 11.9714V12.731Z" fill="#42FFFF"/>
<path opacity="0.5" d="M52.2108 13.3051L51.7397 13.0359V12.2764L52.2108 12.5455V13.3051Z" fill="#42FFFF"/>
<path opacity="0.5" d="M53.5995 14.0985L52.7445 13.61V12.8505L53.5995 13.3392V14.0985Z" fill="#42FFFF"/>
<path opacity="0.5" d="M54.913 16.5846L49.8283 13.6786V12.9191L54.913 15.825V16.5846Z" fill="#42FFFF"/>
<path opacity="0.5" d="M56.705 17.6085L55.4471 16.8896V16.13L56.705 16.8489V17.6085Z" fill="#42FFFF"/>
<path opacity="0.5" d="M51.2059 16.201L49.8283 15.4138V14.6542L51.2059 15.4415V16.201Z" fill="#42FFFF"/>
<path opacity="0.5" d="M54.439 18.0487L51.7397 16.5063V15.7467L54.439 17.2891V18.0487Z" fill="#42FFFF"/>
<path opacity="0.5" d="M55.8278 18.8424L54.9727 18.3537V17.5941L55.8278 18.0829V18.8424Z" fill="#42FFFF"/>
<path d="M52.647 18.7597L49.8283 17.149V16.3894L52.647 18.0002V18.7597Z" fill="#42FFFF"/>
<path opacity="0.5" d="M55.2192 20.2298L53.1808 19.0647V18.3052L55.2192 19.4703V20.2298Z" fill="#42FFFF"/>
<path opacity="0.5" d="M57.1306 21.322L55.753 20.5348V19.7752L57.1306 20.5624V21.322Z" fill="#42FFFF"/>
<path opacity="0.5" d="M50.7803 19.4282L49.8283 18.8841V18.1246L50.7803 18.6686V19.4282Z" fill="#42FFFF"/>
<path opacity="0.5" d="M52.5723 20.4521L51.3141 19.7332V18.9736L52.5723 19.6925V20.4521Z" fill="#42FFFF"/>
<path d="M55.1332 21.9156L53.1063 20.7573V19.9977L55.1332 21.1561V21.9156Z" fill="#42FFFF"/>
<path opacity="0.5" d="M52.7445 22.2857L49.8283 20.6191V19.8595L52.7445 21.5261V22.2857Z" fill="#42FFFF"/>
<path opacity="0.5" d="M56.0107 24.152L53.2783 22.5909V21.8313L56.0107 23.3927V24.152Z" fill="#42FFFF"/>
<path opacity="0.5" d="M57.3995 24.9457L56.5445 24.4573V23.6977L57.3995 24.1862V24.9457Z" fill="#42FFFF"/>
<path opacity="0.5" d="M58.7322 25.7075L57.8774 25.219V24.4595L58.7322 24.948V25.7075Z" fill="#42FFFF"/>
<path opacity="0.5" d="M51.5756 23.3527L49.8283 22.3543V21.5947L51.5756 22.5931V23.3527Z" fill="#42FFFF"/>
<path d="M58.8825 13.6478L61.3055 15.0322V14.2726L58.8825 12.8879V13.6478Z" fill="#42FFFF"/>
<path opacity="0.5" d="M59.4016 15.6792L61.3055 16.7673V16.0077L59.4016 14.9196V15.6792Z" fill="#42FFFF"/>
<path opacity="0.5" d="M59.9279 17.7153L61.3055 18.5025V17.7429L59.9279 16.9557V17.7153Z" fill="#42FFFF"/>
<path opacity="0.5" d="M59.3018 19.0923L61.3055 20.2376V19.4781L59.3018 18.3328V19.0923Z" fill="#42FFFF"/>
<path opacity="0.5" d="M59.9279 21.1853L61.3055 21.9726V21.213L59.9279 20.4258V21.1853Z" fill="#42FFFF"/>
<path opacity="0.5" d="M59.5585 22.7094L61.3055 23.7078V22.9482L59.5585 21.9498V22.7094Z" fill="#42FFFF"/>
<path opacity="0.5" d="M60.3535 24.8988L61.3055 25.4429V24.6833L60.3535 24.1393V24.8988Z" fill="#42FFFF"/>
<path opacity="0.5" d="M59.461 26.1239L61.3055 27.1781V26.4185L59.461 25.3643V26.1239Z" fill="#42FFFF"/>
<path opacity="0.5" d="M59.5585 27.9146L61.3055 28.913V28.1534L59.5585 27.155V27.9146Z" fill="#42FFFF"/>
<path d="M52.8524 24.0824L52.1094 23.6579V22.8983L52.8524 23.3228V24.0824Z" fill="#42FFFF"/>
<path opacity="0.5" d="M55.0587 25.3432L53.3862 24.3876V23.6278L55.0587 24.5836V25.3432Z" fill="#42FFFF"/>
<path opacity="0.5" d="M39.7723 18.3827L36.2777 16.3857V15.6261L39.7723 17.6229V18.3827Z" fill="#42FFFF"/>
<path opacity="0.5" d="M41.5642 19.4066L40.3061 18.6877V17.9281L41.5642 18.647V19.4066Z" fill="#42FFFF"/>
<path opacity="0.5" d="M42.9531 20.2003L42.098 19.7118V18.9522L42.9531 19.4407V20.2003Z" fill="#42FFFF"/>
<path opacity="0.5" d="M38.1816 19.2089L36.2777 18.1208V17.3613L38.1816 18.4494V19.2089Z" fill="#42FFFF"/>
<path opacity="0.5" d="M41.0491 20.8473L38.7157 19.5139V18.7543L41.0491 20.0878V20.8473Z" fill="#42FFFF"/>
<path opacity="0.5" d="M42.4376 21.641L41.5829 21.1523V20.3927L42.4376 20.8815V21.641Z" fill="#42FFFF"/>
<path opacity="0.5" d="M43.7593 22.3963L42.9043 21.9075V21.1479L43.7593 21.6367V22.3963Z" fill="#42FFFF"/>
<path opacity="0.5" d="M37.6553 20.6432L36.2777 19.856V19.0964L37.6553 19.8836V20.6432Z" fill="#42FFFF"/>
<path opacity="0.5" d="M38.6601 21.2173L38.1893 20.9482V20.1886L38.6601 20.4578V21.2173Z" fill="#42FFFF"/>
<path opacity="0.5" d="M40.0489 22.0108L39.1939 21.5223V20.7628L40.0489 21.2512V22.0108Z" fill="#42FFFF"/>
<path opacity="0.5" d="M41.3627 24.4968L36.2777 21.5909V20.8313L41.3627 23.737V24.4968Z" fill="#42FFFF"/>
<path opacity="0.5" d="M43.1546 25.5207L41.8964 24.8018V24.0422L43.1546 24.7611V25.5207Z" fill="#42FFFF"/>
<path opacity="0.5" d="M37.6553 24.1132L36.2777 23.326V22.5665L37.6553 23.3537V24.1132Z" fill="#42FFFF"/>
<path opacity="0.5" d="M40.8883 25.9609L38.1893 24.4185V23.6589L40.8883 25.2014V25.9609Z" fill="#42FFFF"/>
<path opacity="0.5" d="M42.2771 26.7547L41.4224 26.2659V25.5063L42.2771 25.9951V26.7547Z" fill="#42FFFF"/>
<path opacity="0.5" d="M39.0964 26.672L36.2777 25.0613V24.3017L39.0964 25.9124V26.672Z" fill="#42FFFF"/>
<path opacity="0.5" d="M41.6686 28.1418L39.6304 26.977V26.2174L41.6686 27.3822V28.1418Z" fill="#42FFFF"/>
<path opacity="0.5" d="M43.5802 29.2342L42.2026 28.447V27.6874L43.5802 28.4747V29.2342Z" fill="#42FFFF"/>
<path opacity="0.5" d="M37.2297 27.3405L36.2777 26.7964V26.0369L37.2297 26.5806V27.3405Z" fill="#42FFFF"/>
<path opacity="0.5" d="M39.0219 28.3643L37.7637 27.6454V26.8859L39.0219 27.6048V28.3643Z" fill="#42FFFF"/>
<path opacity="0.5" d="M41.5829 29.8279L39.5557 28.6696V27.91L41.5829 29.0684V29.8279Z" fill="#42FFFF"/>
<path opacity="0.5" d="M39.1939 30.1979L36.2777 28.5314V27.7718L39.1939 29.4384V30.1979Z" fill="#42FFFF"/>
<path opacity="0.5" d="M42.4601 32.0646L39.7279 30.5029V29.7433L42.4601 31.3048V32.0646Z" fill="#42FFFF"/>
<path opacity="0.5" d="M43.8489 32.858L42.9941 32.3695V31.6099L43.8489 32.0984V32.858Z" fill="#42FFFF"/>
<path opacity="0.5" d="M45.1818 33.6198L44.3268 33.1313V32.3717L45.1818 32.8602V33.6198Z" fill="#42FFFF"/>
<path opacity="0.5" d="M38.025 31.2649L36.2777 30.2665V29.507L38.025 30.5053V31.2649Z" fill="#42FFFF"/>
<path opacity="0.5" d="M45.3322 21.5597L47.7551 22.9444V22.1848L45.3322 20.8002V21.5597Z" fill="#42FFFF"/>
<path opacity="0.5" d="M45.8509 23.5914L47.7551 24.6795V23.92L45.8509 22.8318V23.5914Z" fill="#42FFFF"/>
<path opacity="0.5" d="M46.3775 25.6275L47.7551 26.4148V25.6552L46.3775 24.868V25.6275Z" fill="#42FFFF"/>
<path opacity="0.5" d="M45.7512 27.0046L47.7551 28.1497V27.3901L45.7512 26.2451V27.0046Z" fill="#42FFFF"/>
<path opacity="0.5" d="M46.3775 29.0976L47.7551 29.8848V29.1252L46.3775 28.338V29.0976Z" fill="#42FFFF"/>
<path opacity="0.5" d="M46.0078 30.6216L47.7551 31.62V30.8604L46.0078 29.8621V30.6216Z" fill="#42FFFF"/>
<path opacity="0.5" d="M46.8031 32.8111L47.7551 33.3552V32.5956L46.8031 32.0516V32.8111Z" fill="#42FFFF"/>
<path opacity="0.5" d="M45.9103 34.0361L47.7551 35.0903V34.3308L45.9103 33.2766V34.0361Z" fill="#42FFFF"/>
<path opacity="0.5" d="M46.0078 35.8269L47.7551 36.8253V36.0657L46.0078 35.0673V35.8269Z" fill="#42FFFF"/>
<path opacity="0.5" d="M39.3018 31.9946L38.5587 31.5701V30.8105L39.3018 31.2351V31.9946Z" fill="#42FFFF"/>
<path opacity="0.5" d="M41.5081 33.2554L39.8355 32.2996V31.5403L41.5081 32.4958V33.2554Z" fill="#42FFFF"/>
<path opacity="0.5" d="M42.8917 39.092L40.0694 37.479V36.7195L42.8917 38.3324V39.092Z" fill="#42FFFF"/>
<path opacity="0.5" d="M44.8247 40.1966L43.713 39.5615V38.8019L44.8247 39.4371V40.1966Z" fill="#42FFFF"/>
<path opacity="0.5" d="M53.3227 26.0965L49.8283 24.0995V23.3399L53.3227 25.3369V26.0965Z" fill="#42FFFF"/>
<path opacity="0.5" d="M55.1146 27.1204L53.8564 26.4015V25.6419L55.1146 26.3608V27.1204Z" fill="#42FFFF"/>
<path opacity="0.5" d="M56.5034 27.9141L55.6487 27.4256V26.666L56.5034 27.1545V27.9141Z" fill="#42FFFF"/>
<path opacity="0.5" d="M51.7323 26.9227L49.8283 25.8346V25.0751L51.7323 26.1632V26.9227Z" fill="#42FFFF"/>
<path opacity="0.5" d="M54.5994 28.5611L52.2661 27.2277V26.4681L54.5994 27.8016V28.5611Z" fill="#42FFFF"/>
<path opacity="0.5" d="M55.9883 29.3549L55.1332 28.8664V28.1068L55.9883 28.5953V29.3549Z" fill="#42FFFF"/>
<path opacity="0.5" d="M57.31 30.1101L56.455 29.6214V28.8618L57.31 29.3506V30.1101Z" fill="#42FFFF"/>
<path opacity="0.5" d="M51.2059 28.357L49.8283 27.5698V26.8102L51.2059 27.5975V28.357Z" fill="#42FFFF"/>
<path opacity="0.5" d="M52.2108 28.9312L51.7397 28.662V27.9024L52.2108 28.1716V28.9312Z" fill="#42FFFF"/>
<path opacity="0.5" d="M53.5995 29.7249L52.7445 29.2361V28.4766L53.5995 28.9653V29.7249Z" fill="#42FFFF"/>
<path opacity="0.5" d="M54.913 32.2107L49.8283 29.3047V28.5452L54.913 31.4511V32.2107Z" fill="#42FFFF"/>
<path opacity="0.5" d="M56.705 33.2346L55.4471 32.5157V31.7561L56.705 32.475V33.2346Z" fill="#42FFFF"/>
<path opacity="0.5" d="M51.2059 31.8271L49.8283 31.0399V30.2803L51.2059 31.0675V31.8271Z" fill="#42FFFF"/>
<path opacity="0.5" d="M54.439 33.6747L51.7397 32.1323V31.3727L54.439 32.9152V33.6747Z" fill="#42FFFF"/>
<path opacity="0.5" d="M55.8278 34.4685L54.9727 33.9798V33.2202L55.8278 33.709V34.4685Z" fill="#42FFFF"/>
<path opacity="0.5" d="M52.647 34.3858L49.8283 32.7751V32.0155L52.647 33.6263V34.3858Z" fill="#42FFFF"/>
<path opacity="0.5" d="M55.2192 35.8559L53.1808 34.6908V33.9312L55.2192 35.0963V35.8559Z" fill="#42FFFF"/>
<path opacity="0.5" d="M57.1306 36.948L55.753 36.1608V35.4012L57.1306 36.1885V36.948Z" fill="#42FFFF"/>
<path opacity="0.5" d="M50.7803 35.0543L49.8283 34.5102V33.7507L50.7803 34.2947V35.0543Z" fill="#42FFFF"/>
<path opacity="0.5" d="M52.5723 36.0781L51.3141 35.3592V34.5997L52.5723 35.3186V36.0781Z" fill="#42FFFF"/>
<path opacity="0.5" d="M55.1332 37.5417L53.1063 36.3834V35.6238L55.1332 36.7822V37.5417Z" fill="#42FFFF"/>
<path opacity="0.5" d="M52.7445 37.9117L49.8283 36.2454V35.4858L52.7445 37.1522V37.9117Z" fill="#42FFFF"/>
<path opacity="0.5" d="M56.0107 39.7784L53.2783 38.217V37.4572L56.0107 39.0188V39.7784Z" fill="#42FFFF"/>
<path opacity="0.5" d="M57.3995 40.5718L56.5445 40.0834V39.3238L57.3995 39.8123V40.5718Z" fill="#42FFFF"/>
<path opacity="0.5" d="M58.7322 41.3336L57.8774 40.8451V40.0855L58.7322 40.574V41.3336Z" fill="#42FFFF"/>
<path opacity="0.5" d="M51.5756 38.979L49.8283 37.9803V37.2208L51.5756 38.2194V38.979Z" fill="#42FFFF"/>
<path opacity="0.5" d="M58.8825 29.2738L61.3055 30.6582V29.8986L58.8825 28.5142V29.2738Z" fill="#42FFFF"/>
<path opacity="0.5" d="M59.4016 31.3053L61.3055 32.3934V31.6338L59.4016 30.5457V31.3053Z" fill="#42FFFF"/>
<path opacity="0.5" d="M59.9279 33.3414L61.3055 34.1286V33.369L59.9279 32.5818V33.3414Z" fill="#42FFFF"/>
<path opacity="0.5" d="M59.3018 34.7184L61.3055 35.8637V35.1042L59.3018 33.9589V34.7184Z" fill="#42FFFF"/>
<path opacity="0.5" d="M59.9279 36.8114L61.3055 37.5987V36.8391L59.9279 36.0519V36.8114Z" fill="#42FFFF"/>
<path opacity="0.5" d="M59.5585 38.3354L61.3055 39.3338V38.5742L59.5585 37.5759V38.3354Z" fill="#42FFFF"/>
<path opacity="0.5" d="M60.3535 40.5249L61.3055 41.069V40.3094L60.3535 39.7654V40.5249Z" fill="#42FFFF"/>
<path opacity="0.5" d="M59.461 41.7499L61.3055 42.8041V42.0446L59.461 40.9904V41.7499Z" fill="#42FFFF"/>
<path opacity="0.5" d="M59.5585 43.5407L61.3055 44.5391V43.7795L59.5585 42.7811V43.5407Z" fill="#42FFFF"/>
<path opacity="0.5" d="M52.8524 39.7085L52.1094 39.284V38.5244L52.8524 38.9489V39.7085Z" fill="#42FFFF"/>
<path opacity="0.5" d="M55.0587 40.9695L53.3862 40.0137V39.2542L55.0587 40.21V40.9695Z" fill="#42FFFF"/>
<path opacity="0.5" d="M56.4423 46.8058L53.6198 45.1929V44.4333L56.4423 46.0463V46.8058Z" fill="#42FFFF"/>
<path opacity="0.5" d="M58.3754 47.9105L57.2637 47.2754V46.5158L58.3754 47.1509V47.9105Z" fill="#42FFFF"/>
</g>
<defs>
<linearGradient id="paint0_linear_1457_5339" x1="66.7045" y1="63.4358" x2="2.53085" y2="63.4358" gradientUnits="userSpaceOnUse">
<stop stop-color="#42FFFF"/>
<stop offset="0.1507" stop-color="#43FAFF"/>
<stop offset="0.3285" stop-color="#45ECFF"/>
<stop offset="0.5199" stop-color="#49D4FF"/>
<stop offset="0.7209" stop-color="#4EB3FF"/>
<stop offset="0.9274" stop-color="#5489FF"/>
<stop offset="1" stop-color="#5778FF"/>
</linearGradient>
<linearGradient id="paint1_linear_1457_5339" x1="75.2408" y1="32.9464" x2="26.5966" y2="32.9464" gradientUnits="userSpaceOnUse">
<stop stop-color="#C0D6FF"/>
<stop offset="0.2978" stop-color="#C5DBFF"/>
<stop offset="0.6488" stop-color="#D3E9FF"/>
<stop offset="1" stop-color="#E9FFFF"/>
</linearGradient>
<linearGradient id="paint2_linear_1457_5339" x1="75.2405" y1="45.2942" x2="66.8878" y2="45.2942" gradientUnits="userSpaceOnUse">
<stop stop-color="#5778FF"/>
<stop offset="0.1779" stop-color="#5C7DFF"/>
<stop offset="0.3876" stop-color="#6A8AFF"/>
<stop offset="0.6134" stop-color="#82A0FF"/>
<stop offset="0.849" stop-color="#A3BEFF"/>
<stop offset="1" stop-color="#BCD5FF"/>
</linearGradient>
<linearGradient id="paint3_linear_1457_5339" x1="68.7236" y1="59.1745" x2="0.0221576" y2="59.1745" gradientUnits="userSpaceOnUse">
<stop stop-color="#5778FF"/>
<stop offset="0.1779" stop-color="#5C7DFF"/>
<stop offset="0.3876" stop-color="#6A8AFF"/>
<stop offset="0.6134" stop-color="#82A0FF"/>
<stop offset="0.849" stop-color="#A3BEFF"/>
<stop offset="1" stop-color="#BCD5FF"/>
</linearGradient>
<linearGradient id="paint4_linear_1457_5339" x1="45.6397" y1="56.9071" x2="-23.0984" y2="56.9071" gradientUnits="userSpaceOnUse">
<stop stop-color="#C0D6FF"/>
<stop offset="0.2978" stop-color="#C5DBFF"/>
<stop offset="0.6488" stop-color="#D3E9FF"/>
<stop offset="1" stop-color="#E9FFFF"/>
</linearGradient>
<linearGradient id="paint5_linear_1457_5339" x1="33.9989" y1="60.7695" x2="16.404" y2="60.7695" gradientUnits="userSpaceOnUse">
<stop stop-color="#C0D6FF"/>
<stop offset="0.2978" stop-color="#C5DBFF"/>
<stop offset="0.6488" stop-color="#D3E9FF"/>
<stop offset="1" stop-color="#E9FFFF"/>
</linearGradient>
<linearGradient id="paint6_linear_1457_5339" x1="71.9016" y1="41.827" x2="3.16353" y2="41.827" gradientUnits="userSpaceOnUse">
<stop stop-color="#C0D6FF"/>
<stop offset="0.2978" stop-color="#C5DBFF"/>
<stop offset="0.6488" stop-color="#D3E9FF"/>
<stop offset="1" stop-color="#E9FFFF"/>
</linearGradient>
<linearGradient id="paint7_linear_1457_5339" x1="76.4256" y1="36.8326" x2="58.8307" y2="36.8326" gradientUnits="userSpaceOnUse">
<stop stop-color="#C0D6FF"/>
<stop offset="0.2978" stop-color="#C5DBFF"/>
<stop offset="0.6488" stop-color="#D3E9FF"/>
<stop offset="1" stop-color="#E9FFFF"/>
</linearGradient>
<clipPath id="clip0_1457_5339">
<rect width="80" height="82" fill="white"/>
</clipPath>
</defs>
</svg>
