<svg width="16" height="16" viewBox="0 0 16 16" fill="none" xmlns="http://www.w3.org/2000/svg">
<g clip-path="url(#clip0_377_588)">
<path d="M8.00264 3.89209C5.73397 3.89209 3.89731 5.73076 3.89731 7.99743C3.89731 10.2661 5.73597 12.1028 8.00264 12.1028C10.2713 12.1028 12.108 10.2641 12.108 7.99743C12.108 5.72876 10.2693 3.89209 8.00264 3.89209ZM8.00264 10.6621C6.52997 10.6621 5.33797 9.46943 5.33797 7.99743C5.33797 6.52542 6.53064 5.33276 8.00264 5.33276C9.47464 5.33276 10.6673 6.52542 10.6673 7.99743C10.668 9.46943 9.47531 10.6621 8.00264 10.6621Z" fill="#45C436"/>
<path d="M11.2983 0.0514785C9.8263 -0.0171882 6.1803 -0.0138549 4.70697 0.0514785C3.4123 0.112145 2.2703 0.424812 1.34963 1.34548C-0.189034 2.88415 0.00763271 4.95748 0.00763271 7.99815C0.00763271 11.1101 -0.165701 13.1355 1.34963 14.6508C2.8943 16.1948 4.99763 15.9928 8.0023 15.9928C11.085 15.9928 12.149 15.9948 13.239 15.5728C14.721 14.9975 15.8396 13.6728 15.949 11.2935C16.0183 9.82081 16.0143 6.17548 15.949 4.70215C15.817 1.89348 14.3096 0.190145 11.2983 0.0514785ZM13.6283 13.6328C12.6196 14.6415 11.2203 14.5515 7.98296 14.5515C4.64963 14.5515 3.31297 14.6008 2.33763 13.6228C1.2143 12.5048 1.41763 10.7095 1.41763 7.98748C1.41763 4.30414 1.03963 1.65148 4.7363 1.46215C5.58563 1.43214 5.83563 1.42215 7.97363 1.42215L8.00363 1.44215C11.5563 1.44215 14.3436 1.07015 14.511 4.76615C14.549 5.60948 14.5576 5.86281 14.5576 7.99748C14.557 11.2921 14.6196 12.6368 13.6283 13.6328Z" fill="#45C436"/>
<path d="M12.2706 4.68917C12.8005 4.68917 13.23 4.25966 13.23 3.72984C13.23 3.20002 12.8005 2.77051 12.2706 2.77051C11.7408 2.77051 11.3113 3.20002 11.3113 3.72984C11.3113 4.25966 11.7408 4.68917 12.2706 4.68917Z" fill="#45C436"/>
</g>
<defs>
<clipPath id="clip0_377_588">
<rect width="16" height="16" fill="white"/>
</clipPath>
</defs>
</svg>
