<svg width="19" height="18" viewBox="0 0 19 18" fill="none" xmlns="http://www.w3.org/2000/svg">
<path d="M18.05 8.35689C18.05 12.9574 14.292 16.6867 9.65543 16.6867C8.23708 16.689 6.84115 16.3323 5.5976 15.6502L0.950012 17.1271L2.46526 12.6579C1.67562 11.3625 1.25876 9.87404 1.26066 8.35689C1.26066 3.75642 5.01905 0.0270996 9.65562 0.0270996C14.2922 0.0270996 18.05 3.75642 18.05 8.35689ZM9.65543 1.35368C5.76347 1.35368 2.59769 4.49533 2.59769 8.35689C2.59769 9.88924 3.0972 11.3084 3.94213 12.463L3.06034 15.0637L5.77259 14.2017C6.9257 14.9592 8.27565 15.362 9.65543 15.3601C13.547 15.3601 16.7132 12.2186 16.7132 8.35708C16.7132 4.49552 13.5472 1.35368 9.65543 1.35368ZM13.8945 10.2753C13.8427 10.1904 13.7057 10.1391 13.5001 10.0371C13.2941 9.93503 12.2822 9.44084 12.0941 9.37301C11.9052 9.30499 11.7679 9.2706 11.6307 9.47504C11.4937 9.67948 11.0992 10.1391 10.979 10.2753C10.8591 10.4117 10.7392 10.4288 10.5332 10.3266C10.3277 10.2246 9.66455 10.0089 8.87852 9.31335C8.26691 8.77223 7.85385 8.10419 7.73377 7.89956C7.61388 7.69531 7.72123 7.58492 7.82402 7.48327C7.91674 7.39169 8.02998 7.24482 8.13277 7.12569C8.23594 7.00637 8.27014 6.92144 8.33835 6.78502C8.40732 6.64879 8.37293 6.52966 8.32125 6.42725C8.26995 6.32522 7.85803 5.3205 7.68665 4.91162C7.51527 4.50312 7.34408 4.57114 7.22381 4.57114C7.10392 4.57114 6.96655 4.55404 6.82937 4.55404C6.69219 4.55404 6.46913 4.60515 6.28046 4.8094C6.09198 5.01384 5.56055 5.50784 5.56055 6.51237C5.56055 7.51709 6.29756 8.4878 6.40073 8.62384C6.50352 8.75988 7.82383 10.8886 9.91573 11.7062C12.008 12.5236 12.008 12.2509 12.3854 12.2169C12.7623 12.1829 13.6025 11.7231 13.7744 11.2464C13.9456 10.7693 13.9456 10.3604 13.8945 10.2753Z" fill="#45C436"/>
</svg>
