<svg width="17" height="13" viewBox="0 0 17 13" fill="none" xmlns="http://www.w3.org/2000/svg">
<path d="M15.4062 0.125H1.59376C0.714907 0.125 0 0.839907 0 1.71876V11.2813C0 12.1601 0.714907 12.875 1.59376 12.875H15.4062C16.2851 12.875 17 12.1601 17 11.2813V1.71876C17 0.839907 16.2851 0.125 15.4062 0.125ZM15.4062 1.1875C15.4784 1.1875 15.5471 1.20247 15.6099 1.22862L8.5 7.39079L1.39011 1.22862C1.45288 1.20251 1.52155 1.1875 1.59373 1.1875H15.4062ZM15.4062 11.8125H1.59376C1.30064 11.8125 1.0625 11.5744 1.0625 11.2812V2.35116L8.15188 8.4953C8.25202 8.58192 8.37601 8.625 8.5 8.625C8.62399 8.625 8.74798 8.58195 8.84812 8.4953L15.9375 2.35116V11.2813C15.9375 11.5744 15.6994 11.8125 15.4062 11.8125Z" fill="#222222"/>
</svg>
