<svg width="21" height="21" viewBox="0 0 21 21" fill="none" xmlns="http://www.w3.org/2000/svg">
<path d="M19.4678 3.04624C18.4321 1.87098 16.9952 1.22375 15.4219 1.22375C13.2092 1.22375 11.8083 2.54528 11.0227 3.65393C10.8189 3.94161 10.6456 4.23008 10.5 4.50152C10.3544 4.23008 10.1811 3.94161 9.97726 3.65393C9.19172 2.54528 7.79084 1.22375 5.57812 1.22375C4.00485 1.22375 2.56795 1.87102 1.53214 3.04628C0.544154 4.16741 0 5.66891 0 7.27417C0 9.02156 0.682213 10.6468 2.14696 12.3888C3.45606 13.9458 5.33937 15.5506 7.52022 17.409C8.33286 18.1015 9.17323 18.8177 10.0679 19.6004L10.0948 19.624C10.2108 19.7255 10.3554 19.7763 10.5 19.7763C10.6446 19.7763 10.7892 19.7255 10.9052 19.624L10.9321 19.6004C11.8268 18.8177 12.6671 18.1016 13.4799 17.4089C15.6606 15.5507 17.5439 13.9458 18.853 12.3888C20.3178 10.6468 21 9.02156 21 7.27417C21 5.66891 20.4558 4.16741 19.4678 3.04624ZM12.6817 16.4725C11.9812 17.0694 11.2602 17.6838 10.5 18.3447C9.73982 17.6839 9.0188 17.0694 8.31813 16.4724C4.05009 12.8354 1.23047 10.4327 1.23047 7.27417C1.23047 5.96865 1.66544 4.75606 2.45528 3.85983C3.25418 2.95342 4.3632 2.45422 5.57812 2.45422C7.26506 2.45422 8.35554 3.49348 8.97323 4.36531C9.52731 5.14723 9.81643 5.93547 9.91504 6.23804C9.99752 6.49131 10.2336 6.66271 10.5 6.66271C10.7664 6.66271 11.0025 6.49131 11.085 6.23804C11.1836 5.93547 11.4727 5.14723 12.0268 4.36526C12.6445 3.49348 13.7349 2.45422 15.4219 2.45422C16.6368 2.45422 17.7458 2.95342 18.5447 3.85983C19.3346 4.75606 19.7695 5.96865 19.7695 7.27417C19.7695 10.4327 16.9499 12.8354 12.6817 16.4725Z" fill="#FFD25A"/>
<path d="M12.6817 16.4725C11.9812 17.0694 11.2602 17.6838 10.5 18.3447C9.73982 17.6839 9.0188 17.0694 8.31813 16.4724C4.05009 12.8354 1.23047 10.4327 1.23047 7.27417C1.23047 5.96865 1.66544 4.75606 2.45528 3.85983C3.25418 2.95342 4.3632 2.45422 5.57812 2.45422C7.26506 2.45422 8.35554 3.49348 8.97323 4.36531C9.52731 5.14723 9.81643 5.93547 9.91504 6.23804C9.99752 6.49131 10.2336 6.66271 10.5 6.66271C10.7664 6.66271 11.0025 6.49131 11.085 6.23804C11.1836 5.93547 11.4727 5.14723 12.0268 4.36526C12.6445 3.49348 13.7349 2.45422 15.4219 2.45422C16.6368 2.45422 17.7458 2.95342 18.5447 3.85983C19.3346 4.75606 19.7695 5.96865 19.7695 7.27417C19.7695 10.4327 16.9499 12.8354 12.6817 16.4725Z" fill="#FFD25A"/>
</svg>
