<svg width="21" height="19" viewBox="0 0 21 19" fill="none" xmlns="http://www.w3.org/2000/svg">
<path d="M19.4678 2.04624C18.4321 0.870981 16.9952 0.223755 15.4219 0.223755C13.2092 0.223755 11.8083 1.54528 11.0227 2.65393C10.8189 2.94161 10.6456 3.23008 10.5 3.50152C10.3544 3.23008 10.1811 2.94161 9.97726 2.65393C9.19172 1.54528 7.79084 0.223755 5.57812 0.223755C4.00485 0.223755 2.56795 0.871023 1.53214 2.04628C0.544154 3.16741 0 4.66891 0 6.27417C0 8.02156 0.682213 9.64681 2.14696 11.3888C3.45606 12.9458 5.33937 14.5506 7.52022 16.409C8.33286 17.1015 9.17323 17.8177 10.0679 18.6004L10.0948 18.624C10.2108 18.7255 10.3554 18.7763 10.5 18.7763C10.6446 18.7763 10.7892 18.7255 10.9052 18.624L10.9321 18.6004C11.8268 17.8177 12.6671 17.1016 13.4799 16.4089C15.6606 14.5507 17.5439 12.9458 18.853 11.3888C20.3178 9.64677 21 8.02156 21 6.27417C21 4.66891 20.4558 3.16741 19.4678 2.04624ZM12.6817 15.4725C11.9812 16.0694 11.2602 16.6838 10.5 17.3447C9.73982 16.6839 9.0188 16.0694 8.31813 15.4724C4.05009 11.8354 1.23047 9.43266 1.23047 6.27417C1.23047 4.96865 1.66544 3.75606 2.45528 2.85983C3.25418 1.95342 4.3632 1.45422 5.57812 1.45422C7.26506 1.45422 8.35554 2.49348 8.97323 3.36531C9.52731 4.14723 9.81643 4.93547 9.91504 5.23804C9.99752 5.49131 10.2336 5.66271 10.5 5.66271C10.7664 5.66271 11.0025 5.49131 11.085 5.23804C11.1836 4.93547 11.4727 4.14723 12.0268 3.36526C12.6445 2.49348 13.7349 1.45422 15.4219 1.45422C16.6368 1.45422 17.7458 1.95342 18.5447 2.85983C19.3346 3.75606 19.7695 4.96865 19.7695 6.27417C19.7695 9.43266 16.9499 11.8354 12.6817 15.4725Z" fill="#FFD25A"/>
<path d="M12.6817 15.4725C11.9812 16.0694 11.2602 16.6838 10.5 17.3447C9.73982 16.6839 9.0188 16.0694 8.31813 15.4724C4.05009 11.8354 1.23047 9.43266 1.23047 6.27417C1.23047 4.96865 1.66544 3.75606 2.45528 2.85983C3.25418 1.95342 4.3632 1.45422 5.57812 1.45422C7.26506 1.45422 8.35554 2.49348 8.97323 3.36531C9.52731 4.14723 9.81643 4.93547 9.91504 5.23804C9.99752 5.49131 10.2336 5.66271 10.5 5.66271C10.7664 5.66271 11.0025 5.49131 11.085 5.23804C11.1836 4.93547 11.4727 4.14723 12.0268 3.36526C12.6445 2.49348 13.7349 1.45422 15.4219 1.45422C16.6368 1.45422 17.7458 1.95342 18.5447 2.85983C19.3346 3.75606 19.7695 4.96865 19.7695 6.27417C19.7695 9.43266 16.9499 11.8354 12.6817 15.4725Z" fill="#FFD25A"/>
</svg>
