<svg width="19" height="19" viewBox="0 0 19 19" fill="none" xmlns="http://www.w3.org/2000/svg">
<path d="M18.0499 9.35689C18.0499 13.9574 14.2919 17.6867 9.65537 17.6867C8.23702 17.689 6.84109 17.3323 5.59754 16.6502L0.949951 18.1271L2.4652 13.6579C1.67556 12.3625 1.2587 10.874 1.2606 9.35689C1.2606 4.75642 5.01899 1.0271 9.65556 1.0271C14.2921 1.0271 18.0499 4.75642 18.0499 9.35689ZM9.65537 2.35368C5.76341 2.35368 2.59763 5.49533 2.59763 9.35689C2.59763 10.8892 3.09714 12.3084 3.94207 13.463L3.06028 16.0637L5.77253 15.2017C6.92564 15.9592 8.27559 16.362 9.65537 16.3601C13.5469 16.3601 16.7131 13.2186 16.7131 9.35708C16.7131 5.49552 13.5471 2.35368 9.65537 2.35368ZM13.8945 11.2753C13.8426 11.1904 13.7056 11.1391 13.5 11.0371C13.2941 10.935 12.2821 10.4408 12.094 10.373C11.9052 10.305 11.7678 10.2706 11.6306 10.475C11.4936 10.6795 11.0992 11.1391 10.9789 11.2753C10.859 11.4117 10.7391 11.4288 10.5332 11.3266C10.3276 11.2246 9.66449 11.0089 8.87846 10.3133C8.26685 9.77223 7.85379 9.10419 7.73371 8.89956C7.61382 8.69531 7.72117 8.58492 7.82396 8.48327C7.91668 8.39169 8.02992 8.24482 8.13271 8.12569C8.23588 8.00637 8.27008 7.92144 8.33829 7.78502C8.40726 7.64879 8.37287 7.52966 8.32119 7.42725C8.26989 7.32522 7.85797 6.3205 7.68659 5.91162C7.51521 5.50312 7.34402 5.57114 7.22375 5.57114C7.10386 5.57114 6.96649 5.55404 6.82931 5.55404C6.69213 5.55404 6.46907 5.60515 6.2804 5.8094C6.09192 6.01384 5.56049 6.50784 5.56049 7.51237C5.56049 8.51709 6.2975 9.4878 6.40067 9.62384C6.50346 9.75988 7.82377 11.8886 9.91567 12.7062C12.0079 13.5236 12.0079 13.2509 12.3853 13.2169C12.7622 13.1829 13.6024 12.7231 13.7744 12.2464C13.9456 11.7693 13.9456 11.3604 13.8945 11.2753Z" fill="#FFD25A"/>
</svg>
