<svg width="24" height="24" viewBox="0 0 24 24" fill="none" xmlns="http://www.w3.org/2000/svg">
<g clip-path="url(#clip0_377_692)">
<path d="M23 22L17.5 16.5C18.8687 14.8313 19.875 12.525 19.875 10.1953C19.875 4.85156 15.5391 0.515625 10.1953 0.515625C4.84688 0.515625 0.515625 4.85156 0.515625 10.1953C0.515625 15.5391 4.84688 19.875 10.1953 19.875C12.525 19.875 14.8313 18.8687 16.5 17.5L22 23C22.375 23.375 22.8281 23.5781 23.2031 23.2031C23.5781 22.8328 23.375 22.3703 23 22ZM10.1953 18.6445C5.91562 18.6445 1.75 14.4703 1.75 10.1953C1.75 5.92031 5.91562 1.75 10.1953 1.75C14.4703 1.75 18.65 5.92031 18.65 10.1953C18.65 14.4703 14.4703 18.6445 10.1953 18.6445Z" fill="#4B4B4B"/>
</g>
<defs>
<clipPath id="clip0_377_692">
<rect width="24" height="24" fill="white"/>
</clipPath>
</defs>
</svg>
